<svg width="92" height="59" viewBox="0 0 92 59" fill="none" xmlns="http://www.w3.org/2000/svg">
<path d="M25.5763 19.9786C21.2263 -4.47143 70.2363 -12.3214 66.9763 30.4786C66.9763 30.4786 87.9464 15.7786 91.2064 40.5286C94.4664 65.2786 54.3363 50.2586 54.3363 50.2586C37.7163 64.5286 19.7263 58.3586 18.8463 47.1986C18.8463 47.1986 10.9563 53.7486 4.15633 50.8286C-2.64367 47.9086 -0.303672 37.5986 5.58633 36.1286C5.58633 36.1286 2.45634 26.7886 8.84634 20.7886C15.2163 14.7686 25.5763 19.9786 25.5763 19.9786Z" fill="#FBD493"/>
<path d="M91.3866 42.8986C79.4766 56.7586 56.7066 47.5186 66.2766 32.2786C66.2766 32.2786 55.9466 39.1086 40.8566 36.1186C40.8566 36.1186 56.8966 40.2186 48.4366 46.3586C31.8466 58.4186 19.9266 41.4185 19.9266 41.4185C8.09656 50.9185 -1.14342 42.5186 5.57658 36.1186C-0.31342 37.5886 -2.65344 47.8985 4.14656 50.8185C10.9466 53.7385 18.8366 47.1886 18.8366 47.1886C19.7166 58.3586 37.7066 64.5186 54.3266 50.2486C54.3366 50.2486 91.7966 64.2686 91.3866 42.8986Z" fill="#F8B690"/>
<path d="M73.9264 27.0786C71.1664 33.0286 78.8665 33.9186 80.0265 35.4386C81.3565 37.1886 76.1065 41.9386 71.0265 38.7686C66.1965 35.7586 82.9465 57.6486 90.3165 36.0386C87.2865 25.1686 79.6464 25.2286 73.9264 27.0786Z" fill="#FFFD9C"/>
<path d="M66.977 22.8186C65.027 -0.481373 44.457 -3.94137 32.957 3.53863C28.017 12.3586 34.967 19.7686 45.697 19.4886C46.527 29.0886 60.957 34.7586 66.977 22.8186Z" fill="#FFFD9C"/>
<path d="M19.0256 36.3586C24.4056 37.3586 41.1456 39.7386 38.5256 32.8586C35.9056 25.9786 29.9656 30.3986 29.9656 30.3986C25.0156 21.6186 16.7756 31.9886 19.0256 36.3586Z" fill="#FFFD9C"/>
<path d="M34.1766 26.3586C36.7282 26.3586 38.7967 25.1094 38.7967 23.5685C38.7967 22.0277 36.7282 20.7786 34.1766 20.7786C31.6251 20.7786 29.5566 22.0277 29.5566 23.5685C29.5566 25.1094 31.6251 26.3586 34.1766 26.3586Z" fill="#FFFD9C"/>
<path d="M8.83648 20.7788C5.08648 24.3088 4.62649 28.9788 4.87649 32.2288C14.5965 38.8488 20.6865 26.4088 19.7365 18.1488C16.3265 17.5688 12.0765 17.7288 8.83648 20.7788Z" fill="#FFFD9C"/>
</svg>
