<svg width="456" height="172" viewBox="0 0 456 172" fill="none" xmlns="http://www.w3.org/2000/svg">
<path d="M34.4214 135.46C32.9604 79.8221 95.3556 93.7621 95.3556 93.7621C95.3556 93.7621 91.7489 53.0074 136.841 61.4536C136.841 61.4536 126.371 5.25221 176.698 0.321468C230.753 -4.97452 229.231 57.2685 229.231 57.2685C258.253 33.1627 308.732 55.9902 300.164 102.117C311.456 87.6292 336.764 94.8579 336.003 120.349C341.497 113.683 359.014 120.729 355.026 134.228C370.61 120.79 395.233 146.783 455.604 146.783C455.604 146.783 412.217 173.659 275.51 160.556C275.51 160.556 210.711 185.514 141.863 161.666C141.863 161.666 1.56493 187.796 0.0126542 154.316C-0.763482 137.728 34.4214 135.46 34.4214 135.46Z" fill="#FBD493"/>
<path d="M282.359 150.207C295.035 138.672 295.035 126.999 295.035 126.999C272.969 159.217 167.201 181.024 133.34 136.009C133.34 136.009 133.721 143.618 139.55 151.166C139.55 151.166 -15.6168 181.207 7.81949 142.507C3.11702 145.277 -0.231024 149.081 0.0124696 154.331C1.56474 187.812 141.863 161.682 141.863 161.682C210.711 185.529 275.51 160.571 275.51 160.571C412.217 173.689 455.604 146.798 455.604 146.798C379.756 170.372 282.359 150.207 282.359 150.207Z" fill="#F8B690"/>
<path d="M335.228 112.1C332.108 98.4344 320.085 92.5906 309.95 95.4668C303.893 105.678 334.375 127.836 335.228 112.1Z" fill="#FFFD9C"/>
<path d="M355.028 134.228C358.163 123.606 347.997 116.97 340.844 117.883C336.872 126.741 350.98 145.916 355.028 134.228Z" fill="#FFFD9C"/>
<path d="M261.92 117.777C261.92 141.974 175.815 151.637 153.825 124.914C134.969 102.026 167.673 92.6055 175.374 109.117C189.999 91.6467 226.538 91.2054 232.306 109.117C232.306 109.117 261.92 101.158 261.92 117.777Z" fill="#FFFD9C"/>
<path d="M261.922 94.7363C261.922 94.7363 300.5 109.544 298.4 76.1243C290.456 54.4077 266.533 43.4809 245.547 48.8987C230.953 63.0061 243.279 91.6014 281.082 84.1292C281.082 84.1292 278.784 91.647 261.922 94.7363Z" fill="#FFFD9C"/>
<path d="M125.87 60.3123C92.3745 59.9775 95.3572 93.747 95.3572 93.747C97.0617 122.266 160.766 72.2891 125.87 60.3123Z" fill="#FFFD9C"/>
<path d="M144.361 71.4674C150.63 62.8386 157.357 64.6344 168.679 67.3432C171.845 60.8754 186.774 57.5579 194.018 64.6344C197.99 68.5151 217.546 68.4846 207.136 77.083C196.727 85.6814 173.428 86.8075 173.428 86.8075C157.585 94.0362 136.112 82.8203 144.361 71.4674Z" fill="#FFFD9C"/>
<path d="M198.902 45.7027C207.866 46.3723 220.847 32.2041 223.754 40.285C226.675 48.3659 230.724 59.1405 218.686 56.0969C206.648 53.0532 204.228 58.9275 198.902 56.6295C193.576 54.3315 186.986 44.8201 198.902 45.7027Z" fill="#FFFD9C"/>
<path d="M217.773 16.9705C210.194 6.31767 197.593 -1.73284 176.683 0.321642C140.677 3.8523 135.792 33.6194 135.929 50.2683C139.048 55.5643 146.231 57.2078 158.573 53.6924C191.552 44.3027 183.912 37.7892 204.989 31.3671C209.266 30.0735 214.851 23.3774 217.773 16.9705Z" fill="#FFFD9C"/>
<path d="M102.022 134.35C106.587 126.482 79.0727 110.883 79.0727 110.883C89.345 106.576 89.9538 97.932 87.8841 92.636C71.357 90.9772 33.2958 91.8447 34.4372 135.445C40.8898 144.241 97.4564 142.217 102.022 134.35Z" fill="#FFFD9C"/>
<path d="M117.62 121.429C131.377 130.089 145.576 123.286 141.969 118.553C138.363 113.82 127.512 101.371 120.481 104.263C113.435 107.154 112.476 118.188 117.62 121.429Z" fill="#FFFD9C"/>
<path d="M219.919 83.855C222.141 76.398 231.607 81.2983 231.607 81.2983C237.07 74.8762 253.887 89.3945 241.91 92.3469C227.802 95.8471 218.55 88.4205 219.919 83.855Z" fill="#FFFD9C"/>
<path d="M342.67 68.7586C346.049 75.5003 362.287 75.6373 364.859 70.1587C367.431 64.6801 357.737 63.3104 357.737 63.3104C352.897 52.8554 339.109 61.6364 342.67 68.7586Z" fill="#FFFD9C"/>
<path d="M31.5304 57.7256C41.6811 63.4933 68.4654 59.9779 68.4654 56.432C68.4654 50.299 58.6191 47.6054 55.0732 54.0123C43.9486 49.6599 31.1347 57.7104 31.5304 57.7256Z" fill="#FFFD9C"/>
<path d="M73.9146 39.8742C76.9319 39.8742 79.3779 38.0005 79.3779 35.6892C79.3779 33.3779 76.9319 31.5042 73.9146 31.5042C70.8972 31.5042 68.4512 33.3779 68.4512 35.6892C68.4512 38.0005 70.8972 39.8742 73.9146 39.8742Z" fill="#FFFD9C"/>
</svg>
