<svg width="418" height="148" viewBox="0 0 418 148" fill="none" xmlns="http://www.w3.org/2000/svg">
<path d="M80.9278 120.419C78.7985 91.9217 101.794 71.0212 123.376 81.3948C111.163 63.4922 133.085 33.5467 155.451 41.8422C159.999 11.4709 193.896 -2.93977 213.298 0.50107C238.627 4.99801 254.809 29.135 259.647 54.1236C275.829 33.3934 309.897 36.5277 317.562 67.2226C317.562 67.2226 346.026 36.3062 362.259 97.6621C376.329 76.2676 417.534 84.001 417.534 117.847C417.534 131.048 367.233 131.9 359.857 124.235C359.857 124.235 316.25 164.282 218.169 134.472C218.169 134.472 146.576 160.824 93.6862 139.923C93.6862 139.923 49.5515 147.98 0 140.996C29.4004 120.556 80.9278 120.419 80.9278 120.419Z" fill="#FBD493"/>
<path d="M359.993 114.321C335.72 137.317 266.307 143.841 227.555 124.678C227.555 124.678 237.639 119.142 242.886 101.12C219.6 130.793 133.579 151.796 93.2773 127.659C93.2773 127.659 47.7458 143.551 16.9316 132.105C10.8846 134.541 5.11015 137.453 0 141.013C49.5515 147.997 93.6862 139.94 93.6862 139.94C146.593 160.841 218.169 134.489 218.169 134.489C316.233 164.316 359.857 124.252 359.857 124.252C367.233 131.917 417.534 131.066 417.534 117.864C387.486 131.917 359.993 114.321 359.993 114.321Z" fill="#F8B690"/>
<path d="M253.208 34.2963C245.322 17.4668 231.729 3.78864 213.298 0.50111C197.389 -2.32651 171.77 6.85474 160.527 26.9717C163.73 37.2431 175.909 44.5677 191.784 40.4966C191.784 40.4966 187.594 53.5615 163.117 46.3222C163.117 46.3222 163.117 69.1816 209.534 59.9492C218.323 65.7748 260.482 72.0092 253.208 34.2963Z" fill="#FFFD9C"/>
<path d="M119.902 69.3352C124.331 78.6016 135.573 83.32 143.954 81.4462C159.285 78.0395 164.19 49.9336 155.452 41.8425C137.652 35.2505 120.158 52.8464 119.902 69.3352Z" fill="#FFFD9C"/>
<path d="M315.69 61.5165C307.071 40.2072 283.922 35.8295 267.808 46.5438C265.662 62.1979 288.845 83.405 315.69 61.5165Z" fill="#FFFD9C"/>
<path d="M123.377 81.3948C106.002 73.0312 87.708 84.9719 82.3594 104.816C112.373 143.96 139.712 90.1672 123.377 81.3948Z" fill="#FFFD9C"/>
<path d="M137.515 116.604C132.984 108.904 142.949 98.3775 149.967 100.251C152.573 92.6201 173.951 72.8608 191.564 90.065C196.265 85.3637 211.204 88.4298 206.332 99.2803C211.987 108.904 179.776 121.016 157.036 114.526C157.036 114.543 141.297 123.026 137.515 116.604Z" fill="#FFFD9C"/>
<path d="M362.26 97.6621C366.995 122.957 422.151 110.676 410.125 96.5379C397.588 81.974 372.599 81.9399 362.26 97.6621Z" fill="#FFFD9C"/>
<path d="M326.25 61.1586C326.369 73.8829 353.692 94.3235 356.826 81.3948C346.81 57.6326 334.409 57.5815 326.25 61.1586Z" fill="#FFFD9C"/>
<path d="M264.485 109.075C275.642 125.41 326.692 113.367 328.668 106.997C325.687 88.1403 312.895 99.093 312.895 99.093C307.137 83.9329 283.154 90.2184 280.037 96.8105C268.862 85.2786 258.676 100.558 264.485 109.075Z" fill="#FFFD9C"/>
<path d="M241.864 73.0993C228.288 66.0984 219.856 84.3927 236.073 87.8165C236.073 87.8165 267.756 89.4518 259.613 74.2406C251.454 59.0293 241.864 73.0993 241.864 73.0993Z" fill="#FFFD9C"/>
<path d="M317.256 87.8677C322.487 87.8677 326.727 85.2747 326.727 82.0762C326.727 78.8776 322.487 76.2847 317.256 76.2847C312.025 76.2847 307.785 78.8776 307.785 82.0762C307.785 85.2747 312.025 87.8677 317.256 87.8677Z" fill="#FFFD9C"/>
<path d="M215.385 78.1053C215.995 74.9656 211.564 71.4629 205.487 70.2819C199.411 69.1008 193.991 70.6885 193.38 73.8282C192.77 76.9679 197.201 80.4706 203.277 81.6517C209.354 82.8328 214.774 81.245 215.385 78.1053Z" fill="#FFFD9C"/>
<path d="M278.896 84.2737C281.803 84.2737 284.16 82.8628 284.16 81.1225C284.16 79.3821 281.803 77.9712 278.896 77.9712C275.989 77.9712 273.633 79.3821 273.633 81.1225C273.633 82.8628 275.989 84.2737 278.896 84.2737Z" fill="#FFFD9C"/>
</svg>
