<svg width="308" height="482" viewBox="0 0 308 482" fill="none" xmlns="http://www.w3.org/2000/svg">
<path d="M311.967 226.209C290.771 220.895 269.217 216.566 247.454 214.566C226.407 212.625 205.151 212.685 184.165 215.312C164.521 217.76 140.459 221.701 123.234 232.269C117.054 236.06 113.114 240.897 110.994 246.24C125.085 285.677 172.044 298.304 210.585 306.902C248.2 315.321 288.621 323.292 325.52 310.903C331.909 307.529 351.492 299.618 358.06 297.021C363.702 310.097 344.537 321.769 338.596 325.77C314.086 342.249 313.28 374.162 312.235 400.91C311.549 418.166 308.444 435.033 307.489 452.228C306.832 463.811 306.712 475.454 306.653 487.067C322.803 482.022 338.178 474.917 345.313 467.215C370.031 440.675 379.973 368.042 383.077 344.428C387.018 314.515 391.406 291.916 387.705 262.003C385.645 245.345 330.894 230.955 311.967 226.209Z" fill="#6D696D"/>
<path d="M346.597 227.253C341.91 225.283 337.133 223.641 332.327 222.148C330.954 225.462 328.177 228.239 324.416 230.06C303.787 240.12 275.785 232.328 254.619 229.045C246.439 227.761 214.974 221.283 208.525 229.343C201.928 237.642 215.123 241.434 219.84 245.225C223.452 248.151 225.751 250.718 228.258 254.599C230.587 258.181 229.303 263.495 225.631 265.645C210.764 274.332 196.644 285.617 180.463 291.737C178.523 293.378 176.552 294.991 174.582 296.632C208.048 308.365 246.111 312.425 279.069 311.917C302.384 311.559 327.371 309.41 349.284 300.842C364.061 295.05 386.69 283.079 388.033 265.078C389.556 244.807 361.941 233.672 346.597 227.253Z" fill="#999698"/>
<path d="M185.986 207.7C166.253 208.745 129.444 208.237 120.548 230.269C120.309 230.896 120.159 231.493 120.01 232.09C119.025 233.791 118.159 235.642 117.503 237.672C112.069 254.51 122.757 269.048 136.25 278.004C147.774 285.677 160.79 291.767 174.552 296.603C176.523 294.991 178.493 293.379 180.433 291.707C196.614 285.587 210.734 274.302 225.601 265.615C229.273 263.466 230.557 258.152 228.228 254.569C225.721 250.688 223.392 248.121 219.81 245.195C215.093 241.374 201.898 237.583 208.495 229.313C214.914 221.253 246.409 227.731 254.589 229.015C275.755 232.329 303.787 240.091 324.386 230.03C328.148 228.209 330.954 225.433 332.297 222.119C315.251 216.865 297.488 214.238 279.696 212.297C248.738 208.954 217.183 206.058 185.986 207.7Z" fill="#A5A0A4"/>
<path d="M193.18 314.067C192.494 310.246 193.867 305.35 197.957 303.947C162.342 295.259 123.532 281.437 110.964 246.21C107.113 255.734 116.636 282.9 117.622 286.333C125.831 314.306 138.011 341.801 148.311 368.549C159.954 398.761 181.776 440.227 199.539 467.871C207.779 473.096 216.317 477.693 224.646 481.544C219.66 467.782 216.137 454.169 214.346 443.451C208.077 406.015 200.017 351.414 193.18 314.067Z" fill="#878286"/>
<path d="M325.52 310.873C290.592 322.605 252.529 316.097 216.675 308.216C219.451 311.052 221.421 314.963 222.377 319.888C226.079 338.815 223.392 359.952 225.72 379.267C229.392 409.687 236.856 456.587 246.349 490.082C256.499 493.306 265.336 494.889 271.515 494.381C281.516 493.575 294.323 490.888 306.653 487.037C306.742 475.424 306.832 463.781 307.489 452.198C308.444 435.003 311.549 418.136 312.235 400.881C313.28 374.162 314.086 342.219 338.596 325.74C344.537 321.739 363.673 310.067 358.06 296.991C351.492 299.588 331.909 307.499 325.52 310.873Z" fill="#878286"/>
<path d="M198.793 303.648C198.494 303.708 198.226 303.828 197.957 303.947C202.226 304.992 206.435 305.977 210.555 306.902C212.585 307.35 214.615 307.798 216.645 308.246C212.406 303.887 206.226 302.186 198.793 303.648Z" fill="#6D696D"/>
<path d="M222.376 319.888C221.421 314.962 219.451 311.052 216.674 308.216C214.644 307.768 212.585 307.32 210.584 306.872C206.465 305.947 202.225 304.962 197.986 303.917C193.896 305.32 192.523 310.216 193.21 314.037C200.046 351.384 208.077 405.985 214.376 443.421C216.167 454.139 219.69 467.752 224.675 481.514C232.228 485.037 239.602 487.903 246.379 490.052C236.915 456.557 229.422 409.657 225.75 379.237C223.391 359.951 226.078 338.785 222.376 319.888Z" fill="#6D696D"/>
<path d="M353.881 296.871C341.969 311.261 328.118 317.082 309.28 317.172C301.399 317.202 293.338 316.843 285.278 316.366C285.069 316.067 284.89 315.799 284.681 315.5C279.725 308.813 270.948 310.365 266.978 315.231C263.963 315.052 260.977 314.843 257.992 314.724C252.141 314.425 236.378 321.769 271.844 334.815C286.084 360.847 290.95 392.462 290.413 422.017C289.995 445.422 289.04 468.11 291.905 491.037C304.086 489.187 312.056 485.724 319.729 482.38C319.579 460.915 315.012 440.317 316.355 418.912C317.43 401.627 319.639 384.342 323.311 367.415C325.58 356.907 328.655 347.204 332.416 333.352C346.686 326.934 357.075 315.679 360.717 300.723C361.643 296.931 356.538 293.647 353.881 296.871Z" fill="#5B575B"/>
<path d="M214.645 290.811C208.376 294.125 191.27 298.782 191.27 298.782C191.27 298.782 195.42 290.304 199.898 283.079C192.404 283.975 160.282 282.064 157.745 281.019C145.475 275.914 131.713 270.123 123.712 259.525C113.592 246.151 121.592 231.851 127.593 225.94C138.25 215.432 168.611 212.327 188.434 207.58C168.492 207.58 147.386 207.252 128.548 216.387C107.472 226.597 102.904 257.017 119.95 272.033C129.862 280.78 147.147 300.334 183.18 309.081C184.045 329.71 188.912 350.637 195.748 370.161C197.479 378.52 203.749 398.223 207.6 405.179C209.122 395.626 203.719 319.799 203.659 314.067C215.69 318.784 235.274 321.5 239.931 322.396C260.977 326.307 284.502 322.486 305.429 319.47C333.073 315.5 385.794 300.334 388.033 265.078C370.688 273.825 351.821 301.797 319.908 303.529C300.354 304.574 228.049 307.619 214.645 290.811Z" fill="#BCB7BB"/>
<path d="M289.278 370.042C284.74 356.906 280.859 345.741 271.844 334.815C280.919 356.458 279.486 370.878 283.815 394.163C288.442 419.18 285.367 465.453 291.756 484.022C293.249 458.766 295.786 423.957 292.831 398.97C291.457 387.297 293.129 381.177 289.278 370.042Z" fill="#BCB7BB"/>
<path d="M28.8383 344.129C26.0917 345.592 10.9263 355.026 5.82135 366.728C2.47778 374.43 1.43291 383.118 1.61203 391.178C6.62739 398.88 28.9875 391.477 35.9732 391.297C39.1078 391.238 40.9886 389.267 40.9886 386.581C40.9886 376.341 36.212 366.639 41.3169 357.235C44.8098 350.816 51.676 347.443 51.6462 338.457C51.6462 338.009 51.2581 336.517 50.7207 334.875C43.0484 335.591 36.0031 340.338 28.8383 344.129Z" fill="#A5A0A4"/>
<path d="M101.023 342.219C92.8731 343.383 84.8127 346.428 76.6627 344.249C78.6331 348.219 79.2898 352.846 77.7972 356.279C73.1997 366.728 80.0063 370.072 74.4834 377.207C72.4236 380.729 71.2294 385.267 72.8117 387.267C76.006 391.297 89.5892 394.522 95.8584 391.954C102.695 389.178 106.038 381.595 110.606 375.833C114.338 371.146 117.084 366.519 122.129 362.996C123.473 362.041 127.951 360.519 132.906 358.877C132.877 358.877 132.817 358.847 132.787 358.847C137.235 356.041 143.863 352.787 146.102 347.712C140.967 343.86 115.8 340.099 101.023 342.219Z" fill="#A5A0A4"/>
<path d="M195.956 398.403C201.121 410.971 196.494 420.703 186.165 428.107C182.731 430.555 181.328 435.51 176.97 436.316C170.551 437.51 164.581 439.212 159.983 447.123C158.491 449.661 154.132 448.377 151.594 450.915C147.803 454.706 141.743 458.527 136.996 460.856C119.681 469.274 72.8712 486.768 53.6158 473.125C52.6306 472.439 44.3911 463.005 45.8241 462.916C61.9449 462.11 76.4536 453.96 88.0367 443.809C91.7385 440.555 97.2315 434.376 101.859 432.614C119.442 425.957 110.486 423.241 112.845 416.255C115.352 408.851 123.353 407.956 130.19 405.299C135.474 403.239 148.549 401.298 149.923 395.387C151.117 390.342 153.983 384.013 151.803 379.326C150.52 376.55 144.25 376.311 141.355 375.475C138.34 374.281 135.294 373.565 132.13 372.818C129.981 372.311 130.1 369.654 131.563 368.519C136.578 364.728 142.31 363.265 148.191 363.444C143.206 361.802 138.071 360.34 132.906 358.966C127.98 360.608 123.502 362.161 122.129 363.086C117.084 366.609 114.337 371.206 110.606 375.923C106.038 381.685 103.292 390.163 96.4553 392.939C90.1861 395.477 75.9759 391.387 72.8115 387.327C71.2293 385.327 72.4532 380.789 74.4833 377.266C80.0061 370.132 73.1996 366.788 77.797 356.339C79.2896 352.906 78.6627 348.279 76.6626 344.308C76.2745 344.219 75.9162 344.099 75.5281 343.98C69.9456 342.159 65.4079 338.278 59.9447 336.188C56.7504 334.964 53.6755 334.666 50.72 334.934C51.2574 336.576 51.6455 338.039 51.6455 338.517C51.6753 347.503 44.8091 350.876 41.3162 357.295C36.2113 366.698 40.9879 376.431 40.9879 386.64C40.9879 389.327 39.1071 391.298 35.9725 391.357C28.9868 391.506 6.62669 398.94 1.61133 391.238C1.8203 400.462 3.67121 408.911 5.61167 414.165C5.25343 419.031 4.86534 423.927 4.56681 428.823C3.79062 441.511 2.59649 454.616 6.86551 466.856C13.9109 487.186 33.435 498.411 51.4067 507.845C53.586 508.979 56.1832 508.203 57.2281 506.054C58.1237 506.083 59.1088 505.875 60.1238 505.307C65.7661 502.232 73.7369 509.935 81.9466 517.099C110.486 515.338 141.564 505.964 167.447 493.754C177.656 488.948 204.226 468.379 204.226 465.871C204.226 465.871 204.465 441.66 204.435 439.331C204.256 420.822 202.703 409.508 195.956 398.403Z" fill="#999698"/>
<path d="M185.956 385.655C175.179 374.251 162.133 368.012 148.132 363.385C142.221 363.235 136.489 364.698 131.504 368.46C130.011 369.594 129.892 372.251 132.071 372.759C135.235 373.505 138.28 374.192 141.296 375.416C144.191 376.251 150.461 376.49 151.744 379.267C153.924 383.954 151.028 390.283 149.863 395.328C148.49 401.209 135.414 403.179 130.13 405.239C123.294 407.896 115.293 408.792 112.786 416.195C110.427 423.181 119.383 425.868 101.8 432.555C97.1724 434.316 91.7092 440.496 87.9776 443.75C76.3945 453.9 61.8858 462.05 45.765 462.856C44.332 462.916 52.6014 472.349 53.5567 473.066C72.8121 486.709 119.652 469.245 136.937 460.796C141.684 458.497 147.744 454.676 151.535 450.855C154.073 448.317 158.431 449.601 159.924 447.064C164.521 439.182 170.492 437.451 176.911 436.257C181.269 435.451 182.672 430.525 186.105 428.047C196.435 420.643 201.062 410.941 195.897 398.343C193.419 394.223 190.165 390.103 185.956 385.655Z" fill="#A5A0A4"/>
<path d="M47.6456 460.736C26.0019 441.809 7.22417 408.045 7.37344 389.894C7.43315 383.625 5.13444 375.654 5.82107 366.728C0.775855 377.625 0.328055 392.909 0.119082 398.283C-0.388424 411.657 0.835562 425.479 1.73116 438.346C2.65661 451.75 2.41779 466.796 11.0155 477.872C19.7626 489.127 31.9726 500.471 44.3617 507.516C55.9746 514.144 81.9769 517.01 81.9769 517.01C81.9769 517.01 81.2305 499.426 78.5736 493.515C72.4835 479.932 58.5122 470.23 47.6456 460.736Z" fill="#878286"/>
<path d="M213.062 432.346C201.688 434.615 183.925 438.436 175.238 445.153C168.342 441.451 159.475 435.869 156.311 433.391C149.445 437.451 143.086 440.884 140.937 442.854C138.518 445.093 131.891 446.675 129.055 448.347C120.786 453.213 112.068 457.303 102.933 460.348C87.6782 465.393 63.8254 473.364 49.7048 462.557C55.5859 474.946 73.677 496.56 76.0653 514.502C76.0653 514.562 76.0951 514.592 76.125 514.651C70.8111 512.502 61.9148 507.815 57.4069 502.113C52.5707 495.993 41.8832 486.321 36.2708 483.962C34.5692 483.246 28.7179 481.664 26.9864 479.604C20.0007 471.424 18.3887 473.245 15.5824 471.364C8.11911 466.319 3.76053 457.452 2.35742 448.287C4.14862 467.214 8.86545 475.991 12.0896 480.022C27.5835 499.396 39.7636 507.666 55.4366 512.203C69.8558 516.353 81.9762 518.025 81.9762 518.025C81.9762 518.025 103.053 516.831 116.964 512.771C126.428 510.024 168.163 495.486 176.492 491.187C190.135 484.141 214.346 473.633 215.809 471.245C217.152 464.08 216.346 451.362 215.779 446.317C215.331 441.839 214.376 437.122 213.062 432.346Z" fill="#6D696D"/>
<path d="M174.641 420.255C170.521 424.674 163.177 429.331 156.341 433.361C159.505 435.869 168.372 441.421 175.268 445.123C183.955 438.406 201.688 434.615 213.092 432.316C209.181 418.046 201.33 399.895 194.016 392.88C191.209 405.329 182.253 412.105 174.641 420.255Z" fill="#5B575B"/>
<path d="M139.623 431.898C139.862 433.152 141.444 438.167 142.28 444.198C144.4 459.035 148.788 482.44 149.176 483.634C149.743 485.455 157.117 482.738 157.893 478.977C158.759 474.857 154.43 444.944 153.117 434.615C150.102 433.659 144.429 432.196 139.623 431.898Z" fill="#5B575B"/>
<path d="M216.078 430.047C201.121 431.689 184.702 437.063 171.776 444.078C155.923 452.646 138.191 468.259 127.294 479.454C125.772 481.037 131.503 483.365 132.907 483.694C185.538 495.963 239.931 494.262 291.756 479.036C293.846 478.41 294.712 475.663 293.07 474.111C273.904 455.781 245.095 426.883 216.078 430.047Z" fill="#999698"/>
<path d="M253.007 488.5C250.589 485.992 246.23 487.187 243.394 487.425C235.662 488.082 227.93 488.56 220.168 488.709C203.48 489.008 185.896 489.963 169.358 487.485C155.894 485.455 133.683 481.246 127.294 479.484C126.608 487.784 125.414 495.187 125.354 503.486C125.324 506.651 126.936 516.353 126.936 516.353C126.936 516.353 136.788 521.07 140.4 522.413C142.221 523.1 144.012 523.757 145.833 524.384C148.998 520.921 150.61 519.965 156.67 520.563C167.238 521.637 174.522 525.339 178.224 513.786C180.523 506.591 179.747 497.307 178.553 490.052C178.433 489.396 179.03 488.888 179.687 489.187C186.434 492.56 188.733 489.426 193.748 493.844C198.166 497.755 199.659 501.695 201.271 507.129C202.346 510.771 203.719 516.891 205.54 520.354C205.779 520.801 206.047 521.219 206.346 521.607C215.063 525.697 225.333 518.95 233.005 527.041C233.602 526.981 234.199 526.951 234.766 526.921C235.035 526.891 235.095 527.369 234.826 527.399C234.378 527.489 233.901 527.548 233.423 527.638C233.512 527.817 233.542 527.996 233.602 528.175C235.334 527.817 237.095 527.489 238.916 527.1C240.05 526.862 252.619 515.547 252.619 514.443C252.589 506.203 254.678 505.308 254.529 497.038C254.41 494.65 254.947 490.47 253.007 488.5Z" fill="#878286"/>
<path d="M128.817 355.085C118.219 363.325 114.428 370.072 104.517 379.087C100.785 382.491 98.6056 391.477 91.7393 390.014C85.1716 388.611 73.678 384.969 69.0508 391.865C78.5143 394.462 83.1416 397.029 92.5454 398.134C96.4263 398.582 104.964 396.581 107.382 393.626C113.234 386.491 117.413 381.177 125.653 376.162C133.743 371.236 146.64 374.341 152.192 364.788C151.774 363.952 148.281 350.1 146.072 347.741C142.908 351.055 131.683 352.876 128.817 355.085Z" fill="#6D696D"/>
<path d="M288.831 474.349C277.098 476.648 268.71 478.977 256.947 481.216C256.529 481.305 256.171 481.365 255.783 481.454C253.126 479.812 250.409 478.26 247.633 476.738C246.737 476.23 245.693 476.558 245.125 477.394C242.409 481.574 241.782 486.709 243.543 491.216C243.304 491.843 243.095 492.53 242.827 493.276C242.737 493.515 242.648 493.754 242.558 493.993C241.812 494.56 241.513 495.485 241.633 496.351C237.752 505.815 245.185 520.234 245.305 518.861C252.171 520.294 257.037 526.712 263.276 525.219C271.396 523.279 285.786 517.368 293.876 513.875C296.503 502.471 297.1 484.141 296.055 475.155C293.906 474.767 290.592 474.021 288.831 474.349Z" fill="#6D696D"/>
<path d="M275.187 460.826C265.485 461.99 252.409 466.438 242.558 464.796C236.677 463.811 229.661 461.423 223.631 462.289C220.824 462.707 219.212 463.483 217.182 465.304C216.317 466.08 216.496 467.692 215.899 468.498C212.585 473.036 209.032 474.618 203.838 476.29C187.837 481.514 167.805 484.321 151.147 483.932C150.43 483.903 203.898 493.068 220.257 491.575C230.109 490.679 239.692 488.321 243.394 478.887C257.275 484.291 271.694 483.126 284.919 475.902C285.994 475.305 286.741 473.723 286.293 472.528C283.636 465.364 279.247 461.124 275.187 460.826Z" fill="#A5A0A4"/>
<path d="M281.486 469.812C282.859 471.663 282.083 475.126 275.277 476.081C272.978 476.409 262.082 479.664 254.469 475.126C249.364 472.081 246.409 472.558 240.557 470.857C240.229 475.872 239.572 483.126 235.214 485.933C231.96 488.022 228.228 488.142 224.586 487.336C214.137 487.664 203.718 487.784 193.27 487.007C175.298 485.694 154.55 483.783 136.728 481.395C158.64 487.216 181.179 492.291 204.465 493.635C212.047 494.083 233.482 490.769 233.572 498.083C233.631 502.919 230.736 514.622 236.497 522.831C242.677 522.951 238.468 506.173 240.378 498.441C240.826 497.456 241.304 496.471 241.811 495.486C241.99 495.157 242.02 494.859 241.99 494.56C242.438 494.262 242.856 493.933 243.304 493.635C244.647 493.127 244.826 491.306 243.513 490.709C243.513 490.679 243.543 490.679 243.573 490.65C244.379 490.679 245.244 490.142 245.334 489.097C245.662 485.873 245.603 482.977 245.274 480.052C245.274 480.022 245.274 480.022 245.274 479.992C246.438 480.947 247.692 481.723 249.304 482.5C249.573 482.619 249.812 482.679 250.081 482.679C251.185 483.425 250.827 484.201 251.961 484.918C252.857 485.455 291.756 478.977 296.114 475.096C284.322 463.185 270.65 452.557 256.887 443.004C255.394 447.78 272.202 457.363 281.486 469.812Z" fill="#BCB7BB"/>
<path d="M179.866 379.953C185.299 384.163 191.001 394.94 186.404 403.687C180.493 414.941 163.596 425.539 161.118 427.39C154.311 425.897 150.998 424.524 150.699 426.614C150.639 427.032 152.669 429.271 152.968 429.808C153.326 430.435 151.774 431.54 150.49 430.913C146.967 429.211 141.863 426.375 139.056 424.673C138.519 424.345 133.593 421.36 132.847 424.673C131.324 431.361 133.175 434.943 128.518 440.227C123.682 445.75 116.756 449.75 110.427 453.333C104.009 456.945 80.9618 467.871 66.9009 466.14C60.6914 465.364 52.1533 461.035 47.9739 458.05C39.4955 451.989 27.2557 436.824 20.9865 426.614C14.3889 415.867 10.8662 406.762 8.32865 395.865C10.9557 397.567 33.8831 398.164 40.6598 388.432C32.062 391.357 20.5088 393.835 13.6724 387.715C11.911 386.133 11.3438 383.894 11.4931 381.983C12.0006 375.744 17.4041 369.564 20.1506 365.534C23.8225 360.131 27.1959 353.414 31.5545 347.98C37.2864 344.935 46.4812 340.099 49.9143 334.994C23.3747 337.562 12.4186 357.653 5.07464 366.728C0.0891359 383.088 4.08948 404.075 11.7021 420.464C17.1055 432.047 25.0167 441.988 33.8234 451.124C36.8386 454.258 56.7507 478.409 61.169 482.828C63.0498 485.306 71.1102 500.173 71.7968 500.59C71.7968 495.575 69.9459 482.828 75.1404 473.723C93.2613 467.722 110.964 459.96 128.279 452.049C132.638 450.049 137.982 446.317 142.191 442.526C143.087 439.391 140.698 433.391 140.668 433.062C144.43 434.764 152.102 437.421 153.386 436.854C154.371 436.406 195.181 412.493 196.106 399.985C196.703 392.85 185.807 382.103 179.866 379.953Z" fill="#BCB7BB"/>
<path d="M93.0817 343.711C102.426 344.577 118.457 342.278 129.951 345.413C134.578 346.667 135.264 349.921 129.682 352.667C126.667 354.16 123.652 358.399 121.114 360.668C117.143 364.221 107.292 375.326 107.023 375.595C102.605 379.774 100.784 383.297 95.0819 385.267C94.0669 385.625 90.0068 386.133 88.753 386.252C83.4391 386.73 77.8864 386.372 73.9756 388.402C79.6776 388.79 89.0217 394.402 98.1568 391.566C102.485 390.223 106.844 386.282 110.606 380.282C113.024 376.431 118.248 369.087 121.472 365.654C124.278 362.638 136.966 355.324 137.981 354.966C140.459 354.041 142.817 352.996 145.235 351.712C146.221 351.175 146.907 348.488 146.071 347.742C133.772 336.815 107.919 339.83 93.0817 343.711Z" fill="#BCB7BB"/>
<path d="M243.155 478.111C243.274 480.439 242.528 486.231 242.2 490.828C239.035 495.038 237.184 503.546 236.736 506.143C235.691 512.412 235.602 521.667 237.513 527.369C237.513 527.369 244.707 525.966 249.663 523.667C253.245 524.712 257.574 526.593 261.634 526.025C260.32 515.517 255.275 492.5 252.35 481.693C251.902 480.051 243.065 476.2 243.155 478.111Z" fill="#5B575B"/>
<path d="M259.186 191.132C257.425 202.983 253.067 239.733 252.559 252.898C252.38 257.346 252.499 262.421 252.708 267.287C256.798 267.735 267.516 274.721 274.531 278.064C274.83 267.586 275.128 257.137 275.397 246.659C275.785 232.09 275.367 216.716 277.755 202.297C273.367 200.774 270.352 197.311 266.112 194.117C263.456 192.147 261.545 191.4 259.186 191.132Z" fill="#878286"/>
<path d="M234.02 187.519C233.93 187.907 231.751 199.878 230.646 204.745C228.407 214.387 225.93 228.12 223.84 239.404C223.631 242.599 223.452 245.793 223.422 249.017C223.362 252.062 224.616 258.272 223.75 262.809C225.333 264.959 226.377 268.034 228.766 268.66C231.005 269.258 233.602 269.228 236.289 268.989C236.229 263.466 234.557 256.003 235.214 250.868C235.901 245.554 237.214 240.27 238.05 234.986C239.841 223.672 244.618 203.879 246.111 190.146C242.558 189.34 239.274 187.937 235.542 185.847C234.647 186.833 234.02 187.519 234.02 187.519Z" fill="#878286"/>
<path d="M227.721 177.578C225.333 186.265 222.944 201.729 221.78 215.611C220.914 225.851 222.079 236.807 223.243 242.748C225.422 230.956 228.199 215.342 230.647 204.744C231.781 199.878 233.96 187.907 234.02 187.519C234.02 187.519 234.647 186.832 235.513 185.847C235.393 185.788 235.274 185.728 235.154 185.638C237.722 184.235 236.737 182.295 236.826 178.802C234.916 178.891 231.691 178.384 227.721 177.578Z" fill="#5B575B"/>
<path d="M259.186 191.131C257.933 190.982 256.559 190.952 254.858 190.982C251.574 191.012 248.768 190.743 246.111 190.146C244.618 203.908 239.841 223.701 238.05 234.986C237.214 240.3 235.901 245.554 235.214 250.868C234.557 256.002 236.229 263.466 236.289 268.989C241.722 268.511 247.633 267.018 252.44 267.257C252.499 267.257 252.589 267.287 252.678 267.287C252.469 262.391 252.38 257.316 252.529 252.898C253.037 239.732 257.395 202.983 259.186 191.131Z" fill="#6D696D"/>
<path d="M301.161 200.565C301.221 200.326 289.399 202.685 283.936 203.073C281.488 203.252 279.487 202.923 277.726 202.297C275.338 216.716 275.756 232.12 275.368 246.659C275.099 257.137 274.8 267.586 274.502 278.064C275.427 278.512 276.293 278.9 277.039 279.169C283.786 281.706 291.339 280.93 291.339 280.93C291.339 280.93 295.041 287.856 299.519 289.558C299.818 289.677 300.116 289.767 300.444 289.856C301.101 286.513 300.415 282.333 300.444 279.199C300.504 273.437 300.624 267.645 300.892 261.884C301.668 244.031 303.639 226.09 308.236 208.834C306.684 208.775 305.251 208.655 304.146 208.327C300.803 207.342 300.265 204.356 301.161 200.565Z" fill="#6D696D"/>
<path d="M227.721 177.578C220.407 176.085 210.406 173.518 200.674 171.219C200.733 179.638 200.286 187.997 200.017 196.415C199.868 201.073 202.972 205.551 203.54 210.178C204.167 215.372 202.913 224.746 205.808 223.851C211.57 222.089 210.555 226.388 210.854 233.314C211.182 240.3 211.391 249.823 211.242 257.555C214.615 258.66 217.989 259.764 221.332 260.839C222.347 261.167 223.094 261.914 223.75 262.809C224.616 258.272 223.362 252.092 223.422 249.017C223.482 245.793 223.631 242.599 223.84 239.404C223.631 240.539 223.422 241.673 223.213 242.748C222.019 236.837 220.884 225.851 221.75 215.611C222.914 201.729 225.303 186.265 227.721 177.578Z" fill="#6D696D"/>
<path d="M205.779 223.851C202.883 224.746 204.167 215.372 203.51 210.178C202.943 205.551 199.838 201.073 199.987 196.416C200.256 188.027 200.704 179.638 200.644 171.219C197.181 170.413 193.748 169.637 190.494 168.95C189.628 182.922 190.046 198.326 189.628 209.133C189.121 223.104 188.971 237.076 189.121 251.077C196.673 252.808 203.987 255.167 211.212 257.555C211.361 249.793 211.152 240.3 210.824 233.314C210.495 226.358 211.54 222.06 205.779 223.851Z" fill="#5B575B"/>
<path d="M318.206 151.636C312.176 147.725 304.951 148.412 298.503 145.695C293.398 143.575 290.263 139.067 285.576 136.351C278.412 132.171 270.769 135.634 263.963 138.739C257.335 141.754 250.051 145.426 242.707 144.441C238.886 147.665 233.841 149.815 229.601 151.964C216.944 158.383 203.868 163.935 190.523 168.771C190.523 168.831 190.523 168.921 190.523 169.01C208.017 172.623 230.198 179.131 236.826 178.832C236.736 182.325 237.722 184.265 235.154 185.668C241.841 189.49 247.006 191.102 254.857 191.012C259.723 190.953 262.082 191.161 266.082 194.147C272.083 198.655 275.516 203.73 283.964 203.103C289.427 202.715 301.249 200.356 301.19 200.595C300.772 202.327 300.682 203.849 301.011 205.133C303.727 199.491 311.489 192.266 313.639 192.385C323.759 188.266 331.073 177.996 328.386 166.383C327.013 160.442 323.311 154.949 318.206 151.636Z" fill="#999698"/>
<path d="M438.604 139.843C424.902 136.261 411.02 133.276 397.138 130.559C368.688 125.036 339.909 121.125 311.011 118.916C296.115 117.782 281.158 117.006 266.202 116.797C259.813 116.707 249.723 116.588 246.797 123.782C244.379 129.753 249.961 135.634 245.603 141.396C244.767 142.5 243.782 143.485 242.707 144.381C250.051 145.396 257.335 141.724 263.963 138.679C270.769 135.574 278.412 132.111 285.576 136.291C290.263 139.007 293.398 143.485 298.503 145.635C304.951 148.322 312.176 147.635 318.206 151.576C323.311 154.889 327.013 160.382 328.386 166.293C331.043 177.906 323.759 188.176 313.639 192.296C311.489 192.176 303.727 199.401 301.011 205.043C301.369 206.595 302.354 207.76 304.175 208.297C307.907 209.431 314.982 208.357 320.027 209.043C340.238 202.655 377.375 189.728 397.198 182.205C407.856 178.175 418.454 173.787 428.663 168.682C434.962 165.547 455.949 157.307 453.471 147.784C449.919 143.635 444.724 141.455 438.604 139.843Z" fill="#A5A0A4"/>
<path d="M322.714 268.929C319.55 270.093 318.207 272.631 317.251 275.706C315.221 282.303 312.385 287.199 306.862 291.021C312.325 291.23 317.639 289.767 324.356 289.588C324.237 282.602 324.058 275.616 323.789 268.631C323.431 268.72 323.073 268.81 322.714 268.929Z" fill="#6D696D"/>
<path d="M464.278 201.998C462.009 186.564 460.875 170.264 457.053 155.128C456.277 152.113 455.023 149.785 453.411 147.814C454.814 153.277 448.515 158.323 441.709 162.204C441.709 162.204 441.739 162.233 441.739 162.263C445.918 169.607 449.769 177.1 453.292 184.802C453.352 184.534 453.411 184.235 453.471 183.967C453.59 183.489 454.307 183.608 454.337 184.086C454.367 185.071 450.336 197.46 451.62 212.954C452.337 221.492 450.635 230.448 447.65 238.568C447.351 239.434 446.097 239.762 445.59 238.837C440.903 230.209 436.484 221.641 435.469 211.73C434.843 205.58 434.096 200.595 430.454 195.43C428.633 192.863 426.215 190.743 425.289 187.818C424.663 185.788 423.618 184.414 421.468 185.489C419.707 186.534 419.677 184.116 420.841 183.011C422.513 181.459 423.08 176.772 424.065 174.443C424.454 173.518 424.245 172.294 423.767 171.01C415.05 175.13 406.124 178.802 397.108 182.205C377.285 189.698 340.148 202.625 319.937 209.043C316.414 208.566 311.877 208.954 308.205 208.834C303.607 226.09 301.637 244.031 300.861 261.884C300.622 267.645 300.473 273.437 300.413 279.199C300.383 282.333 301.07 286.513 300.413 289.856C302.652 290.603 304.772 290.901 306.861 290.991C312.384 287.199 315.22 282.274 317.25 275.676C318.206 272.631 319.549 270.093 322.713 268.899C323.072 268.78 323.43 268.66 323.818 268.601C326.654 267.974 329.878 268.78 332.356 270.153C333.879 271.019 335.073 272.153 336.207 273.467C339.163 276.84 341.133 277.198 345.551 276.781C360.06 275.407 374.479 272.72 388.54 268.899C395.466 267.018 402.332 264.899 409.079 262.451C415.826 260.003 422.901 257.077 426.036 250.122C426.663 248.748 427.111 242.658 428.573 247.763C431.171 256.63 436.305 256.689 442.216 255.764C444.157 255.465 446.097 255.256 448.038 255.077C460.755 250.45 470.219 246.927 469.413 247.017C468.099 235.434 465.98 213.551 464.278 201.998Z" fill="#878286"/>
<path d="M447.979 164.054C447.74 162.532 447.62 159.905 448.814 158.322C449.382 157.576 450.247 156.651 450.576 156.322C452.427 154.352 454.367 151.098 453.89 148.441C453.621 146.889 450.218 143.963 447.859 142.739C446.844 142.202 443.142 140.739 441.112 140.56C445.919 144.232 448.128 151.098 445.232 154.889C443.859 156.68 436.336 161.726 433.739 162.95C410.154 173.876 387.824 186.444 363.225 194.624C350.776 198.774 338.477 203.55 325.55 205.461C321.012 206.147 309.937 206.655 306.802 202.744C306.205 202.028 304.862 199.848 308.235 197.55C311.668 195.191 315.101 192.146 319.072 189.758C314.057 190.504 287.487 204.058 278.173 200.983C277.038 200.386 275.964 199.699 274.889 198.923C274.322 198.266 273.725 197.639 273.128 197.012C269.605 193.221 265.157 188.176 258.022 187.519C255.126 187.25 246.081 187.758 242.916 186.325C240.826 185.369 238.856 182.205 241.125 178.563C242.647 176.115 244.14 173.398 243.961 170.95C243.782 168.293 244.021 165.756 237.96 164.771C238.528 168.95 241.244 174.264 233.065 173.965C227.482 173.786 221.87 173.13 216.257 172.592C215.332 172.443 210.525 170.98 209.6 170.771C203.659 169.279 205.629 165.129 207.898 163.815C215.421 159.487 223.332 157.188 231.064 153.277C232.945 152.322 239.334 147.993 245.245 145.635C253.245 142.411 253.574 139.933 252.977 138.828C251.394 135.903 246.081 128.887 246.737 123.842C244.767 125.096 244.946 129.275 245.513 133.037C245.931 135.634 245.722 137.664 244.618 139.992C243.065 143.246 236.886 147.695 234.527 149.098C225.512 154.382 215.511 158.084 205.779 162.024C204.734 162.442 194.046 166.95 190.464 168.98C199.48 170.711 208.734 174.533 217.78 176.204C221.272 176.831 226.885 178.055 230.915 178.533C234.02 178.921 235.214 179.25 236.677 179.279C236.737 181.041 234.497 184.086 234.02 187.519C235.483 190.385 240.528 191.34 244.2 191.579C245.155 191.639 249.663 191.46 250.768 191.37C254.051 191.101 255.634 190.743 259.097 191.489C263.634 192.445 267.814 197.968 271.784 200.774C273.993 203.072 276.71 204.446 279.725 205.043C282.979 206.118 297.309 205.729 300.264 204.296C300.414 208.446 301.488 212.655 302.026 216.089C303.13 223.283 301.727 228.985 300.652 236.06C298.831 248.091 299.011 262.809 300.473 274.482C302.085 262.779 301.548 249.793 303.25 238.061C303.936 233.284 305.698 223.044 307.399 218.477C311.221 208.327 331.163 206.983 339.82 204.595C352.329 201.132 364.628 197.012 376.749 192.385C395.705 185.161 429.649 168.264 438.605 164.412C440.008 163.815 440.844 165.786 441.023 166.293C442.754 171.338 447.173 179.041 454.278 184.116C454.278 184.116 452.636 179.339 451.919 177.22C449.919 171.279 448.904 169.935 447.979 164.054Z" fill="#BCB7BB"/>
<path d="M328.327 220.925C327.401 222.478 323.252 219.432 320.057 222.209C315.49 226.149 317.52 231.225 313.072 233.016C308.564 234.837 309.071 244.479 308.952 249.256C308.803 255.615 308.176 256.57 309.28 262.839C310.295 268.661 307.161 274.512 308.206 274.512C314.325 274.512 315.34 266.242 315.609 260.361C315.818 255.286 317.848 254.898 322.595 252.51C326.416 250.599 324.476 246.33 325.789 244.241C326.685 242.808 330.118 240.867 330.984 239.434C336.208 230.836 336.984 224.448 335.82 214.537C333.372 214.029 330.655 217.014 328.327 220.925Z" fill="#6D696D"/>
<path d="M322.087 154.859C319.669 146.859 321.729 139.127 322.236 131.245C321.49 131.395 320.773 131.544 320.087 131.693C314.116 133.007 308.712 133.275 303.757 133.066C305.309 142.769 307.309 152.411 309.16 162.054C310.145 167.159 311.28 172.264 312.116 177.399C312.175 177.817 312.205 178.205 312.265 178.593C318.206 179.041 325.281 179.697 332.326 179.578C331.311 176.234 329.252 172.98 327.878 169.905C325.699 164.98 323.609 159.964 322.087 154.859Z" fill="#6D696D"/>
<path d="M309.16 162.024C307.309 152.381 305.309 142.739 303.756 133.036C292.591 132.529 283.934 129.424 276.978 129.723C266.947 130.17 256.887 130.23 246.856 130.469C240.348 130.618 228.018 128.648 223.839 132.648C222.585 133.842 220.645 136.798 218.854 140.38C219.391 141.724 220.107 143.007 220.884 144.291C221.749 144.261 222.705 144.291 223.779 144.142C228.854 143.395 230.675 139.544 236.109 140.35C244.796 141.604 250.11 151.008 257.096 155.396C266.679 161.397 278.142 164.203 289.069 166.502C291.905 167.099 295.457 167.188 297.129 169.905C298.323 171.846 298.771 174.801 299.01 177.398C303.547 177.876 307.966 178.234 312.205 178.563H312.235C312.175 178.175 312.175 177.786 312.085 177.368C311.279 172.234 310.145 167.129 309.16 162.024Z" fill="#878286"/>
<path d="M289.069 166.501C278.113 164.203 266.679 161.396 257.096 155.396C250.08 151.007 244.796 141.604 236.109 140.35C230.646 139.574 228.855 143.395 223.78 144.141C222.705 144.29 221.779 144.29 220.884 144.29C221.929 145.992 223.153 147.634 224.615 149.216C242.408 168.382 272.649 174.651 299.07 177.368C298.801 174.741 298.383 171.815 297.189 169.875C295.457 167.158 291.905 167.069 289.069 166.501Z" fill="#6D696D"/>
<path d="M218.853 140.38C219.45 139.156 220.077 138.022 220.674 137.007C219.599 136.857 218.554 136.619 217.569 136.29C217.898 137.693 218.316 139.067 218.853 140.38Z" fill="#A5A0A4"/>
<path d="M325.877 85.7489C305.637 85.5698 283.098 87.0923 262.081 92.6749C259.573 95.093 257.573 98.0186 255.215 100.705C252.289 104.019 247.393 106.318 245.274 110.169C237.631 124.14 262.23 126.021 269.902 129.723C270.022 129.783 270.052 129.902 270.022 130.021C272.35 129.962 274.649 129.872 276.978 129.783C287.008 129.335 300.592 135.992 320.086 131.723C324.892 130.678 332.117 129.484 336.266 127.066C341.312 124.11 338.267 117.214 340.834 112.617C344.207 106.587 350.088 102.467 355.97 98.9441C355.88 98.765 355.79 98.556 355.671 98.3769C349.342 87.3013 337.49 85.8683 325.877 85.7489Z" fill="#A5A0A4"/>
<path d="M223.84 132.648C223.004 133.425 221.869 135.007 220.705 137.007C221.242 137.097 221.78 137.156 222.317 137.186C229.183 137.694 236.348 135.962 243.095 134.947C251.454 133.693 259.843 132.41 268.202 131.156C268.799 131.066 269.008 130.618 268.918 130.141C269.187 130.171 269.485 130.201 269.754 130.201C269.903 130.201 269.993 130.081 270.023 129.962C262.291 130.2 254.559 130.29 246.857 130.439C240.349 130.618 228.019 128.648 223.84 132.648Z" fill="#999698"/>
<path d="M245.274 110.169C247.393 106.318 252.289 104.019 255.215 100.706C257.573 98.0188 259.573 95.0932 262.081 92.675C252.827 95.123 243.871 98.377 235.542 102.616C230.526 105.184 220.645 111.871 218.764 117.841C216.674 124.469 216.256 130.648 217.6 136.291C218.585 136.589 219.63 136.828 220.704 137.007C221.899 135.007 223.033 133.425 223.839 132.649C228.018 128.648 240.348 130.619 246.856 130.469C254.588 130.29 262.29 130.231 270.022 129.992C270.052 129.872 270.022 129.753 269.903 129.693C262.23 126.021 237.631 124.14 245.274 110.169Z" fill="#999698"/>
<path d="M335.879 86.3756C324.594 84.8531 312.623 83.9575 301.428 86.495C304.503 86.8831 315.101 89.4803 324.983 87.9877C330.714 87.1219 332.744 88.5847 336.148 88.5549C338.058 88.5549 343.462 89.2714 345.731 91.0029C346.805 91.8089 349.88 94.9435 347.581 96.4362C342.954 99.4215 339.73 101.869 338.058 106.616C336.207 111.87 332.386 116.707 327.938 120.02C318.534 127.006 307.25 129.394 296.144 127.424C291.666 126.648 282.262 127.722 276.889 127.991C275.098 127.961 273.306 127.961 271.515 128.081C269.485 128.2 267.455 128.349 265.425 128.528C263.962 128.588 262.47 128.648 261.007 128.737C257.395 128.917 247.543 127.573 238.468 128.349C230.407 129.006 227.571 129.245 224.675 127.573C216.555 122.827 224.407 110.408 230.646 105.691C230.467 105.661 230.288 105.691 230.079 105.75C225.959 107.362 220.406 111.572 217.69 118.647C215.301 124.886 216.048 135.156 219.332 141.216C220.376 138.32 223.063 135.604 225.481 133.872C226.705 133.006 227.81 132.32 229.303 132.141C230.586 131.962 236.378 132.738 238.318 132.857C249.066 133.484 260.29 132.051 271.038 131.574C275.127 131.394 279.217 130.917 283.307 131.006C287.517 131.096 293.308 132.529 297.786 133.215C298.921 135.037 301.189 140.261 301.876 141.664C306.533 151.575 306.056 161.845 311.071 171.756C310.593 164.382 309.638 155.158 307.668 148.023C306.593 144.112 306.384 139.007 305.249 133.932C312.444 134.529 321.878 135.007 330.177 130.767C332.297 129.215 334.177 129.036 335.162 132.23C337.461 139.813 339.312 143.873 343.611 150.59C346.268 154.74 347.283 156.143 350.985 164.084C349.014 156.322 345.432 148.381 343.82 140.44C342.447 133.633 340.357 126.08 339.67 119.155C339.043 112.796 343.88 108.437 349.94 104.855C353.045 103.004 357.314 103.243 355.94 98.9737C351.492 88.3758 341.073 87.0622 335.879 86.3756Z" fill="#BCB7BB"/>
<path d="M314.295 55.2982C314.295 55.2982 303.786 48.0438 299.816 46.3123C290.8 42.3418 272.112 37.1474 254.678 38.5206C246.826 47.5363 238.467 57.3581 232.795 67.956C231.81 69.8069 231.422 74.7327 231.422 80.972C249.394 86.465 268.231 90.1967 285.128 98.4661C289.666 100.675 293.129 104.407 294.711 109.84C296.233 115.184 296.442 120.587 295.607 125.961C307.399 121.274 309.429 117.841 311.638 113.154C313.071 110.079 315.31 110.915 315.608 110.139C316.623 107.541 315.399 105.541 314.832 102.437C314.444 100.257 312.115 96.4062 315.907 98.3168C317.758 99.2422 320.444 103.631 322.116 104.526C322.803 104.885 327.49 100.526 329.968 98.3765C329.371 96.2271 328.385 93.4208 327.848 91.5699C324.982 81.5691 314.295 55.2982 314.295 55.2982Z" fill="#878286"/>
<path d="M297.637 44.4019C295.786 43.4466 292.711 42.3122 288.98 41.2076C288.92 41.3569 288.86 41.4763 288.741 41.5658C288.771 42.1032 288.233 42.6406 287.577 42.3719C286.83 42.0734 286.114 41.7748 285.368 41.4763C284.442 41.2673 283.546 40.9389 282.621 40.521C282.322 40.4016 282.203 40.1329 282.203 39.8642C280.322 39.1179 278.382 38.5208 276.382 37.9835C272.889 37.2371 269.366 36.6401 266.112 36.1923C262.858 35.9236 259.634 35.9236 256.559 36.1923C256.171 36.2221 255.902 35.9833 255.813 35.7146C255.395 35.7445 254.977 35.8042 254.589 35.8639C248.588 40.4911 241.364 52.1638 236.856 58.2837C231.005 66.2247 231.094 73.2999 231.423 80.9722C248.111 89.2715 285.129 104.168 293.637 106.945C302.593 93.7494 311.459 70.9415 314.325 55.2685C309.011 49.1784 302.145 46.7305 297.637 44.4019Z" fill="#999698"/>
<path d="M272.113 47.4168C273.546 43.5956 266.053 35.6845 258.201 36.1323C252.589 40.1923 248.857 47.2078 246.081 53.2084C242.11 61.7763 239.513 72.4339 244.887 81.0316C249.633 88.6442 258.828 91.5101 266.978 93.8984C267.516 94.0477 268.142 93.57 268.083 93.0028C267.695 87.3904 267.456 81.7481 267.605 76.1357C267.725 72.0159 269.008 70.2247 272.023 67.5976C273.128 66.6423 274.203 65.687 275.039 64.463C276.143 62.8211 276.651 59.3581 275.755 57.2087C274.561 54.3428 270.083 52.88 272.113 47.4168Z" fill="#A5A0A4"/>
<path d="M322.088 104.527C320.417 103.631 317.73 99.2725 315.879 98.3172C312.087 96.4066 314.416 100.258 314.804 102.437C315.371 105.542 316.565 107.512 315.58 110.139C315.282 110.915 313.043 110.079 311.61 113.154C309.431 117.871 307.371 121.274 295.579 125.961C296.414 120.588 296.235 115.184 294.683 109.841C293.131 104.437 289.668 100.676 285.1 98.4665C283.488 97.6903 281.876 96.9738 280.234 96.2573C280.234 100.288 279.876 104.258 279.667 104.855C278.652 107.542 277.219 112.647 278.861 118.319C280.413 123.752 280.592 129.395 280.503 133.007C302.445 131.783 322.865 123.603 330.388 101.183C330.537 100.735 330.328 99.6307 329.97 98.2874C327.462 100.526 322.775 104.885 322.088 104.527Z" fill="#6D696D"/>
<path d="M240.797 94.0777C238.319 92.1671 236.677 86.8831 235.632 82.2558C234.199 81.8379 232.796 81.4498 231.393 81.002C231.363 96.7048 233.632 120.976 234.199 127.275C241.364 129.334 249.633 131.126 258.261 132.2C256.679 125.454 253.992 117.005 251.992 112.229C249.215 105.661 246.469 98.4363 240.797 94.0777Z" fill="#6D696D"/>
<path d="M279.666 104.914C279.905 104.317 280.234 100.317 280.234 96.3165C265.994 90.1667 250.619 86.6141 235.633 82.2854C236.648 86.9425 238.32 92.2266 240.797 94.1073C246.47 98.4659 249.216 105.661 251.992 112.258C253.993 117.005 256.679 125.483 258.262 132.23C265.546 133.126 273.099 133.514 280.502 133.096C280.592 129.484 280.413 123.811 278.86 118.408C277.218 112.676 278.651 107.571 279.666 104.914Z" fill="#5B575B"/>
<path d="M306.504 71.7176C302.265 70.1653 299.22 70.9116 294.712 71.7176C297.936 71.9565 301.966 74.6731 304.593 76.1658C303.907 77.7779 301.399 88.6743 296.533 93.6897C293.129 97.2124 288.174 95.9287 282.442 93.8091C275.695 91.3014 263.545 90.0177 256.47 85.898C250.469 82.4051 249.096 76.4643 247.514 70.1951C246.23 65.1201 249.573 58.1642 250.588 53.1489C253.514 49.5068 256.738 41.8046 259.216 37.864C264.888 35.7743 276.83 39.6253 281.755 42.1032C287.636 45.0288 293.846 43.9839 300.951 46.0438C292.383 39.7746 281.427 37.7147 271.157 34.8787C268.411 34.1323 258.022 34.8488 254.231 35.5056C247.096 41.6554 240.797 51.5667 235.304 59.2688C230.527 65.956 229.213 78.0764 231.393 81.0319C237.334 88.9132 248.439 92.3762 257.037 95.9884C260.5 97.4214 274.531 99.8992 280.74 103.183C281.845 103.78 284.173 106.198 284.591 106.885C285.368 108.139 285.397 109.422 287.009 110.646C288.532 111.811 290.323 111.214 291.219 113.871C291.995 116.11 293.577 118.08 295.965 118.528C295.846 116.856 297.398 112.915 297.249 105.9C297.13 101.004 301.279 96.0481 303.16 90.5551C307.847 76.6733 313.788 63.717 313.012 61.0003C307.638 66.1351 309.31 68.6428 306.504 71.7176Z" fill="#BCB7BB"/>
<path d="M295.846 31.8635C289.696 36.5206 282.83 39.088 283.188 47.5365C283.397 52.5817 284.323 57.5075 284.979 62.5229C285.397 65.5978 288.263 73.1506 291.338 75.1209C291.577 75.2702 291.816 75.3896 292.055 75.509C293.189 75.3299 294.204 75.1807 295.13 75.0314C296.742 74.7926 299.16 73.5686 301.936 71.7177C299.727 63.3587 302.832 53.5967 304.832 48.6112C306.534 44.4019 314.027 42.8197 314.206 37.9834C314.415 32.0725 315.609 25.7436 314.206 17.6533C308.325 22.8478 300.354 28.4602 295.846 31.8635Z" fill="#6D696D"/>
<path d="M321.459 8.63745C321.041 10.966 318.086 14.22 314.205 17.6233C315.578 25.7136 314.414 32.0723 314.205 37.9534C314.026 42.7896 306.533 44.3719 304.831 48.5812C302.801 53.5667 299.726 63.3586 301.935 71.6877C310.205 66.1648 321.788 55.1191 325.46 47.7453C329.967 38.64 326.773 21.9819 323.34 12.4288C322.773 10.966 322.146 9.74202 321.459 8.63745Z" fill="#5B575B"/>
<path d="M311.4 1.65174C303.638 -0.348437 294.204 0.78599 286.024 2.45778C282.382 3.05484 278.77 3.92059 275.307 4.81619C264.172 7.68211 247.573 15.1156 237.214 20.1309C233.214 25.9523 235.572 41.9239 237.244 47.4467C237.931 49.7156 238.737 51.8053 239.602 53.7458C240.229 52.1635 240.976 50.5813 240.886 48.9394C239.423 44.551 239.841 42.4314 241.692 44.1629C245.006 47.2676 244.319 50.1037 250.081 50.641C252.798 50.9097 253.036 56.343 253.574 56.9998C257.365 61.6868 257.604 57.8357 259.873 59.4179C265.993 63.6869 269.336 60.7016 276.053 61.6569C278.322 61.9853 281.875 65.508 285.547 64.9408C285.248 63.9855 285.039 63.1197 284.979 62.4629C284.293 57.4476 283.397 52.5218 283.188 47.4766C282.83 39.0281 289.696 36.4607 295.846 31.8036C303.309 26.1315 320.385 14.429 321.46 8.5777C318.206 3.56235 313.519 2.18909 311.4 1.65174Z" fill="#878286"/>
<path d="M285.547 65C281.845 65.5672 278.292 62.0445 276.053 61.7162C269.336 60.731 265.993 63.7462 259.873 59.4772C257.604 57.8949 257.365 61.746 253.574 57.059C253.037 56.4023 252.798 50.969 250.081 50.7003C244.349 50.1629 245.006 47.3269 241.692 44.2221C239.871 42.4906 239.423 44.6102 240.886 48.9986C240.976 50.6406 240.229 52.193 239.603 53.805C251.395 80.0461 278.89 77.5086 292.055 75.5681C291.816 75.4487 291.577 75.3293 291.338 75.18C288.89 73.5679 286.622 68.5526 285.547 65Z" fill="#6D696D"/>
<path d="M319.072 5.20438C313.549 1.08463 304.264 -0.348324 297.786 0.0696223C277.725 1.38317 245.543 14.9366 237.214 20.1609C239.96 24.5792 243.334 28.4601 247.155 31.6843C246.976 30.9977 246.916 30.2812 247.036 29.505C247.155 28.7288 247.842 28.0123 248.618 27.8631C251.573 24.5792 256.947 23.0567 260.679 21.1759C267.216 17.8921 274.083 15.265 280.621 12.0408C281.516 11.593 282.352 12.3692 282.382 13.2648C282.412 15.2948 281.934 16.1904 280.322 17.4443C279.337 18.1906 277.247 20.2505 279.188 25.5942C280.979 30.4901 280.083 37.2071 280.65 40.8194C289.965 38.5804 303.19 29.505 313.011 17.2353C313.758 16.3098 317.937 14.1007 318.713 13.3544C321.758 10.369 322.953 8.0703 319.072 5.20438Z" fill="#999698"/>
<path d="M280.621 11.981C274.083 15.2051 267.246 17.8322 260.679 21.1161C256.947 22.9969 251.544 24.5194 248.618 27.8033C247.842 27.9525 247.155 28.6988 247.036 29.4452C246.916 30.2214 246.976 30.9677 247.155 31.6245C256.141 39.2072 267.635 43.0583 279.277 41.0283C279.725 40.9387 280.203 40.8491 280.651 40.7297C280.054 37.1175 280.979 30.4005 279.188 25.5045C277.247 20.1608 279.337 18.1009 280.322 17.3546C281.934 16.1008 282.412 15.2051 282.382 13.1751C282.352 12.3094 281.546 11.5332 280.621 11.981Z" fill="#A5A0A4"/>
<path d="M308.861 18.3401C302.771 25.9228 292.472 32.6995 290.114 34.4907C283.934 39.2076 278.292 40.8196 273.366 39.5957C265.753 37.7448 260.409 38.6105 257.633 36.6103C254.439 34.3116 248.856 27.4454 247.364 26.1318C245.722 24.669 241.572 21.6837 237.184 20.1313C239.512 23.7137 241.721 30.8785 255.125 38.4911C257.096 39.5957 260.529 42.0138 262.559 41.7153C263.693 41.8645 270.649 41.2674 273.246 41.8944C274.978 42.3123 277.247 42.6706 279.157 45.5365C281.755 49.4771 281.784 54.5223 282.083 56.4628C283.188 63.8963 283.606 70.2849 289.546 73.4195C286.83 69.3594 285.486 56.9404 284.8 48.1934C284.561 45.0588 285.247 40.7301 287.128 40.4316C296.413 38.9688 298.92 33.3265 302.741 28.9082C308.414 22.3405 310.473 25.8631 313.907 21.3851C315.011 19.9223 315.549 17.0266 316.683 16.2802C320.534 13.7128 322.057 12.1306 321.519 8.27954C319.25 12.8471 313.28 12.8172 308.861 18.3401Z" fill="#BCB7BB"/>
<path d="M309.1 40.6403C305.876 43.148 302.861 50.9397 300.503 53.1787C295.069 58.2836 298.144 65.6275 301.458 69.5383C300.801 60.1046 302.413 57.8358 305.578 54.1937C308.921 50.3426 308.324 45.2974 311.966 41.9837C318.295 36.222 317.25 28.9975 314.802 22.9373C314.982 29.9229 314.832 36.1921 309.1 40.6403Z" fill="#878286"/>
<path d="M284.276 517.377C283.888 517.401 283.573 517.086 283.548 516.723L278.241 385.31C278.216 384.922 278.531 384.607 278.895 384.583C279.283 384.559 279.598 384.874 279.622 385.237L284.93 516.65C284.954 517.038 284.663 517.353 284.276 517.377Z" fill="#304D30"/>
<path d="M276.229 376.633C276.399 380.875 277.344 384.68 278.726 387.467C278.847 387.734 279.235 387.71 279.332 387.443C280.495 384.559 281.125 380.681 280.956 376.439C280.786 372.198 279.841 368.393 278.459 365.605C278.338 365.339 277.95 365.363 277.853 365.63C276.69 368.514 276.06 372.392 276.229 376.633Z" fill="#304D30"/>
<path d="M286.652 383.686C283.283 386.28 280.714 389.237 279.235 391.975C279.09 392.218 279.332 392.533 279.599 392.46C282.628 391.757 286.143 390.036 289.512 387.443C292.88 384.85 295.45 381.893 296.928 379.154C297.073 378.912 296.831 378.596 296.564 378.669C293.559 379.396 290.021 381.117 286.652 383.686Z" fill="#304D30"/>
<path d="M271.115 384.317C274.678 386.619 277.49 389.382 279.162 391.976C279.307 392.218 279.114 392.533 278.823 392.484C275.745 392.024 272.109 390.594 268.546 388.291C264.983 385.989 262.172 383.226 260.5 380.633C260.354 380.39 260.548 380.075 260.839 380.124C263.893 380.584 267.553 382.014 271.115 384.317Z" fill="#304D30"/>
<path d="M286.99 391.951C283.622 394.544 281.052 397.501 279.574 400.24C279.429 400.482 279.671 400.797 279.938 400.725C282.967 400.022 286.481 398.301 289.85 395.708C293.219 393.114 295.788 390.158 297.267 387.419C297.412 387.176 297.17 386.861 296.903 386.934C293.898 387.637 290.359 389.358 286.99 391.951Z" fill="#304D30"/>
<path d="M271.454 392.581C275.017 394.884 277.829 397.647 279.501 400.24C279.646 400.482 279.452 400.797 279.162 400.749C276.084 400.288 272.448 398.858 268.885 396.556C265.322 394.253 262.511 391.49 260.839 388.897C260.693 388.655 260.887 388.34 261.178 388.388C264.232 388.849 267.891 390.279 271.454 392.581Z" fill="#304D30"/>
<path d="M287.33 400.191C283.961 402.785 281.392 405.742 279.914 408.48C279.768 408.723 280.011 409.038 280.277 408.965C283.307 408.262 286.821 406.542 290.19 403.948C293.559 401.355 296.128 398.398 297.607 395.659C297.752 395.417 297.51 395.102 297.243 395.174C294.214 395.901 290.699 397.622 287.33 400.191Z" fill="#304D30"/>
<path d="M271.77 400.822C275.333 403.124 278.144 405.887 279.816 408.48C279.962 408.723 279.768 409.038 279.477 408.989C276.399 408.529 272.763 407.099 269.201 404.796C265.638 402.494 262.826 399.731 261.154 397.138C261.009 396.895 261.202 396.58 261.493 396.629C264.547 397.089 268.207 398.519 271.77 400.822Z" fill="#304D30"/>
<path d="M287.669 408.456C284.3 411.05 281.731 414.007 280.253 416.745C280.107 416.988 280.35 417.303 280.616 417.23C283.646 416.527 287.16 414.806 290.529 412.213C293.898 409.62 296.467 406.663 297.946 403.924C298.091 403.682 297.849 403.367 297.582 403.439C294.552 404.142 291.038 405.863 287.669 408.456Z" fill="#304D30"/>
<path d="M272.109 409.087C275.671 411.389 278.483 414.152 280.155 416.746C280.301 416.988 280.107 417.303 279.816 417.254C276.738 416.794 273.102 415.364 269.539 413.061C265.977 410.759 263.165 407.996 261.493 405.403C261.347 405.16 261.541 404.845 261.832 404.894C264.886 405.354 268.546 406.784 272.109 409.087Z" fill="#304D30"/>
<path d="M287.985 416.697C284.616 419.29 282.047 422.247 280.568 424.986C280.423 425.228 280.665 425.543 280.932 425.471C283.961 424.768 287.476 423.047 290.845 420.454C294.213 417.86 296.783 414.903 298.261 412.165C298.406 411.922 298.164 411.607 297.897 411.68C294.892 412.407 291.354 414.128 287.985 416.697Z" fill="#304D30"/>
<path d="M272.448 417.327C276.011 419.629 278.823 422.392 280.495 424.986C280.64 425.228 280.447 425.543 280.156 425.495C277.078 425.034 273.442 423.604 269.879 421.302C266.316 418.999 263.505 416.236 261.833 413.643C261.687 413.401 261.881 413.085 262.172 413.134C265.226 413.594 268.886 415.024 272.448 417.327Z" fill="#304D30"/>
<path d="M288.323 424.962C284.955 427.555 282.385 430.512 280.907 433.251C280.762 433.493 281.004 433.808 281.271 433.736C284.3 433.033 287.814 431.312 291.183 428.719C294.552 426.125 297.121 423.168 298.6 420.429C298.745 420.187 298.503 419.872 298.236 419.945C295.231 420.648 291.692 422.368 288.323 424.962Z" fill="#304D30"/>
<path d="M272.787 425.592C276.35 427.895 279.162 430.658 280.834 433.251C280.979 433.493 280.785 433.808 280.495 433.76C277.417 433.299 273.781 431.869 270.218 429.567C266.655 427.264 263.844 424.502 262.172 421.908C262.026 421.666 262.22 421.351 262.511 421.399C265.565 421.86 269.224 423.29 272.787 425.592Z" fill="#304D30"/>
<path d="M288.663 433.202C285.294 435.796 282.725 438.753 281.247 441.491C281.101 441.734 281.344 442.049 281.61 441.976C284.64 441.273 288.154 439.552 291.523 436.959C294.892 434.366 297.461 431.409 298.94 428.67C299.085 428.428 298.843 428.113 298.576 428.185C295.547 428.912 292.032 430.633 288.663 433.202Z" fill="#304D30"/>
<path d="M273.103 433.832C276.666 436.135 279.477 438.898 281.149 441.491C281.295 441.734 281.101 442.049 280.81 442C277.732 441.54 274.096 440.11 270.534 437.807C266.971 435.505 264.159 432.742 262.487 430.148C262.342 429.906 262.535 429.591 262.826 429.639C265.88 430.1 269.54 431.53 273.103 433.832Z" fill="#304D30"/>
<path d="M289.003 441.467C285.634 444.06 283.065 447.017 281.587 449.756C281.441 449.998 281.684 450.313 281.95 450.241C284.98 449.538 288.494 447.817 291.863 445.224C295.232 442.63 297.801 439.673 299.28 436.935C299.425 436.692 299.183 436.377 298.916 436.45C295.886 437.153 292.348 438.874 289.003 441.467Z" fill="#304D30"/>
<path d="M273.443 442.097C277.005 444.399 279.817 447.162 281.489 449.756C281.635 449.998 281.441 450.313 281.15 450.265C278.072 449.804 274.436 448.374 270.873 446.072C267.311 443.769 264.499 441.006 262.827 438.413C262.681 438.171 262.875 437.855 263.166 437.904C266.22 438.34 269.88 439.794 273.443 442.097Z" fill="#304D30"/>
<path d="M289.318 449.708C285.949 452.301 283.38 455.258 281.901 457.997C281.756 458.239 281.998 458.554 282.265 458.481C285.294 457.778 288.809 456.058 292.178 453.464C295.546 450.871 298.116 447.914 299.594 445.175C299.739 444.933 299.497 444.618 299.23 444.69C296.225 445.418 292.687 447.138 289.318 449.708Z" fill="#304D30"/>
<path d="M273.781 450.338C277.344 452.64 280.156 455.403 281.828 457.997C281.973 458.239 281.78 458.554 281.489 458.506C278.411 458.045 274.775 456.615 271.212 454.313C267.649 452.01 264.838 449.247 263.166 446.654C263.02 446.411 263.214 446.096 263.505 446.145C266.559 446.605 270.219 448.035 273.781 450.338Z" fill="#304D30"/>
<path d="M289.656 457.972C286.288 460.566 283.718 463.523 282.24 466.261C282.095 466.504 282.337 466.819 282.604 466.746C285.633 466.043 289.147 464.322 292.516 461.729C295.885 459.136 298.454 456.179 299.933 453.44C300.078 453.198 299.836 452.883 299.569 452.955C296.564 453.658 293.025 455.379 289.656 457.972Z" fill="#304D30"/>
<path d="M274.12 458.602C277.683 460.905 280.495 463.668 282.167 466.261C282.312 466.504 282.118 466.819 281.828 466.77C278.75 466.31 275.114 464.88 271.551 462.577C267.988 460.275 265.177 457.512 263.505 454.918C263.359 454.676 263.553 454.361 263.844 454.409C266.898 454.846 270.557 456.276 274.12 458.602Z" fill="#304D30"/>
<path d="M289.996 466.213C286.627 468.806 284.058 471.763 282.58 474.502C282.434 474.744 282.677 475.059 282.943 474.986C285.973 474.284 289.487 472.563 292.856 469.969C296.225 467.376 298.794 464.419 300.273 461.68C300.418 461.438 300.176 461.123 299.909 461.196C296.88 461.898 293.365 463.619 289.996 466.213Z" fill="#304D30"/>
<path d="M274.436 466.843C277.999 469.145 280.81 471.908 282.482 474.502C282.628 474.744 282.434 475.059 282.143 475.011C279.065 474.55 275.429 473.12 271.867 470.818C268.304 468.515 265.492 465.752 263.82 463.159C263.675 462.916 263.868 462.601 264.159 462.65C267.213 463.11 270.873 464.54 274.436 466.843Z" fill="#304D30"/>
<path d="M290.336 474.478C286.967 477.071 284.398 480.028 282.92 482.767C282.774 483.009 283.017 483.324 283.283 483.252C286.313 482.549 289.827 480.828 293.196 478.235C296.565 475.641 299.134 472.684 300.613 469.946C300.758 469.703 300.516 469.388 300.249 469.461C297.219 470.164 293.681 471.885 290.336 474.478Z" fill="#304D30"/>
<path d="M274.776 475.084C278.338 477.386 281.15 480.149 282.822 482.742C282.968 482.985 282.774 483.3 282.483 483.252C279.405 482.791 275.769 481.361 272.206 479.058C268.644 476.756 265.832 473.993 264.16 471.4C264.014 471.157 264.208 470.842 264.499 470.891C267.553 471.351 271.213 472.781 274.776 475.084Z" fill="#304D30"/>
<path d="M290.651 482.718C287.282 485.311 284.713 488.268 283.234 491.007C283.089 491.25 283.331 491.565 283.598 491.492C286.627 490.789 290.142 489.068 293.511 486.475C296.879 483.882 299.449 480.925 300.927 478.186C301.072 477.943 300.83 477.628 300.563 477.701C297.558 478.404 294.02 480.125 290.651 482.718Z" fill="#304D30"/>
<path d="M275.114 483.348C278.677 485.651 281.489 488.414 283.161 491.007C283.307 491.25 283.113 491.564 282.822 491.516C279.744 491.056 276.108 489.626 272.545 487.323C268.982 485.021 266.171 482.257 264.499 479.664C264.353 479.422 264.547 479.107 264.838 479.155C267.892 479.616 271.552 481.046 275.114 483.348Z" fill="#304D30"/>
<path d="M292.153 506.495C291.353 505.937 290.844 505.307 290.99 505.113C306.259 484.875 321.601 464.686 336.555 444.206C336.676 444.036 336.943 444.012 337.112 444.133C337.306 444.279 337.355 444.521 337.234 444.691C322.522 465.341 308.198 486.257 293.825 507.149C293.704 507.367 292.953 507.076 292.153 506.495Z" fill="#304D30"/>
<path d="M314.548 461.075C316.099 463.838 317.626 466.843 318.45 469.946C318.498 470.164 318.208 470.139 317.941 469.921C314.887 467.231 312.391 463.838 310.476 460.348C308.973 457.609 307.446 454.386 307.325 451.138C307.325 450.944 307.665 451.065 307.883 451.332C310.452 454.361 312.633 457.682 314.548 461.075Z" fill="#304D30"/>
<path d="M311.131 464.25C312.9 467.231 314.645 470.406 315.712 473.751C315.784 473.969 315.445 473.944 315.178 473.702C311.785 470.769 308.974 467.037 306.817 463.256C305.12 460.251 303.351 456.76 303.084 453.222C303.06 453.004 303.448 453.173 303.69 453.464C306.453 456.833 308.901 460.493 311.131 464.25Z" fill="#304D30"/>
<path d="M307.64 467.401C309.627 470.624 311.615 474.017 312.924 477.58C313.021 477.822 312.657 477.774 312.342 477.507C308.585 474.308 305.483 470.285 303.059 466.116C301.145 462.82 299.181 459.063 298.721 455.161C298.697 454.943 299.084 455.112 299.351 455.452C302.381 459.257 305.119 463.28 307.64 467.401Z" fill="#304D30"/>
<path d="M304.126 470.527C306.307 473.993 308.61 477.58 310.161 481.434C310.258 481.676 309.894 481.628 309.555 481.337C305.434 477.822 302.017 473.508 299.303 468.952C297.17 465.365 294.988 461.269 294.358 457.051C294.31 456.809 294.746 457.027 295.037 457.391C298.26 461.608 301.29 466.043 304.126 470.527Z" fill="#304D30"/>
<path d="M300.539 473.678C302.939 477.435 305.508 481.264 307.326 485.336C307.447 485.603 307.035 485.53 306.671 485.215C302.163 481.434 298.382 476.732 295.401 471.763C293.074 467.861 290.748 463.45 289.899 458.894C289.851 458.627 290.287 458.869 290.602 459.281C294.116 463.935 297.413 468.782 300.539 473.678Z" fill="#304D30"/>
<path d="M296.83 476.805C299.496 480.852 302.332 484.924 304.441 489.311C304.586 489.578 304.15 489.505 303.738 489.165C298.818 485.069 294.673 479.98 291.377 474.599C288.832 470.406 286.384 465.656 285.415 460.76C285.366 460.469 285.803 460.76 286.142 461.196C289.874 466.262 293.365 471.545 296.83 476.805Z" fill="#304D30"/>
<path d="M293.099 479.955C296.031 484.294 299.134 488.656 301.557 493.31C301.703 493.6 301.242 493.504 300.806 493.14C295.474 488.729 290.942 483.251 287.379 477.435C284.64 472.975 281.998 467.861 280.98 462.602C280.932 462.286 281.368 462.602 281.707 463.086C285.585 468.637 289.318 474.332 293.099 479.955Z" fill="#304D30"/>
<path d="M289.342 483.13C292.517 487.784 295.91 492.413 298.649 497.333C298.819 497.648 298.334 497.527 297.849 497.115C292.081 492.389 287.209 486.523 283.38 480.27C280.471 475.496 277.66 470.067 276.594 464.444C276.521 464.129 276.981 464.444 277.321 464.977C281.32 471.036 285.246 477.144 289.342 483.13Z" fill="#304D30"/>
<path d="M285.536 486.354C288.954 491.322 292.638 496.218 295.667 501.429C295.861 501.744 295.328 501.599 294.819 501.187C288.639 496.146 283.428 489.917 279.356 483.203C276.254 478.113 273.394 472.369 272.23 466.383C272.158 466.043 272.618 466.383 272.957 466.94C277.053 473.508 281.174 480.028 285.536 486.354Z" fill="#304D30"/>
<path d="M287.815 507.658C287.597 507.973 287.112 507.997 286.724 507.731C243.946 476.198 218.861 426.949 218.546 373.822C218.546 373.361 218.861 372.998 219.249 372.998C219.637 372.998 219.927 373.361 219.927 373.822C220.242 426.513 245.11 475.326 287.524 506.592C287.912 506.882 288.033 507.343 287.815 507.658Z" fill="#304D30"/>
<path d="M217.261 363.206C216.97 367.545 217.358 372.319 218.957 376.415C219.078 376.73 219.442 376.706 219.563 376.415C221.042 372.271 221.696 367.811 221.987 363.521C222.278 359.183 222.229 354.651 221.357 350.288C221.284 349.949 220.92 349.9 220.751 350.191C218.594 354.117 217.552 358.819 217.261 363.206Z" fill="#304D30"/>
<path d="M227.053 372.417C223.951 374.84 221.188 378.015 219.467 381.82C219.346 382.111 219.564 382.475 219.855 382.402C223.563 381.311 226.883 379.13 229.792 376.779C232.724 374.404 235.609 371.52 237.644 368.199C237.79 367.933 237.596 367.618 237.329 367.666C233.5 368.224 229.889 370.187 227.053 372.417Z" fill="#304D30"/>
<path d="M211.493 372.222C214.474 374.913 217.383 378.161 219.37 381.82C219.515 382.111 219.322 382.475 219.055 382.426C215.177 381.748 211.566 379.494 208.779 377.094C205.579 374.331 202.84 370.768 201.192 366.624C201.071 366.284 201.289 365.897 201.58 365.969C205.337 367.181 208.633 369.653 211.493 372.222Z" fill="#304D30"/>
<path d="M227.198 381.796C224.241 384.389 221.672 387.71 220.193 391.588C220.072 391.878 220.339 392.218 220.605 392.121C224.241 390.812 227.416 388.461 230.179 385.94C232.942 383.42 235.681 380.39 237.498 376.949C237.644 376.682 237.426 376.367 237.135 376.44C233.402 377.215 229.912 379.396 227.198 381.796Z" fill="#304D30"/>
<path d="M211.662 382.523C214.789 385.02 217.891 388.073 220.121 391.588C220.291 391.854 220.121 392.242 219.83 392.218C215.904 391.782 212.171 389.77 209.239 387.54C205.894 384.995 202.937 381.602 201.047 377.603C200.901 377.288 201.119 376.876 201.386 376.949C205.215 377.894 208.657 380.124 211.662 382.523Z" fill="#304D30"/>
<path d="M227.925 391.079C225.137 393.842 222.762 397.283 221.502 401.234C221.405 401.549 221.671 401.864 221.938 401.743C225.477 400.24 228.53 397.695 231.148 395.029C233.766 392.363 236.311 389.188 237.934 385.65C238.056 385.383 237.813 385.068 237.547 385.165C233.838 386.183 230.494 388.534 227.925 391.079Z" fill="#304D30"/>
<path d="M212.462 392.727C215.734 395.029 219.006 397.865 221.429 401.234C221.623 401.501 221.478 401.888 221.187 401.864C217.261 401.67 213.407 399.877 210.353 397.841C206.863 395.514 203.712 392.339 201.579 388.461C201.41 388.146 201.604 387.734 201.87 387.783C205.724 388.534 209.311 390.546 212.462 392.727Z" fill="#304D30"/>
<path d="M229.186 400.264C226.568 403.173 224.411 406.76 223.369 410.759C223.296 411.074 223.587 411.365 223.829 411.244C227.271 409.523 230.155 406.808 232.627 403.997C235.075 401.185 237.426 397.865 238.832 394.278C238.929 394.011 238.686 393.72 238.42 393.817C234.809 395.029 231.609 397.598 229.186 400.264Z" fill="#304D30"/>
<path d="M213.843 402.858C217.237 404.942 220.678 407.584 223.296 410.783C223.49 411.026 223.368 411.438 223.078 411.438C219.151 411.462 215.201 409.935 212.026 408.069C208.414 405.96 205.094 402.979 202.719 399.271C202.525 398.98 202.694 398.544 202.985 398.568C206.887 399.053 210.571 400.846 213.843 402.858Z" fill="#304D30"/>
<path d="M231.004 409.329C228.556 412.383 226.617 416.067 225.817 420.114C225.745 420.43 226.06 420.72 226.326 420.575C229.671 418.66 232.385 415.8 234.664 412.843C236.942 409.886 239.099 406.469 240.287 402.785C240.384 402.494 240.117 402.228 239.85 402.349C236.288 403.803 233.258 406.518 231.004 409.329Z" fill="#304D30"/>
<path d="M215.832 412.819C219.346 414.685 222.933 417.109 225.72 420.139C225.938 420.381 225.841 420.769 225.551 420.793C221.624 421.06 217.601 419.775 214.305 418.103C210.572 416.212 207.082 413.449 204.489 409.887C204.295 409.596 204.416 409.159 204.707 409.184C208.658 409.475 212.463 411.026 215.832 412.819Z" fill="#304D30"/>
<path d="M233.33 418.273C231.052 421.472 229.331 425.253 228.798 429.325C228.749 429.64 229.088 429.906 229.331 429.761C232.554 427.652 235.099 424.623 237.208 421.545C239.316 418.467 241.255 414.928 242.225 411.195C242.298 410.905 242.007 410.662 241.764 410.783C238.299 412.432 235.414 415.34 233.33 418.273Z" fill="#304D30"/>
<path d="M218.401 422.635C222.012 424.283 225.72 426.489 228.701 429.349C228.944 429.567 228.847 429.979 228.556 430.003C224.654 430.512 220.558 429.446 217.189 427.992C213.36 426.319 209.7 423.799 206.913 420.406C206.694 420.139 206.816 419.678 207.082 419.703C211.057 419.727 214.911 421.06 218.401 422.635Z" fill="#304D30"/>
<path d="M236.191 427.022C234.106 430.342 232.604 434.22 232.313 438.316C232.289 438.631 232.628 438.874 232.87 438.704C235.948 436.426 238.324 433.251 240.262 430.051C242.177 426.852 243.922 423.217 244.674 419.436C244.722 419.145 244.431 418.902 244.189 419.048C240.796 420.914 238.105 423.968 236.191 427.022Z" fill="#304D30"/>
<path d="M221.527 432.281C225.236 433.711 229.065 435.699 232.216 438.365C232.458 438.583 232.41 438.995 232.119 439.044C228.265 439.771 224.096 438.971 220.655 437.71C216.728 436.28 212.947 433.978 209.942 430.755C209.7 430.488 209.797 430.052 210.087 430.027C214.014 429.809 217.964 430.9 221.527 432.281Z" fill="#304D30"/>
<path d="M239.535 435.602C237.645 439.043 236.384 442.994 236.336 447.114C236.336 447.429 236.699 447.672 236.918 447.478C239.875 445.006 242.056 441.71 243.777 438.389C245.497 435.093 247.024 431.336 247.558 427.531C247.606 427.24 247.291 427.022 247.049 427.167C243.801 429.228 241.28 432.427 239.535 435.602Z" fill="#304D30"/>
<path d="M225.235 441.71C229.016 442.921 232.967 444.666 236.263 447.163C236.529 447.357 236.481 447.769 236.214 447.842C232.409 448.787 228.216 448.229 224.678 447.187C220.678 446 216.752 443.915 213.577 440.861C213.335 440.619 213.383 440.158 213.674 440.134C217.6 439.674 221.599 440.546 225.235 441.71Z" fill="#304D30"/>
<path d="M243.413 443.964C241.741 447.502 240.698 451.526 240.892 455.646C240.916 455.961 241.28 456.179 241.474 455.985C244.261 453.343 246.249 449.902 247.776 446.508C249.302 443.115 250.587 439.286 250.902 435.432C250.926 435.141 250.611 434.948 250.369 435.117C247.267 437.347 244.94 440.692 243.413 443.964Z" fill="#304D30"/>
<path d="M229.476 450.895C233.33 451.889 237.378 453.392 240.795 455.694C241.062 455.864 241.062 456.276 240.771 456.373C237.014 457.561 232.797 457.246 229.234 456.397C225.162 455.428 221.139 453.586 217.794 450.75C217.527 450.532 217.552 450.071 217.843 450.023C221.72 449.32 225.768 449.95 229.476 450.895Z" fill="#304D30"/>
<path d="M247.751 452.083C246.297 455.719 245.497 459.814 245.933 463.91C245.958 464.226 246.345 464.42 246.539 464.201C249.181 461.414 250.95 457.851 252.259 454.361C253.592 450.871 254.634 446.969 254.731 443.115C254.731 442.824 254.392 442.655 254.174 442.824C251.217 445.248 249.084 448.738 247.751 452.083Z" fill="#304D30"/>
<path d="M234.251 459.839C238.154 460.59 242.298 461.875 245.861 463.983C246.128 464.153 246.152 464.565 245.885 464.662C242.201 466.068 237.984 465.995 234.348 465.365C230.228 464.638 226.084 463.038 222.594 460.372C222.327 460.154 222.327 459.693 222.594 459.645C226.423 458.724 230.495 459.087 234.251 459.839Z" fill="#304D30"/>
<path d="M252.575 459.936C251.338 463.668 250.805 467.789 251.484 471.86C251.532 472.175 251.92 472.345 252.114 472.127C254.586 469.17 256.137 465.51 257.252 461.947C258.367 458.385 259.191 454.434 259.046 450.556C259.046 450.265 258.682 450.096 258.488 450.289C255.628 452.907 253.714 456.518 252.575 459.936Z" fill="#304D30"/>
<path d="M239.559 468.467C243.51 469 247.703 470.042 251.387 471.933C251.678 472.078 251.726 472.49 251.46 472.611C247.873 474.211 243.631 474.405 239.971 473.969C235.803 473.484 231.585 472.102 227.926 469.679C227.635 469.485 227.61 469.024 227.877 468.952C231.682 467.812 235.778 467.958 239.559 468.467Z" fill="#304D30"/>
<path d="M257.881 467.522C256.864 471.327 256.573 475.496 257.518 479.519C257.591 479.834 258.003 479.98 258.172 479.737C260.451 476.635 261.784 472.902 262.68 469.267C263.577 465.631 264.159 461.632 263.771 457.779C263.747 457.488 263.383 457.342 263.189 457.56C260.499 460.323 258.802 464.056 257.881 467.522Z" fill="#304D30"/>
<path d="M245.4 476.829C249.375 477.144 253.64 477.944 257.446 479.592C257.736 479.713 257.809 480.125 257.567 480.27C254.077 482.088 249.859 482.5 246.175 482.306C241.982 482.064 237.693 480.925 233.863 478.719C233.572 478.55 233.524 478.089 233.79 477.992C237.474 476.611 241.57 476.514 245.4 476.829Z" fill="#304D30"/>
<path d="M263.652 474.817C262.876 478.671 262.852 482.864 264.015 486.863C264.112 487.178 264.524 487.299 264.669 487.057C266.754 483.833 267.845 480.004 268.523 476.32C269.202 472.636 269.541 468.588 268.911 464.759C268.862 464.468 268.499 464.347 268.305 464.565C265.809 467.449 264.354 471.279 263.652 474.817Z" fill="#304D30"/>
<path d="M269.856 481.749C269.322 485.675 269.565 489.868 270.971 493.77C271.092 494.085 271.504 494.158 271.649 493.916C273.54 490.547 274.388 486.669 274.824 482.936C275.26 479.204 275.357 475.132 274.485 471.351C274.412 471.06 274.049 470.963 273.879 471.181C271.576 474.26 270.34 478.186 269.856 481.749Z" fill="#304D30"/>
<path d="M276.495 488.366C276.204 492.316 276.713 496.509 278.386 500.339C278.507 500.629 278.943 500.702 279.064 500.46C280.737 496.994 281.343 493.043 281.561 489.287C281.755 485.53 281.585 481.434 280.494 477.701C280.422 477.41 280.034 477.338 279.864 477.58C277.756 480.755 276.762 484.754 276.495 488.366Z" fill="#304D30"/>
<path d="M361.471 495.467C362.028 495.225 361.98 494.74 361.374 494.667C354.733 493.819 345.887 493.94 336.265 495.225C335.004 495.394 333.768 495.588 332.532 495.782C333.671 495.322 334.835 494.813 335.998 494.304C344.844 490.353 352.455 485.797 357.641 481.579C358.126 481.192 357.908 480.731 357.302 480.828C350.71 481.894 342.227 484.512 333.38 488.487C332.217 488.996 331.078 489.529 329.963 490.062C330.932 489.287 331.902 488.487 332.847 487.663C340.215 481.361 346.202 474.842 350.007 469.315C350.346 468.807 350.031 468.419 349.474 468.685C343.439 471.57 336.071 476.49 328.703 482.815C327.733 483.64 326.788 484.463 325.891 485.312C326.594 484.294 327.297 483.252 327.976 482.185C333.259 474.042 337.137 466.092 339.221 459.742C339.415 459.16 338.979 458.894 338.543 459.306C333.574 463.789 327.903 470.6 322.643 478.744C321.941 479.81 321.286 480.877 320.632 481.919C321.02 480.731 321.383 479.543 321.747 478.332C324.51 469.025 325.988 460.299 326.158 453.61C326.182 453.004 325.697 452.859 325.382 453.368C321.892 459.087 318.378 467.207 315.639 476.514C315.275 477.726 314.936 478.937 314.621 480.125C314.645 478.889 314.669 477.629 314.669 476.368C314.669 466.674 313.603 457.876 311.882 451.404C311.713 450.798 311.228 450.798 311.058 451.404C309.337 457.876 308.271 466.674 308.271 476.368C308.271 478.041 308.295 479.689 308.368 481.313C307.956 479.737 307.52 478.138 307.035 476.514C304.272 467.207 300.782 459.087 297.292 453.368C296.977 452.834 296.492 452.98 296.516 453.61C296.71 460.299 298.188 469.025 300.927 478.332C301.291 479.543 301.654 480.755 302.042 481.919C301.388 480.852 300.733 479.81 300.03 478.744C294.747 470.6 289.075 463.789 284.131 459.306C283.67 458.894 283.258 459.16 283.452 459.742C285.537 466.092 289.415 474.066 294.698 482.185C295.401 483.252 296.08 484.294 296.783 485.312C295.862 484.488 294.916 483.64 293.971 482.815C286.603 476.514 279.235 471.594 273.2 468.685C272.643 468.419 272.328 468.807 272.667 469.315C276.448 474.817 282.459 481.361 289.827 487.663C290.796 488.487 291.766 489.287 292.711 490.062C291.596 489.529 290.457 488.996 289.293 488.487C280.447 484.536 271.988 481.894 265.372 480.828C264.766 480.731 264.548 481.192 265.032 481.579C270.219 485.797 277.829 490.353 286.676 494.304C287.839 494.813 288.978 495.322 290.142 495.782C288.93 495.588 287.67 495.394 286.409 495.225C276.787 493.94 267.941 493.819 261.3 494.667C260.694 494.74 260.621 495.249 261.203 495.467C267.383 498.036 275.963 500.242 285.561 501.526C286.821 501.696 288.057 501.841 289.293 501.963C288.057 502.108 286.821 502.302 285.561 502.496C275.987 503.998 267.456 506.398 261.324 509.088C260.767 509.331 260.839 509.84 261.445 509.888C268.086 510.591 276.957 510.276 286.53 508.773C296.104 507.27 304.635 504.871 310.767 502.181C311.058 502.06 311.179 501.866 311.155 501.696C311.179 501.696 311.228 501.672 311.252 501.647C311.301 501.672 311.349 501.696 311.422 501.696C311.397 501.866 311.519 502.06 311.785 502.181C317.893 504.871 326.424 507.27 336.022 508.773C345.596 510.276 354.466 510.591 361.107 509.888C361.713 509.815 361.786 509.331 361.229 509.088C355.121 506.398 346.589 503.998 336.992 502.496C335.731 502.302 334.495 502.132 333.259 501.963C334.495 501.841 335.731 501.696 336.992 501.526C346.735 500.242 355.315 498.036 361.471 495.467Z" fill="#304D30"/>
</svg>
