<svg width="123" height="122" viewBox="0 0 123 122" fill="none" xmlns="http://www.w3.org/2000/svg">
<path d="M80.7206 98.9081H40.6259V120.547H80.7206V98.9081Z" fill="black"/>
<path d="M42.5521 98.9081H40.6259V120.547H42.5521V98.9081Z" fill="black"/>
<path d="M73.2799 78.0206C67.4968 74.1409 61.3858 71.7594 60.7301 68.4899C60.7164 68.4261 60.6254 68.4261 60.6163 68.4899C59.9605 71.7548 53.8496 74.1409 48.0665 78.0206C39.2461 83.9358 41.4774 97.7014 47.5519 97.7014C53.6264 97.7014 60.6709 97.7014 60.6709 97.7014C60.6709 97.7014 67.7154 97.7014 73.7899 97.7014C79.8735 97.7014 82.1003 83.9403 73.2799 78.0206Z" fill="#050907"/>
<path d="M52.6157 78.0206C57.9253 74.4597 59.601 72.1601 60.3478 69.2776C58.9589 72.1601 53.3762 74.4597 48.0712 78.0206C39.2508 83.9358 41.4821 97.7014 47.5567 97.7014C49.0548 97.7014 50.6076 97.7014 52.1057 97.7014C46.0221 97.7014 43.7954 83.9403 52.6157 78.0206Z" fill="black"/>
<path d="M60.7211 68.4717C60.6983 68.4353 60.6483 68.4398 60.6255 68.4762C60.6528 68.4762 60.6847 68.4717 60.7211 68.4717Z" fill="black"/>
<path d="M76.8045 96.777H44.5466C43.9637 96.777 43.4901 97.2506 43.4901 97.8334V97.8516C43.4901 98.4345 43.9637 98.9081 44.5466 98.9081H76.8045C77.3873 98.9081 77.8609 98.4345 77.8609 97.8516V97.8334C77.8609 97.2506 77.3873 96.777 76.8045 96.777Z" fill="white"/>
<path d="M48.7404 97.8516V97.8334C48.7404 97.2506 49.214 96.777 49.7969 96.777H44.5466C43.9637 96.777 43.4901 97.2506 43.4901 97.8334V97.8516C43.4901 98.4345 43.9637 98.9081 44.5466 98.9081H49.7969C49.214 98.9081 48.7404 98.4345 48.7404 97.8516Z" fill="white"/>
<path d="M51.5774 101.663C51.5774 104.113 47.9117 102.984 47.9117 106.098V106.167V120.547H55.2431V106.167V106.098C55.2431 102.979 51.5774 104.113 51.5774 101.663Z" fill="white"/>
<path d="M60.6755 101.663C60.6755 104.113 57.0098 102.984 57.0098 106.098V106.167V120.547H64.3412V106.167V106.098C64.3412 102.979 60.6755 104.113 60.6755 101.663Z" fill="white"/>
<path d="M69.7737 101.663C69.7737 104.113 66.108 102.984 66.108 106.098V106.167V120.547H73.4394V106.167V106.098C73.4394 102.979 69.7737 104.113 69.7737 101.663Z" fill="white"/>
<path d="M48.9409 106.098C48.9409 103.712 51.0856 103.812 52.092 102.893C51.7823 102.61 51.5774 102.237 51.5774 101.663C51.5774 104.113 47.9117 102.984 47.9117 106.098V106.167V120.547H48.9409V106.167V106.098Z" fill="#FBFDFF"/>
<path d="M58.0389 106.098C58.0389 103.712 60.1837 103.812 61.1901 102.893C60.8804 102.61 60.6755 102.237 60.6755 101.663C60.6755 104.113 57.0098 102.984 57.0098 106.098V106.167V120.547H58.0389V106.167V106.098Z" fill="#FBFDFF"/>
<path d="M67.1372 106.098C67.1372 103.712 69.2819 103.812 70.2883 102.893C69.9786 102.61 69.7737 102.237 69.7737 101.663C69.7737 104.113 66.108 102.984 66.108 106.098V106.167V120.547H67.1372V106.167V106.098Z" fill="#FBFDFF"/>
<path d="M40.6259 77.3467H31.9649V120.547H40.6259V77.3467Z" fill="black"/>
<path d="M33.6497 77.3467H31.9649V120.547H33.6497V77.3467Z" fill="black"/>
<path d="M39.911 72.5426C38.1579 71.386 36.2954 70.4206 36.2954 69.4142C36.2954 70.4206 34.4376 71.386 32.6799 72.5426C30.1526 74.2092 30.7901 77.7929 32.5341 77.7929C34.2782 77.7929 36.2954 77.7929 36.2954 77.7929C36.2954 77.7929 38.3127 77.7929 40.0567 77.7929C41.8008 77.7929 42.4383 74.2047 39.911 72.5426Z" fill="black"/>
<path d="M34.0141 72.5426C35.7672 71.386 36.2954 70.4206 36.2954 69.4142C36.2954 70.4206 34.4376 71.386 32.6799 72.5426C30.1526 74.2092 30.7901 77.7929 32.5341 77.7929C33.117 77.7929 33.7272 77.7929 34.2827 77.7929C32.5432 77.7929 31.4868 74.2047 34.0141 72.5426Z" fill="black"/>
<path d="M41.0585 77.5698H31.5551C31.2909 77.5698 31.0815 77.7838 31.0815 78.0434C31.0815 78.3075 31.2955 78.517 31.5551 78.517H41.063C41.3271 78.517 41.5366 78.303 41.5366 78.0434C41.5366 77.7838 41.3226 77.5698 41.0585 77.5698Z" fill="white"/>
<path d="M33.1807 78.0434C33.1807 77.7793 33.3947 77.5698 33.6543 77.5698H31.5551C31.2909 77.5698 31.0815 77.7838 31.0815 78.0434C31.0815 78.3075 31.2955 78.517 31.5551 78.517H33.6543C33.3902 78.5215 33.1807 78.3075 33.1807 78.0434Z" fill="white"/>
<path d="M41.0585 97.9609H31.5551C31.2909 97.9609 31.0815 98.175 31.0815 98.4345C31.0815 98.6986 31.2955 98.9081 31.5551 98.9081H41.063C41.3271 98.9081 41.5366 98.6941 41.5366 98.4345C41.5366 98.1704 41.3226 97.9609 41.0585 97.9609Z" fill="white"/>
<path d="M33.1807 98.4345C33.1807 98.1704 33.3947 97.9609 33.6543 97.9609H31.5551C31.2909 97.9609 31.0815 98.175 31.0815 98.4345C31.0815 98.6986 31.2955 98.9081 31.5551 98.9081H33.6543C33.3902 98.9081 33.1807 98.6986 33.1807 98.4345Z" fill="white"/>
<path d="M36.2954 84.7873C36.2954 86.0851 34.3556 85.484 34.3556 87.137V87.1734V91.3855H38.2398V87.1734V87.137C38.2398 85.484 36.2954 86.0851 36.2954 84.7873Z" fill="white"/>
<path d="M89.3816 77.3467H80.7206V120.547H89.3816V77.3467Z" fill="black"/>
<path d="M82.4055 77.3467H80.7206V120.547H82.4055V77.3467Z" fill="black"/>
<path d="M88.6668 72.5426C86.9136 71.386 85.0512 70.4206 85.0512 69.4142C85.0512 70.4206 83.1933 71.386 81.4356 72.5426C78.9083 74.2092 79.5458 77.7929 81.2899 77.7929C83.0339 77.7929 85.0512 77.7929 85.0512 77.7929C85.0512 77.7929 87.0684 77.7929 88.8125 77.7929C90.5565 77.7929 91.194 74.2047 88.6668 72.5426Z" fill="black"/>
<path d="M82.7698 72.5426C84.523 71.386 85.0512 70.4206 85.0512 69.4142C85.0512 70.4206 83.1933 71.386 81.4356 72.5426C78.9083 74.2092 79.5458 77.7929 81.2899 77.7929C81.8727 77.7929 82.4829 77.7929 83.0385 77.7929C81.299 77.7929 80.2425 74.2047 82.7698 72.5426Z" fill="black"/>
<path d="M89.8142 77.5698H80.3062C80.0421 77.5698 79.8326 77.7838 79.8326 78.0433C79.8326 78.3075 80.0467 78.5169 80.3062 78.5169H89.8142C90.0783 78.5169 90.2878 78.3029 90.2878 78.0433C90.2923 77.7838 90.0783 77.5698 89.8142 77.5698Z" fill="white"/>
<path d="M81.9366 78.0433C81.9366 77.7792 82.1506 77.5698 82.4101 77.5698H80.3109C80.0468 77.5698 79.8373 77.7838 79.8373 78.0433C79.8373 78.3075 80.0514 78.5169 80.3109 78.5169H82.4101C82.146 78.5215 81.9366 78.3075 81.9366 78.0433Z" fill="white"/>
<path d="M89.8142 97.9609H80.3062C80.0421 97.9609 79.8326 98.175 79.8326 98.4345C79.8326 98.6986 80.0467 98.9081 80.3062 98.9081H89.8142C90.0783 98.9081 90.2878 98.6941 90.2878 98.4345C90.2923 98.1704 90.0783 97.9609 89.8142 97.9609Z" fill="white"/>
<path d="M81.9366 98.4345C81.9366 98.1704 82.1506 97.9609 82.4101 97.9609H80.3109C80.0468 97.9609 79.8373 98.175 79.8373 98.4345C79.8373 98.6986 80.0514 98.9081 80.3109 98.9081H82.4101C82.146 98.9081 81.9366 98.6986 81.9366 98.4345Z" fill="white"/>
<path d="M85.0512 84.7873C85.0512 86.0851 83.1113 85.484 83.1113 87.137V87.1734V91.3855H86.9956V87.1734V87.137C86.9956 85.484 85.0512 86.0851 85.0512 84.7873Z" fill="white"/>
<path d="M61.1993 68.6948C61.1993 68.4398 60.9625 68.2349 60.6756 68.2349C60.3888 68.2349 60.152 68.4398 60.152 68.6948C60.152 68.9498 60.3888 69.1547 60.6756 69.1547C60.9625 69.1547 61.1993 68.9498 61.1993 68.6948Z" fill="black"/>
<path d="M60.7986 66.8187H60.5253V68.5627H60.7986V66.8187Z" fill="black"/>
<path d="M60.9989 66.5728C60.2885 66.5728 59.7102 65.9945 59.7102 65.2841C59.7102 64.6239 60.2065 64.082 60.844 64.0091C60.7848 64.0046 60.7302 64 60.671 64C59.7785 64 59.059 64.7195 59.059 65.612C59.059 66.5045 59.7785 67.224 60.671 67.224C61.5635 67.224 62.283 66.5045 62.283 65.612C62.283 65.5528 62.2784 65.4936 62.2739 65.4389C62.201 66.0765 61.6591 66.5728 60.9989 66.5728Z" fill="black"/>
<path d="M83 60.0477V60.0666C82.1763 60.0666 81.5036 60.7267 81.4973 61.5504C81.4973 60.7204 80.8245 60.0477 79.9946 60.0477C80.8245 60.0477 81.4973 59.3749 81.4973 58.545C81.4973 59.3749 82.17 60.0477 83 60.0477Z" fill="black"/>
<path d="M78.9508 54.062V54.106C77.272 54.106 75.9014 55.4578 75.8825 57.1366C75.8825 55.439 74.5055 54.0683 72.8142 54.0683C74.5118 54.0683 75.8825 52.6913 75.8825 51C75.8825 52.6913 77.2532 54.062 78.9508 54.062Z" fill="black"/>
<path d="M45.6839 60.0665V60.1043C44.1246 60.1043 42.8608 61.3555 42.8419 62.9085C42.8419 61.3366 41.5656 60.0665 40 60.0665C41.5719 60.0665 42.8419 58.7965 42.8419 57.2246C42.8419 58.7902 44.112 60.0665 45.6839 60.0665Z" fill="black"/>
<path d="M121.179 122H0.81464C0.363561 122 0 121.554 0 121C0 120.446 0.363561 120 0.81464 120H121.185C121.636 120 122 120.446 122 121C121.993 121.554 121.63 122 121.179 122Z" fill="url(#paint0_linear_1_782)"/>
<path d="M122.19 78.26V121.26H112.71V78.26C112.71 76.32 112.54 74.36 112.19 72.44L112.01 71.41C110.46 62.73 105.35 54.77 97.62 48.98C94.62 46.74 91.15 45.04 87.47 43.24C84.67 41.87 81.77 40.45 79.1 38.76C73.53 35.25 69.08 31.29 65.86 27.01L61.11 20.7L56.36 27.01C53.14 31.3 48.69 35.25 43.12 38.76C40.45 40.45 37.55 41.86 34.74 43.24C31.06 45.04 27.59 46.74 24.59 48.98C16.86 54.77 11.75 62.74 10.2 71.41L10.02 72.44C9.68002 74.36 9.50002 76.32 9.50002 78.26V121.26H0.0200195V78.26C0.0200195 75.76 0.240023 73.24 0.680023 70.78L0.870026 69.75C2.84003 58.7 9.25002 48.63 18.91 41.4C22.62 38.62 26.67 36.64 30.58 34.72C33.28 33.4 35.82 32.16 38.06 30.75C43.87 27.08 48.07 23.02 50.53 18.67L61.1 0L67.81 11.83C67.81 11.83 68.6 13.23 69.47 14.75L71.69 18.66C74.15 23.01 78.35 27.07 84.16 30.74C86.39 32.15 88.94 33.39 91.63 34.71C95.54 36.62 99.59 38.6 103.3 41.39C112.96 48.62 119.37 58.69 121.34 69.74L121.53 70.77C121.96 73.25 122.19 75.77 122.19 78.26Z" fill="black"/>
<path d="M107.68 121.27H105.85V78.27C105.85 76.73 105.71 75.18 105.44 73.66L105.26 72.63C104.02 65.67 99.84 59.22 93.51 54.48C91.03 52.62 87.84 51.06 84.46 49.41C81.49 47.96 78.43 46.46 75.44 44.57C69.57 40.86 64.75 36.67 61.11 32.09C57.47 36.67 52.65 40.86 46.78 44.57C43.8 46.45 40.73 47.95 37.76 49.41C34.38 51.06 31.19 52.63 28.71 54.48C22.38 59.22 18.2 65.67 16.96 72.63L16.78 73.66C16.51 75.18 16.37 76.74 16.37 78.27V121.27H14.54V78.27C14.54 76.62 14.69 74.96 14.98 73.34L15.16 72.31C16.48 64.89 20.91 58.04 27.61 53.02C30.23 51.06 33.5 49.46 36.96 47.77C39.89 46.34 42.91 44.86 45.81 43.03C51.9 39.19 56.8 34.82 60.39 30.05L61.12 29.08L61.85 30.05C65.44 34.82 70.34 39.19 76.43 43.03C79.34 44.86 82.36 46.34 85.28 47.77C88.74 49.46 92.01 51.06 94.63 53.02C101.34 58.04 105.76 64.89 107.08 72.31L107.26 73.34C107.55 74.97 107.7 76.63 107.7 78.27V121.27H107.68Z" fill="black"/>
<defs>
<linearGradient id="paint0_linear_1_782" x1="-0.00100988" y1="121.006" x2="121.994" y2="121.006" gradientUnits="userSpaceOnUse">
<stop stop-color="#1C2042"/>
<stop offset="1" stop-color="#030E26"/>
</linearGradient>
</defs>
</svg>
