<svg width="313" height="69" viewBox="0 0 313 69" fill="none" xmlns="http://www.w3.org/2000/svg">
<path d="M10.5957 62.623C7.59599 55.9491 15.8318 49.8787 21.4052 52.3282C21.4052 52.3282 18.796 40.4714 32.552 39.5307C32.552 39.5307 35.4274 26.4315 43.113 30.3186C43.113 30.3186 42.4918 5.07863 67.643 0.481474C92.7943 -4.11568 98.9889 25.3842 99.8054 38.8917C100.285 35.6435 110.562 29.5021 115.443 40.0809C142.476 34.3478 151.35 50.1805 184.418 53.0559C225.047 56.6058 252.417 49.506 262.818 56.8544C262.836 65.2677 21.7957 75.4737 10.5957 62.623Z" fill="#FBD493"/>
<path d="M9.99219 60.2267C10.0454 61.0077 10.2407 61.8065 10.6134 62.6052C21.8134 75.4559 262.854 65.2499 262.854 56.8543C259.357 54.3871 253.908 53.5706 246.719 53.4109C213.847 62.2325 144.428 55.2036 126.98 54.3161C109.532 53.4286 65.4421 66.7409 42.3675 60.3865C22.7719 54.9906 12.2996 55.3278 9.99219 60.2267Z" fill="#F8B690"/>
<path d="M98.8305 30.6381C96.2568 16.1366 88.4115 -3.29919 67.6621 0.499238C62.355 1.47547 58.2016 3.37467 54.9356 5.75312C48.5103 18.3554 61.4852 30.5671 73.5018 27.5674C73.5018 27.5497 92.3341 49.1332 98.8305 30.6381Z" fill="#FFFD9C"/>
<path d="M76.0206 36.5843C76.0206 39.1225 71.9737 39.6905 66.9683 39.6905C61.9629 39.6905 57.916 39.1047 57.916 36.5843C57.916 34.0461 61.9629 32.0049 66.9683 32.0049C71.9737 32.0049 76.0206 34.0638 76.0206 36.5843Z" fill="#FFFD9C"/>
<path d="M39.4033 55.3637C57.4547 60.6886 83.1917 58.7716 81.5587 54.1745C79.9258 49.5951 68.992 50.3228 68.992 50.3228C66.3295 42.0337 56.5317 41.8917 53.2303 44.4122C49.9111 46.9326 49.0236 51.8138 49.0236 51.8138C39.1016 48.7076 39.4033 55.3637 39.4033 55.3637Z" fill="#FFFD9C"/>
<path d="M103.551 35.1291C104.083 41.6078 115.425 48.6899 115.461 40.0813C112.372 33.3719 107.101 33.3897 103.551 35.1291Z" fill="#FFFD9C"/>
<path d="M132.962 44.9623C148.493 48.9559 157.155 52.0798 169.349 50.6066H169.367C151.191 46.2047 141.269 38.3771 125.17 38.8741C121.105 39.9746 120.786 41.8383 132.962 44.9623Z" fill="#FFFD9C"/>
<path d="M89.7951 52.5944C101.545 50.4822 112.319 51.0857 113.651 49.506C114.982 47.9263 102.664 46.5951 102.664 46.5951C100.551 41.3767 91.8008 42.1577 92.1203 46.5951C92.1203 46.5951 90.2921 46.1513 88.8544 48.2103C87.4167 50.2692 89.7951 52.5944 89.7951 52.5944Z" fill="#FFFD9C"/>
<path d="M81.5404 43.347C81.3096 42.2465 80.2979 41.3945 79.0732 41.3945C77.6887 41.3945 76.5527 42.4773 76.5527 43.8085C76.5527 45.1397 77.671 46.2224 79.0732 46.2224C79.1264 46.2224 79.1619 46.2047 79.2152 46.2047C79.7299 46.542 80.4577 46.7372 81.2564 46.7372C82.8184 46.7372 84.0786 45.974 84.0786 45.0332C84.0786 44.1458 82.9604 43.418 81.5404 43.347Z" fill="#FFFD9C"/>
<path d="M31.8956 51.281C33.8562 51.281 35.4456 50.2638 35.4456 49.009C35.4456 47.7542 33.8562 46.7371 31.8956 46.7371C29.9351 46.7371 28.3457 47.7542 28.3457 49.009C28.3457 50.2638 29.9351 51.281 31.8956 51.281Z" fill="#FFFD9C"/>
<path d="M43.6817 31.5434C36.2801 29.0939 34.2921 37.5427 35.4281 40.3472C36.5819 43.1516 43.6817 43.7551 43.6817 43.7551C45.0839 41.3057 53.657 38.4479 53.657 38.4479C51.0123 27.1059 43.6817 31.5434 43.6817 31.5434Z" fill="#FFFD9C"/>
<path d="M273.93 57.0496C290.348 59.2683 312.304 57.0496 312.304 57.0496C308.541 53.4997 289.23 54.3872 289.23 54.3872C287.313 46.4353 276.042 53.4109 273.93 57.0496Z" fill="#FFFD9C"/>
<path d="M132.661 16.1543C132.323 14.5213 130.832 13.2966 129.04 13.2966C126.998 13.2966 125.348 14.8763 125.348 16.8288C125.348 18.7813 126.998 20.361 129.04 20.361C129.111 20.361 129.182 20.3432 129.253 20.3432C130.016 20.8225 131.081 21.1419 132.27 21.1419C134.56 21.1419 136.423 20.0238 136.423 18.6393C136.406 17.3436 134.755 16.2785 132.661 16.1543Z" fill="#FFFD9C"/>
<path d="M11.0758 27.0701C11.413 25.4372 12.904 24.2124 14.6967 24.2124C16.7379 24.2124 18.3886 25.7921 18.3886 27.7446C18.3886 29.697 16.7379 31.2768 14.6967 31.2768C14.6257 31.2768 14.5547 31.259 14.4837 31.259C13.7205 31.7383 12.6555 32.0578 11.4663 32.0578C9.17657 32.0578 0 30.9395 0 29.5551C0.0354993 28.2416 8.98132 27.1944 11.0758 27.0701Z" fill="#FFFD9C"/>
</svg>
