<svg width="298" height="482" viewBox="0 0 298 482" fill="none" xmlns="http://www.w3.org/2000/svg">
<path d="M-14.408 226.209C6.78781 220.895 28.3419 216.566 50.105 214.566C71.1516 212.625 92.4071 212.685 113.394 215.312C133.037 217.76 157.099 221.701 174.325 232.269C180.504 236.06 184.445 240.897 186.564 246.24C172.474 285.677 125.514 298.304 86.9738 306.902C49.3586 315.321 8.93723 323.292 -27.9615 310.903C-34.3501 307.529 -53.9339 299.618 -60.5016 297.021C-66.1439 310.097 -46.978 321.769 -41.0372 325.77C-16.5277 342.249 -15.7216 374.162 -14.6768 400.91C-13.9901 418.166 -10.8853 435.033 -9.93004 452.228C-9.27327 463.811 -9.15387 475.454 -9.09416 487.067C-25.2448 482.022 -40.6193 474.917 -47.7542 467.215C-72.4728 440.675 -82.4139 368.042 -85.5186 344.428C-89.4593 314.515 -93.8477 291.916 -90.1459 262.003C-88.0861 245.345 -33.335 230.955 -14.408 226.209Z" fill="#6D696D"/>
<path d="M-49.0382 227.253C-44.3513 225.283 -39.5747 223.641 -34.7683 222.148C-33.3951 225.462 -30.6188 228.239 -26.8572 230.06C-6.22859 240.12 21.7738 232.328 42.9398 229.045C51.1196 227.761 82.585 221.283 89.0333 229.343C95.6309 237.642 82.4358 241.434 77.7189 245.225C74.1067 248.151 71.808 250.718 69.3003 254.599C66.9718 258.181 68.2554 263.495 71.9274 265.645C86.7943 274.332 100.915 285.617 117.095 291.737C119.036 293.378 121.006 294.991 122.977 296.632C89.511 308.365 51.448 312.425 18.49 311.917C-4.82548 311.559 -29.8127 309.41 -51.7251 300.842C-66.5024 295.05 -89.1312 283.079 -90.4746 265.078C-91.9972 244.807 -64.3828 233.672 -49.0382 227.253Z" fill="#999698"/>
<path d="M111.573 207.7C131.306 208.745 168.115 208.237 177.011 230.269C177.25 230.896 177.399 231.493 177.548 232.09C178.534 233.791 179.399 235.642 180.056 237.672C185.489 254.51 174.802 269.048 161.308 278.004C149.785 285.677 136.769 291.767 123.006 296.603C121.036 294.991 119.066 293.379 117.125 291.707C100.945 285.587 86.8242 274.302 71.9572 265.615C68.2853 263.466 67.0016 258.152 69.3301 254.569C71.8378 250.688 74.1664 248.121 77.7488 245.195C82.4656 241.374 95.6608 237.583 89.0632 229.313C82.6447 221.253 51.1494 227.731 42.9696 229.015C21.8036 232.329 -6.22861 240.091 -26.8274 230.03C-30.5889 228.209 -33.3951 225.433 -34.7385 222.119C-17.6923 216.865 0.0704346 214.238 17.863 212.297C48.8209 208.954 80.3759 206.058 111.573 207.7Z" fill="#A5A0A4"/>
<path d="M104.378 314.067C105.065 310.246 103.692 305.35 99.6018 303.947C135.217 295.259 174.026 281.437 186.594 246.21C190.445 255.734 180.922 282.9 179.937 286.333C171.727 314.306 159.547 341.801 149.248 368.549C137.605 398.761 115.782 440.227 98.0196 467.871C89.7801 473.096 81.242 477.693 72.913 481.544C77.8985 467.782 81.4211 454.169 83.2123 443.451C89.4815 406.015 97.5419 351.414 104.378 314.067Z" fill="#878286"/>
<path d="M-27.9614 310.873C6.96698 322.605 45.03 316.097 80.8838 308.216C78.1074 311.052 76.1371 314.963 75.1818 319.888C71.48 338.815 74.1668 359.952 71.8382 379.267C68.1663 409.687 60.7029 456.587 51.2096 490.082C41.0595 493.306 32.2229 494.889 26.0432 494.381C16.0424 493.575 3.23531 490.888 -9.09411 487.037C-9.18367 475.424 -9.27322 463.781 -9.93 452.198C-10.8853 435.003 -13.9901 418.136 -14.6767 400.881C-15.7215 374.162 -16.5276 342.219 -41.0372 325.74C-46.978 321.739 -66.114 310.067 -60.5015 296.991C-53.9338 299.588 -34.35 307.499 -27.9614 310.873Z" fill="#878286"/>
<path d="M98.7657 303.648C99.0642 303.708 99.3329 303.828 99.6016 303.947C95.3325 304.992 91.1232 305.977 87.0035 306.902C84.9734 307.35 82.9434 307.798 80.9134 308.246C85.1526 303.887 91.3322 302.186 98.7657 303.648Z" fill="#6D696D"/>
<path d="M75.1821 319.888C76.1374 314.962 78.1078 311.052 80.8841 308.216C82.9142 307.768 84.974 307.32 86.9742 306.872C91.094 305.947 95.3331 304.962 99.5723 303.917C103.662 305.32 105.035 310.216 104.349 314.037C97.5124 351.384 89.4819 405.985 83.1828 443.421C81.3916 454.139 77.869 467.752 72.8834 481.514C65.3306 485.037 57.9568 487.903 51.1801 490.052C60.6436 456.557 68.1368 409.657 71.8087 379.237C74.1671 359.951 71.4803 338.785 75.1821 319.888Z" fill="#6D696D"/>
<path d="M-56.3224 296.871C-44.4109 311.261 -30.559 317.082 -11.7215 317.172C-3.84024 317.202 4.22016 316.843 12.2806 316.366C12.4895 316.067 12.6687 315.799 12.8776 315.5C17.8333 308.813 26.6102 310.365 30.5807 315.231C33.5958 315.052 36.5812 314.843 39.5665 314.724C45.4177 314.425 61.1803 321.769 25.7145 334.815C11.4745 360.847 6.60843 392.462 7.14578 422.017C7.56373 445.422 8.51904 468.11 5.65312 491.037C-6.52703 489.187 -14.4979 485.724 -22.1702 482.38C-22.0209 460.915 -17.4533 440.317 -18.7967 418.912C-19.8715 401.627 -22.0806 384.342 -25.7526 367.415C-28.0214 356.907 -31.0963 347.204 -34.8578 333.352C-49.1277 326.934 -59.5167 315.679 -63.1588 300.723C-64.0842 296.931 -58.9793 293.647 -56.3224 296.871Z" fill="#5B575B"/>
<path d="M82.9135 290.811C89.1827 294.125 106.289 298.782 106.289 298.782C106.289 298.782 102.139 290.304 97.661 283.079C105.154 283.975 137.276 282.064 139.814 281.019C152.084 275.914 165.846 270.123 173.847 259.525C183.967 246.151 175.966 231.851 169.966 225.94C159.308 215.432 128.947 212.327 109.125 207.58C129.067 207.58 150.173 207.252 169.01 216.387C190.087 226.597 194.654 257.017 177.608 272.033C167.697 280.78 150.412 300.334 114.379 309.081C113.513 329.71 108.647 350.637 101.811 370.161C100.079 378.52 93.8099 398.223 89.9589 405.179C88.4363 395.626 93.8398 319.799 93.8995 314.067C81.8686 318.784 62.2848 321.5 57.6277 322.396C36.5811 326.307 13.0567 322.486 -7.87048 319.47C-35.5146 315.5 -88.2356 300.334 -90.4746 265.078C-73.1298 273.825 -54.2625 301.797 -22.3493 303.529C-2.79541 304.574 69.5093 307.619 82.9135 290.811Z" fill="#BCB7BB"/>
<path d="M8.28052 370.042C12.8182 356.906 16.6991 345.741 25.7148 334.815C16.6394 356.458 18.0724 370.878 13.7437 394.163C9.11642 419.18 12.1913 465.453 5.80269 484.022C4.31002 458.766 1.77249 423.957 4.72797 398.97C6.10122 387.297 4.42944 381.177 8.28052 370.042Z" fill="#BCB7BB"/>
<path d="M268.72 344.129C271.467 345.592 286.632 355.026 291.737 366.728C295.081 374.43 296.126 383.118 295.947 391.178C290.931 398.88 268.571 391.477 261.585 391.297C258.451 391.238 256.57 389.267 256.57 386.581C256.57 376.341 261.347 366.639 256.242 357.235C252.749 350.816 245.883 347.443 245.912 338.457C245.912 338.009 246.301 336.517 246.838 334.875C254.51 335.591 261.556 340.338 268.72 344.129Z" fill="#A5A0A4"/>
<path d="M196.536 342.219C204.686 343.383 212.746 346.428 220.896 344.249C218.926 348.219 218.269 352.846 219.761 356.279C224.359 366.728 217.552 370.072 223.075 377.207C225.135 380.729 226.329 385.267 224.747 387.267C221.553 391.297 207.969 394.522 201.7 391.954C194.864 389.178 191.52 381.595 186.953 375.833C183.221 371.146 180.474 366.519 175.429 362.996C174.086 362.041 169.608 360.519 164.652 358.877C164.682 358.877 164.742 358.847 164.772 358.847C160.323 356.041 153.696 352.787 151.457 347.712C156.592 343.86 181.758 340.099 196.536 342.219Z" fill="#A5A0A4"/>
<path d="M101.602 398.403C96.4376 410.971 101.065 420.703 111.394 428.107C114.827 430.555 116.23 435.51 120.589 436.316C127.007 437.51 132.978 439.212 137.575 447.123C139.068 449.661 143.427 448.377 145.964 450.915C149.756 454.706 155.816 458.527 160.562 460.856C177.877 469.274 224.687 486.768 243.943 473.125C244.928 472.439 253.167 463.005 251.735 462.916C235.614 462.11 221.105 453.96 209.522 443.809C205.82 440.555 200.327 434.376 195.7 432.614C178.116 425.957 187.072 423.241 184.714 416.255C182.206 408.851 174.205 407.956 167.369 405.299C162.085 403.239 149.009 401.298 147.636 395.387C146.442 390.342 143.576 384.013 145.755 379.326C147.039 376.55 153.308 376.311 156.204 375.475C159.219 374.281 162.264 373.565 165.429 372.818C167.578 372.311 167.459 369.654 165.996 368.519C160.98 364.728 155.249 363.265 149.367 363.444C154.353 361.802 159.488 360.34 164.652 358.966C169.578 360.608 174.056 362.161 175.429 363.086C180.475 366.609 183.221 371.206 186.953 375.923C191.52 381.685 194.267 390.163 201.103 392.939C207.372 395.477 221.583 391.387 224.747 387.327C226.329 385.327 225.105 380.789 223.075 377.266C217.552 370.132 224.359 366.788 219.762 356.339C218.269 352.906 218.896 348.279 220.896 344.308C221.284 344.219 221.642 344.099 222.03 343.98C227.613 342.159 232.151 338.278 237.614 336.188C240.808 334.964 243.883 334.666 246.839 334.934C246.301 336.576 245.913 338.039 245.913 338.517C245.883 347.503 252.75 350.876 256.242 357.295C261.347 366.698 256.571 376.431 256.571 386.64C256.571 389.327 258.451 391.298 261.586 391.357C268.572 391.506 290.932 398.94 295.947 391.238C295.738 400.462 293.887 408.911 291.947 414.165C292.305 419.031 292.693 423.927 292.992 428.823C293.768 441.511 294.962 454.616 290.693 466.856C283.648 487.186 264.124 498.411 246.152 507.845C243.973 508.979 241.375 508.203 240.331 506.054C239.435 506.083 238.45 505.875 237.435 505.307C231.792 502.232 223.822 509.935 215.612 517.099C187.072 515.338 155.995 505.964 130.112 493.754C119.902 488.948 93.3328 468.379 93.3328 465.871C93.3328 465.871 93.094 441.66 93.1238 439.331C93.3029 420.822 94.8553 409.508 101.602 398.403Z" fill="#999698"/>
<path d="M111.602 385.655C122.38 374.251 135.425 368.012 149.427 363.385C155.338 363.235 161.069 364.698 166.055 368.46C167.548 369.594 167.667 372.251 165.488 372.759C162.323 373.505 159.278 374.192 156.263 375.416C153.367 376.251 147.098 376.49 145.814 379.267C143.635 383.954 146.531 390.283 147.695 395.328C149.068 401.209 162.144 403.179 167.428 405.239C174.265 407.896 182.265 408.792 184.773 416.195C187.131 423.181 178.175 425.868 195.759 432.555C200.386 434.316 205.849 440.496 209.581 443.75C221.164 453.9 235.673 462.05 251.794 462.856C253.227 462.916 244.957 472.349 244.002 473.066C224.747 486.709 177.907 469.245 160.622 460.796C155.875 458.497 149.815 454.676 146.023 450.855C143.486 448.317 139.127 449.601 137.635 447.064C133.037 439.182 127.066 437.451 120.648 436.257C116.289 435.451 114.886 430.525 111.453 428.047C101.124 420.643 96.4967 410.941 101.661 398.343C104.139 394.223 107.393 390.103 111.602 385.655Z" fill="#A5A0A4"/>
<path d="M249.913 460.736C271.557 441.809 290.334 408.045 290.185 389.894C290.125 383.625 292.424 375.654 291.738 366.728C296.783 377.625 297.231 392.909 297.44 398.283C297.947 411.657 296.723 425.479 295.827 438.346C294.902 451.75 295.141 466.796 286.543 477.872C277.796 489.127 265.586 500.471 253.197 507.516C241.584 514.144 215.582 517.01 215.582 517.01C215.582 517.01 216.328 499.426 218.985 493.515C225.075 479.932 239.046 470.23 249.913 460.736Z" fill="#878286"/>
<path d="M84.4965 432.346C95.8706 434.615 113.633 438.436 122.321 445.153C129.217 441.451 138.083 435.869 141.248 433.391C148.114 437.451 154.473 440.884 156.622 442.854C159.04 445.093 165.668 446.675 168.504 448.347C176.773 453.213 185.49 457.303 194.625 460.348C209.88 465.393 233.733 473.364 247.854 462.557C241.973 474.946 223.882 496.56 221.493 514.502C221.493 514.562 221.463 514.592 221.434 514.651C226.748 512.502 235.644 507.815 240.152 502.113C244.988 495.993 255.675 486.321 261.288 483.962C262.989 483.246 268.841 481.664 270.572 479.604C277.558 471.424 279.17 473.245 281.976 471.364C289.439 466.319 293.798 457.452 295.201 448.287C293.41 467.214 288.693 475.991 285.469 480.022C269.975 499.396 257.795 507.666 242.122 512.203C227.703 516.353 215.582 518.025 215.582 518.025C215.582 518.025 194.506 516.831 180.594 512.771C171.131 510.024 129.396 495.486 121.067 491.187C107.424 484.141 83.2128 473.633 81.75 471.245C80.4066 464.08 81.2126 451.362 81.7798 446.317C82.2276 441.839 83.1829 437.122 84.4965 432.346Z" fill="#6D696D"/>
<path d="M122.918 420.255C127.037 424.674 134.381 429.331 141.218 433.361C138.053 435.869 129.187 441.421 122.291 445.123C113.603 438.406 95.8706 434.615 84.4666 432.316C88.3774 418.046 96.2288 399.895 103.543 392.88C106.349 405.329 115.305 412.105 122.918 420.255Z" fill="#5B575B"/>
<path d="M157.936 431.898C157.697 433.152 156.114 438.167 155.279 444.198C153.159 459.035 148.771 482.44 148.382 483.634C147.815 485.455 140.442 482.738 139.665 478.977C138.8 474.857 143.128 444.944 144.442 434.615C147.457 433.659 153.129 432.196 157.936 431.898Z" fill="#5B575B"/>
<path d="M81.4807 430.047C96.4372 431.689 112.857 437.063 125.783 444.078C141.635 452.646 159.368 468.259 170.264 479.454C171.787 481.037 166.055 483.365 164.652 483.694C112.021 495.963 57.6279 494.262 5.80255 479.036C3.71281 478.41 2.84706 475.663 4.489 474.111C23.6548 455.781 52.4633 426.883 81.4807 430.047Z" fill="#999698"/>
<path d="M44.5519 488.5C46.97 485.992 51.3286 487.187 54.1646 487.425C61.8967 488.082 69.6287 488.56 77.3905 488.709C94.0785 489.008 111.662 489.963 128.201 487.485C141.665 485.455 163.876 481.246 170.264 479.484C170.951 487.784 172.145 495.187 172.205 503.486C172.235 506.651 170.622 516.353 170.622 516.353C170.622 516.353 160.771 521.07 157.159 522.413C155.338 523.1 153.546 523.757 151.725 524.384C148.561 520.921 146.949 519.965 140.889 520.563C130.32 521.637 123.036 525.339 119.334 513.786C117.036 506.591 117.812 497.307 119.006 490.052C119.125 489.396 118.528 488.888 117.872 489.187C111.125 492.56 108.826 489.426 103.811 493.844C99.3924 497.755 97.8998 501.695 96.2877 507.129C95.213 510.771 93.8397 516.891 92.0186 520.354C91.7798 520.801 91.5112 521.219 91.2126 521.607C82.4955 525.697 72.2259 518.95 64.5536 527.041C63.9565 526.981 63.3595 526.951 62.7923 526.921C62.5236 526.891 62.4639 527.369 62.7326 527.399C63.1804 527.489 63.658 527.548 64.1357 527.638C64.0461 527.817 64.0163 527.996 63.9566 528.175C62.2251 527.817 60.4637 527.489 58.6426 527.1C57.5082 526.862 44.94 515.547 44.94 514.443C44.9698 506.203 42.8801 505.308 43.0294 497.038C43.1488 494.65 42.6114 490.47 44.5519 488.5Z" fill="#878286"/>
<path d="M168.741 355.085C179.339 363.325 183.131 370.072 193.042 379.087C196.774 382.491 198.953 391.477 205.819 390.014C212.387 388.611 223.881 384.969 228.508 391.865C219.044 394.462 214.417 397.029 205.013 398.134C201.132 398.582 192.594 396.581 190.176 393.626C184.325 386.491 180.145 381.177 171.906 376.162C163.816 371.236 150.919 374.341 145.366 364.788C145.784 363.952 149.277 350.1 151.486 347.741C154.651 351.055 165.876 352.876 168.741 355.085Z" fill="#6D696D"/>
<path d="M8.72793 474.349C20.4603 476.648 28.8491 478.977 40.6113 481.216C41.0292 481.305 41.3875 481.365 41.7756 481.454C44.4325 479.812 47.1491 478.26 49.9255 476.738C50.8211 476.23 51.866 476.558 52.4332 477.394C55.1498 481.574 55.7768 486.709 54.0154 491.216C54.2542 491.843 54.4632 492.53 54.7319 493.276C54.8214 493.515 54.911 493.754 55.0006 493.993C55.7469 494.56 56.0454 495.485 55.926 496.351C59.8069 505.815 52.3735 520.234 52.2541 518.861C45.3878 520.294 40.5217 526.712 34.2824 525.219C26.1623 523.279 11.773 517.368 3.68271 513.875C1.05562 502.471 0.458546 484.141 1.50341 475.155C3.65285 474.767 6.96659 474.021 8.72793 474.349Z" fill="#6D696D"/>
<path d="M22.3713 460.826C32.0736 461.99 45.1494 466.438 55.001 464.796C60.8821 463.811 67.8976 461.423 73.928 462.289C76.7342 462.707 78.3463 463.483 80.3763 465.304C81.242 466.08 81.0629 467.692 81.66 468.498C84.9737 473.036 88.5262 474.618 93.7207 476.29C109.722 481.514 129.754 484.321 146.412 483.932C147.128 483.903 93.661 493.068 77.3014 491.575C67.4498 490.679 57.8669 488.321 54.165 478.887C40.2833 484.291 25.8641 483.126 12.6391 475.902C11.5644 475.305 10.8181 473.723 11.2659 472.528C13.9228 465.364 18.3112 461.124 22.3713 460.826Z" fill="#A5A0A4"/>
<path d="M16.0723 469.812C14.6991 471.663 15.4753 475.126 22.2818 476.081C24.5806 476.409 35.477 479.664 43.0896 475.126C48.1945 472.081 51.15 472.558 57.0012 470.857C57.3296 475.872 57.9864 483.126 62.345 485.933C65.599 488.022 69.3307 488.142 72.9728 487.336C83.4214 487.664 93.8402 487.784 104.289 487.007C122.261 485.694 143.009 483.783 160.831 481.395C138.919 487.216 116.379 492.291 93.0939 493.635C85.5111 494.083 64.0765 490.769 63.9869 498.083C63.9272 502.919 66.823 514.622 61.0613 522.831C54.8817 522.951 59.091 506.173 57.1804 498.441C56.7326 497.456 56.2549 496.471 55.7474 495.486C55.5683 495.157 55.5384 494.859 55.5683 494.56C55.1205 494.262 54.7025 493.933 54.2547 493.635C52.9113 493.127 52.7322 491.306 54.0458 490.709C54.0458 490.679 54.0159 490.679 53.986 490.65C53.18 490.679 52.3143 490.142 52.2247 489.097C51.8963 485.873 51.956 482.977 52.2844 480.052C52.2844 480.022 52.2844 480.022 52.2844 479.992C51.1201 480.947 49.8663 481.723 48.2542 482.5C47.9855 482.619 47.7467 482.679 47.478 482.679C46.3735 483.425 46.7317 484.201 45.5973 484.918C44.7017 485.455 5.8028 478.977 1.44421 475.096C13.2363 463.185 26.9091 452.557 40.6715 443.004C42.1641 447.78 25.3567 457.363 16.0723 469.812Z" fill="#BCB7BB"/>
<path d="M117.693 379.953C112.259 384.163 106.557 394.94 111.155 403.687C117.066 414.941 133.963 425.539 136.441 427.39C143.247 425.897 146.561 424.524 146.859 426.614C146.919 427.032 144.889 429.271 144.591 429.808C144.232 430.435 145.785 431.54 147.068 430.913C150.591 429.211 155.696 426.375 158.502 424.673C159.04 424.345 163.965 421.36 164.712 424.673C166.234 431.361 164.383 434.943 169.04 440.227C173.877 445.75 180.803 449.75 187.132 453.333C193.55 456.945 216.597 467.871 230.658 466.14C236.867 465.364 245.405 461.035 249.585 458.05C258.063 451.989 270.303 436.824 276.572 426.614C283.17 415.867 286.692 406.762 289.23 395.865C286.603 397.567 263.676 398.164 256.899 388.432C265.497 391.357 277.05 393.835 283.886 387.715C285.648 386.133 286.215 383.894 286.065 381.983C285.558 375.744 280.155 369.564 277.408 365.534C273.736 360.131 270.363 353.414 266.004 347.98C260.272 344.935 251.077 340.099 247.644 334.994C274.184 337.562 285.14 357.653 292.484 366.728C297.469 383.088 293.469 404.075 285.857 420.464C280.453 432.047 272.542 441.988 263.735 451.124C260.72 454.258 240.808 478.409 236.39 482.828C234.509 485.306 226.448 500.173 225.762 500.59C225.762 495.575 227.613 482.828 222.418 473.723C204.297 467.722 186.594 459.96 169.279 452.049C164.921 450.049 159.577 446.317 155.368 442.526C154.472 439.391 156.86 433.391 156.89 433.062C153.129 434.764 145.456 437.421 144.173 436.854C143.188 436.406 102.378 412.493 101.453 399.985C100.856 392.85 111.752 382.103 117.693 379.953Z" fill="#BCB7BB"/>
<path d="M204.477 343.711C195.133 344.577 179.102 342.278 167.608 345.413C162.981 346.667 162.294 349.921 167.877 352.667C170.892 354.16 173.907 358.399 176.445 360.668C180.415 364.221 190.267 375.326 190.535 375.595C194.954 379.774 196.775 383.297 202.477 385.267C203.492 385.625 207.552 386.133 208.806 386.252C214.12 386.73 219.672 386.372 223.583 388.402C217.881 388.79 208.537 394.402 199.402 391.566C195.073 390.223 190.715 386.282 186.953 380.282C184.535 376.431 179.311 369.087 176.086 365.654C173.28 362.638 160.593 355.324 159.578 354.966C157.1 354.041 154.741 352.996 152.323 351.712C151.338 351.175 150.651 348.488 151.487 347.742C163.787 336.815 189.64 339.83 204.477 343.711Z" fill="#BCB7BB"/>
<path d="M54.4038 478.111C54.2844 480.439 55.0307 486.231 55.3591 490.828C58.5235 495.038 60.3744 503.546 60.8222 506.143C61.8671 512.412 61.9567 521.667 60.046 527.369C60.046 527.369 52.8514 525.966 47.8958 523.667C44.3134 524.712 39.9846 526.593 35.9246 526.025C37.2381 515.517 42.2833 492.5 45.2089 481.693C45.6567 480.051 54.4933 476.2 54.4038 478.111Z" fill="#5B575B"/>
<path d="M38.3721 191.132C40.1335 202.983 44.492 239.733 44.9995 252.898C45.1786 257.346 45.0592 262.421 44.8503 267.287C40.7604 267.735 30.043 274.721 23.0275 278.064C22.729 267.586 22.4304 257.137 22.1618 246.659C21.7737 232.09 22.1916 216.716 19.8033 202.297C24.1918 200.774 27.207 197.311 31.4461 194.117C34.1031 192.147 36.0137 191.4 38.3721 191.132Z" fill="#878286"/>
<path d="M63.5387 187.519C63.6282 187.907 65.8075 199.878 66.9121 204.745C69.1511 214.387 71.6289 228.12 73.7186 239.404C73.9276 242.599 74.1067 245.793 74.1366 249.017C74.1963 252.062 72.9425 258.272 73.8082 262.809C72.226 264.959 71.1811 268.034 68.7928 268.66C66.5538 269.258 63.9566 269.228 61.2698 268.989C61.3295 263.466 63.0013 256.003 62.3445 250.868C61.6579 245.554 60.3444 240.27 59.5085 234.986C57.7173 223.672 52.9407 203.879 51.4481 190.146C55.0006 189.34 58.2845 187.937 62.0162 185.847C62.9118 186.833 63.5387 187.519 63.5387 187.519Z" fill="#878286"/>
<path d="M69.8376 177.578C72.2259 186.265 74.6142 201.729 75.7785 215.611C76.6442 225.851 75.4799 236.807 74.3156 242.748C72.1363 230.956 69.36 215.342 66.912 204.744C65.7776 199.878 63.5983 187.907 63.5386 187.519C63.5386 187.519 62.9117 186.832 62.0459 185.847C62.1654 185.788 62.2848 185.728 62.4042 185.638C59.8368 184.235 60.8219 182.295 60.7324 178.802C62.643 178.891 65.8671 178.384 69.8376 177.578Z" fill="#5B575B"/>
<path d="M38.3722 191.131C39.6261 190.982 40.9993 190.952 42.701 190.982C45.9848 191.012 48.791 190.743 51.448 190.146C52.9406 203.908 57.7172 223.701 59.5084 234.986C60.3443 240.3 61.6578 245.554 62.3444 250.868C63.0012 256.002 61.3294 263.466 61.2697 268.989C55.8364 268.511 49.9255 267.018 45.1191 267.257C45.0594 267.257 44.9698 267.287 44.8803 267.287C45.0892 262.391 45.1788 257.316 45.0295 252.898C44.522 239.732 40.1634 202.983 38.3722 191.131Z" fill="#6D696D"/>
<path d="M-3.60237 200.565C-3.66208 200.326 8.15985 202.685 13.623 203.073C16.071 203.252 18.0711 202.923 19.8325 202.297C22.2207 216.716 21.8028 232.12 22.1909 246.659C22.4596 257.137 22.7581 267.586 23.0566 278.064C22.1312 278.512 21.2654 278.9 20.5191 279.169C13.7723 281.706 6.21937 280.93 6.21937 280.93C6.21937 280.93 2.51757 287.856 -1.96043 289.558C-2.25896 289.677 -2.55749 289.767 -2.88588 289.856C-3.54265 286.513 -2.85602 282.333 -2.88588 279.199C-2.94558 273.437 -3.065 267.645 -3.33368 261.884C-4.10987 244.031 -6.08018 226.09 -10.6776 208.834C-9.12522 208.775 -7.69228 208.655 -6.5877 208.327C-3.24413 207.342 -2.70677 204.356 -3.60237 200.565Z" fill="#6D696D"/>
<path d="M69.8378 177.578C77.1518 176.085 87.1527 173.518 96.8849 171.219C96.8252 179.638 97.273 187.997 97.5417 196.415C97.6909 201.073 94.5862 205.551 94.019 210.178C93.3921 215.372 94.6459 224.746 91.7501 223.851C85.9884 222.089 87.0034 226.388 86.7049 233.314C86.3765 240.3 86.1675 249.823 86.3168 257.555C82.9434 258.66 79.57 259.764 76.2264 260.839C75.2114 261.167 74.465 261.914 73.8083 262.809C72.9425 258.272 74.1964 252.092 74.1367 249.017C74.077 245.793 73.9277 242.599 73.7187 239.404C73.9277 240.539 74.1367 241.673 74.3456 242.748C75.5398 236.837 76.6742 225.851 75.8084 215.611C74.6442 201.729 72.2559 186.265 69.8378 177.578Z" fill="#6D696D"/>
<path d="M91.78 223.851C94.6757 224.746 93.392 215.372 94.0488 210.178C94.616 205.551 97.7207 201.073 97.5715 196.416C97.3028 188.027 96.855 179.638 96.9147 171.219C100.378 170.413 103.811 169.637 107.065 168.95C107.931 182.922 107.513 198.326 107.931 209.133C108.438 223.104 108.587 237.076 108.438 251.077C100.885 252.808 93.5712 255.167 86.3467 257.555C86.1974 249.793 86.4064 240.3 86.7347 233.314C87.0631 226.358 86.0183 222.06 91.78 223.851Z" fill="#5B575B"/>
<path d="M-20.6475 151.636C-14.6171 147.725 -7.39261 148.412 -0.944298 145.695C4.16062 143.575 7.29523 139.067 11.9822 136.351C19.147 132.171 26.7894 135.634 33.596 138.739C40.2234 141.754 47.5076 145.426 54.8516 144.441C58.6728 147.665 63.718 149.815 67.9572 151.964C80.615 158.383 93.6907 163.935 107.035 168.771C107.035 168.831 107.035 168.921 107.035 169.01C89.5411 172.623 67.3601 179.131 60.7327 178.832C60.8222 182.325 59.8371 184.265 62.4044 185.668C55.7173 189.49 50.5527 191.102 42.7013 191.012C37.8352 190.953 35.4768 191.161 31.4764 194.147C25.4759 198.655 22.0428 203.73 13.5943 203.103C8.13112 202.715 -3.69078 200.356 -3.63107 200.595C-3.21313 202.327 -3.12357 203.849 -3.45196 205.133C-6.16861 199.491 -13.9305 192.266 -16.0799 192.385C-26.2002 188.266 -33.5142 177.996 -30.8274 166.383C-29.4542 160.442 -25.7524 154.949 -20.6475 151.636Z" fill="#999698"/>
<path d="M-141.046 139.843C-127.343 136.261 -113.461 133.276 -99.5797 130.559C-71.1294 125.036 -42.3508 121.125 -13.4528 118.916C1.44399 117.782 16.4005 117.006 31.357 116.797C37.7456 116.707 47.836 116.588 50.7617 123.782C53.1798 129.753 47.5972 135.634 51.9558 141.396C52.7917 142.5 53.7768 143.485 54.8516 144.381C47.5076 145.396 40.2234 141.724 33.596 138.679C26.7894 135.574 19.147 132.111 11.9822 136.291C7.29523 139.007 4.16063 143.485 -0.94429 145.635C-7.39261 148.322 -14.6171 147.635 -20.6475 151.576C-25.7524 154.889 -29.4542 160.382 -30.8274 166.293C-33.4844 177.906 -26.2002 188.176 -16.0799 192.296C-13.9305 192.176 -6.16861 199.401 -3.45196 205.043C-3.8102 206.595 -4.79535 207.76 -6.6164 208.297C-10.3481 209.431 -17.4233 208.357 -22.4685 209.043C-42.6792 202.655 -79.8167 189.728 -99.6393 182.205C-110.297 178.175 -120.895 173.787 -131.105 168.682C-137.404 165.547 -158.391 157.307 -155.913 147.784C-152.36 143.635 -147.166 141.455 -141.046 139.843Z" fill="#A5A0A4"/>
<path d="M-150.42 164.054C-150.181 162.532 -150.062 159.905 -151.256 158.322C-151.823 157.576 -152.689 156.651 -153.017 156.322C-154.868 154.352 -156.809 151.098 -156.331 148.441C-156.062 146.889 -152.659 143.963 -150.301 142.739C-149.286 142.202 -145.584 140.739 -143.554 140.56C-148.36 144.232 -150.569 151.098 -147.673 154.889C-146.3 156.68 -138.777 161.726 -136.18 162.95C-112.596 173.876 -90.2655 186.444 -65.6664 194.624C-53.2176 198.774 -40.918 203.55 -27.9915 205.461C-23.4538 206.147 -12.3782 206.655 -9.24364 202.744C-8.64658 202.028 -7.30317 199.848 -10.6766 197.55C-14.1097 195.191 -17.5429 192.146 -21.5134 189.758C-16.498 190.504 10.0715 204.058 19.3857 200.983C20.5201 200.386 21.5948 199.699 22.6696 198.923C23.2368 198.266 23.8338 197.639 24.4309 197.012C27.9536 193.221 32.4017 188.176 39.5367 187.519C42.4325 187.25 51.478 187.758 54.6425 186.325C56.7322 185.369 58.7025 182.205 56.4336 178.563C54.9111 176.115 53.4185 173.398 53.5976 170.95C53.7767 168.293 53.5379 165.756 59.5981 164.771C59.0309 168.95 56.3142 174.264 64.4941 173.965C70.0766 173.786 75.689 173.13 81.3015 172.592C82.2269 172.443 87.0333 170.98 87.9588 170.771C93.8996 169.279 91.9293 165.129 89.6604 163.815C82.1374 159.487 74.2262 157.188 66.4942 153.277C64.6135 152.322 58.2249 147.993 52.3139 145.635C44.3132 142.411 43.9848 139.933 44.5819 138.828C46.1641 135.903 51.478 128.887 50.8212 123.842C52.7915 125.096 52.6124 129.275 52.0452 133.037C51.6273 135.634 51.8362 137.664 52.9408 139.992C54.4932 143.246 60.6728 147.695 63.0312 149.098C72.0469 154.382 82.0478 158.084 91.78 162.024C92.8249 162.442 103.512 166.95 107.095 168.98C98.079 170.711 88.8245 174.533 79.7789 176.204C76.2861 176.831 70.6737 178.055 66.6435 178.533C63.5387 178.921 62.3446 179.25 60.8818 179.279C60.8221 181.041 63.0611 184.086 63.5387 187.519C62.0759 190.385 57.0307 191.34 53.3588 191.579C52.4035 191.639 47.8956 191.46 46.791 191.37C43.5072 191.101 41.9249 190.743 38.462 191.489C33.9243 192.445 29.7448 197.968 25.7743 200.774C23.5652 203.072 20.8485 204.446 17.8333 205.043C14.5793 206.118 0.249718 205.729 -2.70576 204.296C-2.85503 208.446 -3.92976 212.655 -4.46712 216.089C-5.57169 223.283 -4.16857 228.985 -3.09385 236.06C-1.2728 248.091 -1.45193 262.809 -2.91473 274.482C-4.52682 262.779 -3.98946 249.793 -5.69109 238.061C-6.37772 233.284 -8.13907 223.044 -9.84071 218.477C-13.6619 208.327 -33.6039 206.983 -42.2614 204.595C-54.7699 201.132 -67.0695 197.012 -79.19 192.385C-98.1468 185.161 -132.09 168.264 -141.046 164.412C-142.449 163.815 -143.285 165.786 -143.464 166.293C-145.196 171.338 -149.614 179.041 -156.719 184.116C-156.719 184.116 -155.077 179.339 -154.361 177.22C-152.36 171.279 -151.345 169.935 -150.42 164.054Z" fill="#BCB7BB"/>
<path d="M-11.6012 162.024C-9.75031 152.381 -7.75011 142.739 -6.19774 133.036C4.9674 132.529 13.6248 129.424 20.5807 129.723C30.6114 130.17 40.672 130.23 50.7027 130.469C57.2107 130.618 69.5401 128.648 73.7196 132.648C74.9734 133.842 76.9139 136.798 78.7051 140.38C78.1677 141.724 77.4512 143.007 76.6751 144.291C75.8093 144.261 74.854 144.291 73.7793 144.142C68.7042 143.395 66.8832 139.544 61.4499 140.35C52.7625 141.604 47.4487 151.008 40.463 155.396C30.8801 161.397 19.4164 164.203 8.49008 166.502C5.65402 167.099 2.10146 167.188 0.429672 169.905C-0.764458 171.846 -1.21225 174.801 -1.45107 177.398C-5.98878 177.876 -10.4071 178.234 -14.6462 178.563H-14.6761C-14.6164 178.175 -14.6164 177.786 -14.5268 177.368C-13.7208 172.234 -12.5864 167.129 -11.6012 162.024Z" fill="#878286"/>
<path d="M8.48985 166.501C19.446 164.203 30.8798 161.396 40.4627 155.396C47.4783 151.007 52.7623 141.604 61.4496 140.35C66.9128 139.574 68.704 143.395 73.7791 144.141C74.8538 144.29 75.7792 144.29 76.6748 144.29C75.6299 145.992 74.406 147.634 72.9431 149.216C55.1506 168.382 24.9092 174.651 -1.51101 177.368C-1.24232 174.741 -0.824387 171.815 0.369743 169.875C2.10123 167.158 5.65379 167.069 8.48985 166.501Z" fill="#6D696D"/>
<path d="M78.7056 140.38C78.1085 139.156 77.4816 138.022 76.8845 137.007C77.9592 136.857 79.0041 136.619 79.9893 136.29C79.6609 137.693 79.2429 139.067 78.7056 140.38Z" fill="#A5A0A4"/>
<path d="M-28.3189 85.7489C-8.07831 85.5698 14.4609 87.0923 35.4777 92.6749C37.9854 95.093 39.9855 98.0186 42.3439 100.705C45.2696 104.019 50.1655 106.318 52.2851 110.169C59.9275 124.14 35.3284 126.021 27.6561 129.723C27.5367 129.783 27.5068 129.902 27.5367 130.021C25.2081 129.962 22.9094 129.872 20.5809 129.783C10.5501 129.335 -3.0331 135.992 -22.5273 131.723C-27.3337 130.678 -34.5582 129.484 -38.7078 127.066C-43.753 124.11 -40.708 117.214 -43.2754 112.617C-46.6488 106.587 -52.5299 102.467 -58.411 98.9441C-58.3214 98.765 -58.2319 98.556 -58.1125 98.3769C-51.7836 87.3013 -39.9318 85.8683 -28.3189 85.7489Z" fill="#A5A0A4"/>
<path d="M73.7189 132.648C74.5548 133.425 75.6892 135.007 76.8535 137.007C76.3162 137.097 75.7788 137.156 75.2414 137.186C68.3752 137.694 61.2104 135.962 54.4635 134.947C46.1046 133.693 37.7158 132.41 29.3569 131.156C28.7598 131.066 28.5508 130.618 28.6404 130.141C28.3717 130.171 28.0732 130.201 27.8045 130.201C27.6552 130.201 27.5657 130.081 27.5358 129.962C35.2678 130.2 42.9998 130.29 50.702 130.439C57.21 130.618 69.5394 128.648 73.7189 132.648Z" fill="#999698"/>
<path d="M52.2849 110.169C50.1653 106.318 45.2693 104.019 42.3437 100.706C39.9853 98.0188 37.9851 95.0932 35.4775 92.675C44.732 95.123 53.688 98.377 62.0171 102.616C67.0324 105.184 76.9139 111.871 78.7946 117.841C80.8843 124.469 81.3023 130.648 79.9589 136.291C78.9738 136.589 77.9289 136.828 76.8542 137.007C75.66 135.007 74.5256 133.425 73.7196 132.649C69.5401 128.648 57.2107 130.619 50.7027 130.469C42.9706 130.29 35.2685 130.231 27.5365 129.992C27.5066 129.872 27.5365 129.753 27.6559 129.693C35.3282 126.021 59.9273 124.14 52.2849 110.169Z" fill="#999698"/>
<path d="M-38.3204 86.3756C-27.0358 84.8531 -15.0647 83.9575 -3.86966 86.495C-6.94455 86.8831 -17.5425 89.4803 -27.4239 87.9877C-33.1558 87.1219 -35.1858 88.5847 -38.5891 88.5549C-40.4997 88.5549 -45.9031 89.2714 -48.172 91.0029C-49.2467 91.8089 -52.3216 94.9435 -50.0229 96.4362C-45.3956 99.4215 -42.1715 101.869 -40.4997 106.616C-38.6488 111.87 -34.8276 116.707 -30.3794 120.02C-20.9756 127.006 -9.69106 129.394 1.41437 127.424C5.89236 126.648 15.2962 127.722 20.6698 127.991C22.461 127.961 24.2522 127.961 26.0434 128.081C28.0734 128.2 30.1034 128.349 32.1334 128.528C33.5962 128.588 35.0889 128.648 36.5517 128.737C40.164 128.917 50.0156 127.573 59.091 128.349C67.1514 129.006 69.9874 129.245 72.8832 127.573C81.0033 122.827 73.1519 110.408 66.9126 105.691C67.0917 105.661 67.2708 105.691 67.4798 105.75C71.5995 107.362 77.1522 111.572 79.8689 118.647C82.2571 124.886 81.5108 135.156 78.227 141.216C77.1821 138.32 74.4953 135.604 72.0772 133.872C70.8532 133.006 69.7486 132.32 68.2559 132.141C66.9722 131.962 61.1807 132.738 59.2402 132.857C48.4931 133.484 37.2682 132.051 26.521 131.574C22.4311 131.394 18.3412 130.917 14.2513 131.006C10.042 131.096 4.25045 132.529 -0.227547 133.215C-1.36198 135.037 -3.63084 140.261 -4.31746 141.664C-8.97458 151.575 -8.49693 161.845 -13.5123 171.756C-13.0346 164.382 -12.0793 155.158 -10.109 148.023C-9.03429 144.112 -8.8253 139.007 -7.69088 133.932C-14.8855 134.529 -24.3192 135.007 -32.6184 130.767C-34.738 129.215 -36.6187 129.036 -37.6039 132.23C-39.9026 139.813 -41.7535 143.873 -46.0524 150.59C-48.7094 154.74 -49.7243 156.143 -53.4261 164.084C-51.4558 156.322 -47.8735 148.381 -46.2614 140.44C-44.8881 133.633 -42.7984 126.08 -42.1118 119.155C-41.4848 112.796 -46.3211 108.437 -52.3813 104.855C-55.4861 103.004 -59.7551 103.243 -58.3818 98.9737C-53.9337 88.3758 -43.5149 87.0622 -38.3204 86.3756Z" fill="#BCB7BB"/>
<path d="M-16.7361 55.2982C-16.7361 55.2982 -6.22771 48.0438 -2.25722 46.3123C6.75849 42.3418 25.4466 37.1474 42.881 38.5206C50.7324 47.5363 59.0913 57.3581 64.7635 67.956C65.7486 69.8069 66.1367 74.7327 66.1367 80.972C48.165 86.465 29.3276 90.1967 12.4306 98.4661C7.89291 100.675 4.42992 104.407 2.8477 109.84C1.32518 115.184 1.1162 120.587 1.95209 125.961C-9.83997 121.274 -11.87 117.841 -14.0791 113.154C-15.5121 110.079 -17.7511 110.915 -18.0496 110.139C-19.0646 107.541 -17.8406 105.541 -17.2734 102.437C-16.8853 100.257 -14.5568 96.4062 -18.3482 98.3168C-20.1991 99.2422 -22.8859 103.631 -24.5576 104.526C-25.2443 104.885 -29.9313 100.526 -32.4091 98.3765C-31.812 96.2271 -30.8268 93.4208 -30.2895 91.5699C-27.4236 81.5691 -16.7361 55.2982 -16.7361 55.2982Z" fill="#878286"/>
<path d="M-0.0786362 44.4019C1.77227 43.4466 4.84717 42.3122 8.57883 41.2076C8.63854 41.3569 8.69825 41.4763 8.81766 41.5658C8.78781 42.1032 9.32517 42.6406 9.98194 42.3719C10.7283 42.0734 11.4447 41.7748 12.1911 41.4763C13.1165 41.2673 14.0121 40.9389 14.9376 40.521C15.2361 40.4016 15.3555 40.1329 15.3555 39.8642C17.2363 39.1179 19.1768 38.5208 21.1769 37.9835C24.6698 37.2371 28.1925 36.6401 31.4465 36.1923C34.7005 35.9236 37.9246 35.9236 40.9995 36.1923C41.3876 36.2221 41.6563 35.9833 41.7459 35.7146C42.1638 35.7445 42.5817 35.8042 42.9698 35.8639C48.9704 40.4911 56.1949 52.1638 60.7027 58.2837C66.554 66.2247 66.4644 73.2999 66.136 80.9722C49.448 89.2715 12.4299 104.168 3.92172 106.945C-5.03427 93.7494 -13.9007 70.9415 -16.7666 55.2685C-11.4527 49.1784 -4.58649 46.7305 -0.0786362 44.4019Z" fill="#999698"/>
<path d="M25.4456 47.4168C24.0127 43.5956 31.5058 35.6845 39.3573 36.1323C44.9697 40.1923 48.7014 47.2078 51.4777 53.2084C55.4482 61.7763 58.0454 72.4339 52.6718 81.0316C47.9252 88.6442 38.7304 91.5101 30.5804 93.8984C30.043 94.0477 29.4161 93.57 29.4758 93.0028C29.8639 87.3904 30.1028 81.7481 29.9535 76.1357C29.8341 72.0159 28.5504 70.2247 25.5352 67.5976C24.4306 66.6423 23.3559 65.687 22.52 64.463C21.4154 62.8211 20.9079 59.3581 21.8035 57.2087C22.9977 54.3428 27.4757 52.88 25.4456 47.4168Z" fill="#A5A0A4"/>
<path d="M-24.5297 104.527C-22.858 103.631 -20.1712 99.2725 -18.3203 98.3172C-14.5289 96.4066 -16.8575 100.258 -17.2455 102.437C-17.8128 105.542 -19.0069 107.512 -18.0217 110.139C-17.7232 110.915 -15.4842 110.079 -14.0512 113.154C-11.872 117.871 -9.81207 121.274 1.97999 125.961C1.1441 120.588 1.32323 115.184 2.8756 109.841C4.42797 104.437 7.89096 100.676 12.4585 98.4665C14.0706 97.6903 15.6827 96.9738 17.3246 96.2573C17.3246 100.288 17.6828 104.258 17.8918 104.855C18.9068 107.542 20.3398 112.647 18.6978 118.319C17.1455 123.752 16.9664 129.395 17.0559 133.007C-4.88626 131.783 -25.306 123.603 -32.829 101.183C-32.9783 100.735 -32.7693 99.6307 -32.411 98.2874C-29.9034 100.526 -25.2164 104.885 -24.5297 104.527Z" fill="#6D696D"/>
<path d="M56.7619 94.0777C59.2397 92.1671 60.8817 86.8831 61.9266 82.2558C63.3595 81.8379 64.7626 81.4498 66.1657 81.002C66.1956 96.7048 63.9267 120.976 63.3595 127.275C56.1947 129.334 47.9253 131.126 39.2977 132.2C40.88 125.454 43.5668 117.005 45.5669 112.229C48.3433 105.661 51.0898 98.4363 56.7619 94.0777Z" fill="#6D696D"/>
<path d="M17.8921 104.914C17.6533 104.317 17.3249 100.317 17.3249 96.3165C31.565 90.1667 46.9394 86.6141 61.9258 82.2854C60.9108 86.9425 59.239 92.2266 56.7611 94.1073C51.089 98.4659 48.3425 105.661 45.5662 112.258C43.566 117.005 40.8792 125.483 39.297 132.23C32.0128 133.126 24.4599 133.514 17.0563 133.096C16.9667 129.484 17.1458 123.811 18.6982 118.408C20.3401 112.676 18.9072 107.571 17.8921 104.914Z" fill="#5B575B"/>
<path d="M-8.94514 71.7176C-4.70597 70.1653 -1.66092 70.9116 2.84693 71.7176C-0.377228 71.9565 -4.40744 74.6731 -7.03453 76.1658C-6.34791 77.7779 -3.84021 88.6743 1.02588 93.6897C4.42916 97.2124 9.38481 95.9287 15.1166 93.8091C21.8635 91.3014 34.0138 90.0177 41.089 85.898C47.0895 82.4051 48.4628 76.4643 50.045 70.1951C51.3287 65.1201 47.9851 58.1642 46.9701 53.1489C44.0445 49.5068 40.8204 41.8046 38.3425 37.864C32.6704 35.7743 20.7291 39.6253 15.8033 42.1032C9.92216 45.0288 3.71267 43.9839 -3.39243 46.0438C5.17548 39.7746 16.1317 37.7147 26.4012 34.8787C29.1477 34.1323 39.5367 34.8488 43.328 35.5056C50.463 41.6554 56.762 51.5667 62.255 59.2688C67.0316 65.956 68.3451 78.0764 66.1658 81.0319C60.225 88.9132 49.1196 92.3762 40.5218 95.9884C37.0588 97.4214 23.0278 99.8992 16.8183 103.183C15.7137 103.78 13.3852 106.198 12.9672 106.885C12.191 108.139 12.1612 109.422 10.5491 110.646C9.02657 111.811 7.23536 111.214 6.33976 113.871C5.56358 116.11 3.98137 118.08 1.5931 118.528C1.71251 116.856 0.160141 112.915 0.309402 105.9C0.428818 101.004 -3.7208 96.0481 -5.60156 90.5551C-10.2885 76.6733 -16.2294 63.717 -15.4532 61.0003C-10.0796 66.1351 -11.7514 68.6428 -8.94514 71.7176Z" fill="#BCB7BB"/>
<path d="M1.71252 31.8635C7.8623 36.5206 14.7286 39.088 14.3703 47.5365C14.1614 52.5817 13.2359 57.5075 12.5791 62.5229C12.1612 65.5978 9.29527 73.1506 6.22038 75.1209C5.98155 75.2702 5.74273 75.3896 5.5039 75.509C4.36948 75.3299 3.35447 75.1807 2.42902 75.0314C0.816937 74.7926 -1.60118 73.5686 -4.37754 71.7177C-2.16839 63.3587 -5.27314 53.5967 -7.27331 48.6112C-8.97495 44.4019 -16.4681 42.8197 -16.6473 37.9834C-16.8562 32.0725 -18.0504 25.7436 -16.6473 17.6533C-10.7661 22.8478 -2.79533 28.4602 1.71252 31.8635Z" fill="#6D696D"/>
<path d="M-13.841 1.65174C-6.07916 -0.348437 3.35448 0.78599 11.5343 2.45778C15.1764 3.05484 18.7887 3.92059 22.2516 4.81619C33.3869 7.68211 49.9854 15.1156 60.3445 20.1309C64.3448 25.9523 61.9864 41.9239 60.3146 47.4467C59.628 49.7156 58.822 51.8053 57.9562 53.7458C57.3293 52.1635 56.583 50.5813 56.6725 48.9394C58.1353 44.551 57.7174 42.4314 55.8665 44.1629C52.5528 47.2676 53.2394 50.1037 47.4777 50.641C44.761 50.9097 44.5222 56.343 43.9849 56.9998C40.1935 61.6868 39.9547 57.8357 37.6858 59.4179C31.5659 63.6869 28.2223 60.7016 21.5053 61.6569C19.2365 61.9853 15.6839 65.508 12.012 64.9408C12.3105 63.9855 12.5195 63.1197 12.5792 62.4629C13.2658 57.4476 14.1614 52.5218 14.3704 47.4766C14.7286 39.0281 7.86233 36.4607 1.71255 31.8036C-5.75078 26.1315 -22.8269 14.429 -23.9016 8.5777C-20.6476 3.56235 -15.9606 2.18909 -13.841 1.65174Z" fill="#878286"/>
<path d="M12.0118 65C15.7136 65.5672 19.2662 62.0445 21.5052 61.7162C28.2222 60.731 31.5657 63.7462 37.6857 59.4772C39.9545 57.8949 40.1933 61.746 43.9847 57.059C44.5221 56.4023 44.7609 50.969 47.4775 50.7003C53.2094 50.1629 52.5526 47.3269 55.8663 44.2221C57.6874 42.4906 58.1352 44.6102 56.6724 48.9986C56.5828 50.6406 57.3291 52.193 57.9561 53.805C46.164 80.0461 18.6691 77.5086 5.50378 75.5681C5.74261 75.4487 5.98143 75.3293 6.22025 75.18C8.66822 73.5679 10.9371 68.5526 12.0118 65Z" fill="#6D696D"/>
<path d="M-21.5131 5.20438C-15.9902 1.08463 -6.70583 -0.348324 -0.227657 0.0696223C19.8338 1.38317 52.0157 14.9366 60.3447 20.1609C57.5982 24.5792 54.2248 28.4601 50.4036 31.6843C50.5827 30.9977 50.6424 30.2812 50.523 29.505C50.4036 28.7288 49.7169 28.0123 48.9407 27.8631C45.9853 24.5792 40.6117 23.0567 36.88 21.1759C30.3421 17.8921 23.4759 15.265 16.938 12.0408C16.0424 11.593 15.2065 12.3692 15.1766 13.2648C15.1468 15.2948 15.6245 16.1904 17.2365 17.4443C18.2217 18.1906 20.3114 20.2505 18.3709 25.5942C16.5797 30.4901 17.4754 37.2071 16.9081 40.8194C7.59391 38.5804 -5.63113 29.505 -15.4529 17.2353C-16.1992 16.3098 -20.3787 14.1007 -21.1548 13.3544C-24.1999 10.369 -25.394 8.0703 -21.5131 5.20438Z" fill="#999698"/>
<path d="M16.9379 11.981C23.4757 15.2051 30.3121 17.8322 36.8799 21.1161C40.6115 22.9969 46.015 24.5194 48.9406 27.8033C49.7168 27.9525 50.4034 28.6988 50.5228 29.4452C50.6422 30.2214 50.5825 30.9677 50.4034 31.6245C41.4176 39.2072 29.924 43.0583 18.2812 41.0283C17.8334 40.9387 17.3558 40.8491 16.908 40.7297C17.5051 37.1175 16.5796 30.4005 18.3708 25.5045C20.3113 20.1608 18.2215 18.1009 17.2364 17.3546C15.6243 16.1008 15.1466 15.2051 15.1765 13.1751C15.2064 12.3094 16.0124 11.5332 16.9379 11.981Z" fill="#A5A0A4"/>
<path d="M-11.3028 18.3401C-5.21272 25.9228 5.08667 32.6995 7.44508 34.4907C13.6247 39.2076 19.267 40.8196 24.1928 39.5957C31.8054 37.7448 37.1491 38.6105 39.9255 36.6103C43.1198 34.3116 48.7024 27.4454 50.195 26.1318C51.837 24.669 55.9866 21.6837 60.375 20.1313C58.0464 23.7137 55.8373 30.8785 42.4332 38.4911C40.4629 39.5957 37.0297 42.0138 34.9997 41.7153C33.8653 41.8645 26.9094 41.2674 24.3122 41.8944C22.5807 42.3123 20.3119 42.6706 18.4012 45.5365C15.804 49.4771 15.7741 54.5223 15.4756 56.4628C14.371 63.8963 13.9531 70.2849 8.01228 73.4195C10.7289 69.3594 12.0723 56.9404 12.759 48.1934C12.9978 45.0588 12.3112 40.7301 10.4304 40.4316C1.14603 38.9688 -1.36166 33.3265 -5.18288 28.9082C-10.855 22.3405 -12.9149 25.8631 -16.348 21.3851C-17.4526 19.9223 -17.99 17.0266 -19.1244 16.2802C-22.9755 13.7128 -24.498 12.1306 -23.9606 8.27954C-21.6918 12.8471 -15.7211 12.8172 -11.3028 18.3401Z" fill="#BCB7BB"/>
<path d="M-11.5419 40.6403C-8.31774 43.148 -5.30256 50.9397 -2.94415 53.1787C2.48916 58.2836 -0.585735 65.6275 -3.89945 69.5383C-3.24268 60.1046 -4.85475 57.8358 -8.0192 54.1937C-11.3628 50.3426 -10.7657 45.2974 -14.4078 41.9837C-20.7367 36.222 -19.6919 28.9975 -17.2439 22.9373C-17.423 29.9229 -17.2737 36.1921 -11.5419 40.6403Z" fill="#878286"/>
<path d="M34.7244 514.377C35.1122 514.401 35.4273 514.086 35.4516 513.723L40.7594 382.31C40.7837 381.922 40.4686 381.607 40.105 381.583C39.7172 381.559 39.4022 381.874 39.3779 382.237L34.07 513.65C34.0458 514.038 34.3367 514.353 34.7244 514.377Z" fill="#304D30"/>
<path d="M42.7705 373.633C42.6009 377.875 41.6556 381.68 40.2741 384.467C40.1529 384.734 39.7652 384.71 39.6682 384.443C38.5048 381.559 37.8747 377.681 38.0443 373.439C38.214 369.198 39.1592 365.393 40.5407 362.605C40.6619 362.339 41.0497 362.363 41.1467 362.63C42.31 365.514 42.9402 369.392 42.7705 373.633Z" fill="#304D30"/>
<path d="M32.3484 380.686C35.7173 383.28 38.2865 386.237 39.7649 388.975C39.9103 389.218 39.668 389.533 39.4014 389.46C36.3717 388.757 32.8574 387.036 29.4885 384.443C26.1195 381.85 23.5504 378.893 22.072 376.154C21.9266 375.912 22.1689 375.596 22.4355 375.669C25.4409 376.396 28.9795 378.117 32.3484 380.686Z" fill="#304D30"/>
<path d="M47.8846 381.317C44.3218 383.619 41.5103 386.382 39.8379 388.976C39.6925 389.218 39.8864 389.533 40.1773 389.484C43.2553 389.024 46.8909 387.594 50.4537 385.291C54.0165 382.989 56.828 380.226 58.5004 377.633C58.6458 377.39 58.4519 377.075 58.161 377.124C55.1072 377.584 51.4474 379.014 47.8846 381.317Z" fill="#304D30"/>
<path d="M32.0096 388.951C35.3785 391.544 37.9476 394.501 39.426 397.24C39.5715 397.482 39.3291 397.797 39.0625 397.725C36.0329 397.022 32.5185 395.301 29.1496 392.708C25.7807 390.114 23.2116 387.158 21.7331 384.419C21.5877 384.176 21.8301 383.861 22.0967 383.934C25.102 384.637 28.6406 386.358 32.0096 388.951Z" fill="#304D30"/>
<path d="M47.5457 389.581C43.9829 391.884 41.1714 394.647 39.4991 397.24C39.3537 397.482 39.5476 397.797 39.8384 397.749C42.9165 397.288 46.552 395.858 50.1148 393.556C53.6777 391.253 56.4891 388.49 58.1615 385.897C58.3069 385.655 58.113 385.34 57.8222 385.388C54.7683 385.849 51.1085 387.279 47.5457 389.581Z" fill="#304D30"/>
<path d="M31.6697 397.191C35.0386 399.785 37.6077 402.742 39.0862 405.48C39.2316 405.723 38.9893 406.038 38.7226 405.965C35.693 405.262 32.1787 403.542 28.8098 400.948C25.4408 398.355 22.8717 395.398 21.3933 392.659C21.2478 392.417 21.4902 392.102 21.7568 392.174C24.7864 392.901 28.3008 394.622 31.6697 397.191Z" fill="#304D30"/>
<path d="M47.2303 397.822C43.6675 400.124 40.856 402.887 39.1836 405.48C39.0382 405.723 39.2321 406.038 39.523 405.989C42.601 405.529 46.2366 404.099 49.7994 401.796C53.3622 399.494 56.1737 396.731 57.8461 394.138C57.9915 393.895 57.7976 393.58 57.5067 393.629C54.4529 394.089 50.7931 395.519 47.2303 397.822Z" fill="#304D30"/>
<path d="M31.3308 405.456C34.6998 408.05 37.2689 411.007 38.7473 413.745C38.8928 413.988 38.6504 414.303 38.3838 414.23C35.3542 413.527 31.8398 411.806 28.4709 409.213C25.102 406.62 22.5329 403.663 21.0544 400.924C20.909 400.682 21.1513 400.367 21.418 400.439C24.4476 401.142 27.9619 402.863 31.3308 405.456Z" fill="#304D30"/>
<path d="M46.8914 406.087C43.3286 408.389 40.5171 411.152 38.8448 413.746C38.6994 413.988 38.8933 414.303 39.1841 414.254C42.2622 413.794 45.8977 412.364 49.4605 410.061C53.0234 407.759 55.8348 404.996 57.5072 402.403C57.6526 402.16 57.4587 401.845 57.1679 401.894C54.114 402.354 50.4543 403.784 46.8914 406.087Z" fill="#304D30"/>
<path d="M31.0154 413.697C34.3843 416.29 36.9535 419.247 38.4319 421.986C38.5773 422.228 38.335 422.543 38.0684 422.471C35.0387 421.768 31.5244 420.047 28.1555 417.454C24.7865 414.86 22.2174 411.903 20.739 409.165C20.5936 408.922 20.8359 408.607 21.1025 408.68C24.1079 409.407 27.6465 411.128 31.0154 413.697Z" fill="#304D30"/>
<path d="M46.5516 414.327C42.9888 416.629 40.1773 419.392 38.5049 421.986C38.3595 422.228 38.5534 422.543 38.8443 422.495C41.9223 422.034 45.5579 420.604 49.1207 418.302C52.6835 415.999 55.495 413.236 57.1673 410.643C57.3128 410.401 57.1189 410.085 56.828 410.134C53.7742 410.594 50.1144 412.024 46.5516 414.327Z" fill="#304D30"/>
<path d="M30.6765 421.962C34.0455 424.555 36.6146 427.512 38.093 430.251C38.2385 430.493 37.9961 430.808 37.7295 430.736C34.6999 430.033 31.1855 428.312 27.8166 425.719C24.4477 423.125 21.8786 420.168 20.4001 417.429C20.2547 417.187 20.4971 416.872 20.7637 416.945C23.769 417.648 27.3076 419.368 30.6765 421.962Z" fill="#304D30"/>
<path d="M46.2127 422.592C42.6499 424.895 39.8384 427.658 38.1661 430.251C38.0206 430.493 38.2145 430.808 38.5054 430.76C41.5835 430.299 45.219 428.869 48.7818 426.567C52.3447 424.264 55.1561 421.502 56.8285 418.908C56.9739 418.666 56.78 418.351 56.4892 418.399C53.4353 418.86 49.7755 420.29 46.2127 422.592Z" fill="#304D30"/>
<path d="M30.3367 430.202C33.7056 432.796 36.2747 435.753 37.7532 438.491C37.8986 438.734 37.6562 439.049 37.3896 438.976C34.36 438.273 30.8457 436.552 27.4767 433.959C24.1078 431.366 21.5387 428.409 20.0603 425.67C19.9148 425.428 20.1572 425.113 20.4238 425.185C23.4534 425.912 26.9678 427.633 30.3367 430.202Z" fill="#304D30"/>
<path d="M45.8973 430.832C42.3345 433.135 39.523 435.898 37.8506 438.491C37.7052 438.734 37.8991 439.049 38.19 439C41.268 438.54 44.9036 437.11 48.4664 434.807C52.0292 432.505 54.8407 429.742 56.513 427.148C56.6585 426.906 56.4646 426.591 56.1737 426.639C53.1199 427.1 49.4601 428.53 45.8973 430.832Z" fill="#304D30"/>
<path d="M29.9969 438.467C33.3658 441.06 35.9349 444.017 37.4133 446.756C37.5588 446.998 37.3164 447.313 37.0498 447.241C34.0202 446.538 30.5058 444.817 27.1369 442.224C23.768 439.63 21.1989 436.673 19.7204 433.935C19.575 433.692 19.8174 433.377 20.084 433.45C23.1136 434.153 26.6522 435.874 29.9969 438.467Z" fill="#304D30"/>
<path d="M45.5574 439.097C41.9946 441.399 39.1831 444.162 37.5108 446.756C37.3654 446.998 37.5593 447.313 37.8501 447.265C40.9282 446.804 44.5637 445.374 48.1266 443.072C51.6894 440.769 54.5009 438.006 56.1732 435.413C56.3186 435.171 56.1247 434.855 55.8339 434.904C52.78 435.34 49.1203 436.794 45.5574 439.097Z" fill="#304D30"/>
<path d="M29.6824 446.708C33.0513 449.301 35.6204 452.258 37.0989 454.997C37.2443 455.239 37.0019 455.554 36.7353 455.481C33.7057 454.778 30.1914 453.058 26.8225 450.464C23.4535 447.871 20.8844 444.914 19.406 442.175C19.2605 441.933 19.5029 441.618 19.7695 441.69C22.7749 442.418 26.3135 444.138 29.6824 446.708Z" fill="#304D30"/>
<path d="M45.2186 447.338C41.6558 449.64 38.8443 452.403 37.1719 454.997C37.0265 455.239 37.2204 455.554 37.5112 455.506C40.5893 455.045 44.2249 453.615 47.7877 451.313C51.3505 449.01 54.162 446.247 55.8343 443.654C55.9798 443.411 55.7859 443.096 55.495 443.145C52.4412 443.605 48.7814 445.035 45.2186 447.338Z" fill="#304D30"/>
<path d="M29.3435 454.972C32.7125 457.566 35.2816 460.523 36.76 463.261C36.9054 463.504 36.6631 463.819 36.3965 463.746C33.3669 463.043 29.8525 461.322 26.4836 458.729C23.1147 456.136 20.5455 453.179 19.0671 450.44C18.9217 450.198 19.164 449.883 19.4307 449.955C22.436 450.658 25.9746 452.379 29.3435 454.972Z" fill="#304D30"/>
<path d="M44.8797 455.602C41.3169 457.905 38.5054 460.668 36.8331 463.261C36.6876 463.504 36.8815 463.819 37.1724 463.77C40.2505 463.31 43.886 461.88 47.4488 459.577C51.0116 457.275 53.8231 454.512 55.4955 451.918C55.6409 451.676 55.447 451.361 55.1562 451.409C52.1023 451.846 48.4425 453.276 44.8797 455.602Z" fill="#304D30"/>
<path d="M29.0037 463.213C32.3726 465.806 34.9417 468.763 36.4202 471.502C36.5656 471.744 36.3232 472.059 36.0566 471.986C33.027 471.284 29.5127 469.563 26.1437 466.969C22.7748 464.376 20.2057 461.419 18.7273 458.68C18.5818 458.438 18.8242 458.123 19.0908 458.196C22.1204 458.898 25.6348 460.619 29.0037 463.213Z" fill="#304D30"/>
<path d="M44.5643 463.843C41.0015 466.145 38.19 468.908 36.5176 471.502C36.3722 471.744 36.5661 472.059 36.8569 472.011C39.935 471.55 43.5706 470.12 47.1334 467.818C50.6962 465.515 53.5077 462.752 55.18 460.159C55.3255 459.916 55.1316 459.601 54.8407 459.65C51.7869 460.11 48.1271 461.54 44.5643 463.843Z" fill="#304D30"/>
<path d="M28.6638 471.478C32.0328 474.071 34.6019 477.028 36.0803 479.767C36.2258 480.009 35.9834 480.324 35.7168 480.252C32.6872 479.549 29.1728 477.828 25.8039 475.235C22.435 472.641 19.8659 469.684 18.3874 466.946C18.242 466.703 18.4844 466.388 18.751 466.461C21.7806 467.164 25.3192 468.885 28.6638 471.478Z" fill="#304D30"/>
<path d="M44.2244 472.084C40.6616 474.386 37.8501 477.149 36.1778 479.742C36.0324 479.985 36.2263 480.3 36.5171 480.252C39.5952 479.791 43.2307 478.361 46.7935 476.058C50.3564 473.756 53.1679 470.993 54.8402 468.4C54.9856 468.157 54.7917 467.842 54.5009 467.891C51.447 468.351 47.7873 469.781 44.2244 472.084Z" fill="#304D30"/>
<path d="M28.3494 479.718C31.7183 482.311 34.2874 485.268 35.7659 488.007C35.9113 488.25 35.6689 488.565 35.4023 488.492C32.3727 487.789 28.8584 486.068 25.4894 483.475C22.1205 480.882 19.5514 477.925 18.073 475.186C17.9275 474.943 18.1699 474.628 18.4365 474.701C21.4419 475.404 24.9805 477.125 28.3494 479.718Z" fill="#304D30"/>
<path d="M43.8856 480.348C40.3227 482.651 37.5113 485.414 35.8389 488.007C35.6935 488.25 35.8874 488.564 36.1782 488.516C39.2563 488.056 42.8919 486.626 46.4547 484.323C50.0175 482.021 52.829 479.257 54.5013 476.664C54.6468 476.422 54.4529 476.107 54.162 476.155C51.1082 476.616 47.4484 478.046 43.8856 480.348Z" fill="#304D30"/>
<path d="M26.847 503.495C27.6468 502.937 28.1558 502.307 28.0104 502.113C12.7412 481.875 -2.6008 461.686 -17.555 441.206C-17.6762 441.036 -17.9428 441.012 -18.1124 441.133C-18.3063 441.279 -18.3548 441.521 -18.2336 441.691C-3.5218 462.341 10.8022 483.257 25.1747 504.149C25.2959 504.367 26.0472 504.076 26.847 503.495Z" fill="#304D30"/>
<path d="M-2.18966 451.628C-3.35303 454.076 -4.46792 456.669 -4.90419 459.384C-4.92842 459.577 -4.66182 459.602 -4.46792 459.408C-2.01999 457.154 -0.0568061 454.318 1.34893 451.434C2.46383 449.155 3.6272 446.368 3.48178 443.678C3.48178 443.508 3.1667 443.557 2.99704 443.775C0.888429 446.15 -0.856626 448.84 -2.18966 451.628Z" fill="#304D30"/>
<path d="M1.08282 454.875C-0.274446 457.445 -1.559 460.256 -2.18916 463.165C-2.23764 463.358 -1.94679 463.383 -1.72866 463.165C1.01011 460.692 3.2399 457.614 4.88801 454.439C6.17257 451.967 7.55407 448.962 7.5056 446.005C7.5056 445.835 7.16628 445.908 6.97239 446.15C4.69412 448.816 2.73093 451.773 1.08282 454.875Z" fill="#304D30"/>
<path d="M-9.19386 467.915C-6.0673 467.309 -2.74685 466.824 0.45242 467.018C0.670552 467.043 0.573606 467.309 0.282763 467.479C-3.25582 469.515 -7.25491 470.823 -11.1571 471.526C-14.2109 472.084 -17.7737 472.52 -20.876 471.623C-21.0699 471.575 -20.8276 471.284 -20.5125 471.139C-16.8527 469.684 -13.0233 468.666 -9.19386 467.915Z" fill="#304D30"/>
<path d="M4.45221 458.075C2.90105 460.838 1.37413 463.843 0.550075 466.946C0.501601 467.164 0.792441 467.139 1.05905 466.921C4.1129 464.231 6.6093 460.838 8.52401 457.348C10.0267 454.609 11.5536 451.386 11.6748 448.138C11.6748 447.944 11.3355 448.065 11.1174 448.332C8.54825 451.361 6.36693 454.682 4.45221 458.075Z" fill="#304D30"/>
<path d="M-7.25476 472.156C-3.8616 471.429 -0.298776 470.775 3.21557 470.823C3.45794 470.823 3.31252 471.138 2.99744 471.308C-0.880462 473.586 -5.2431 475.089 -9.55727 475.937C-12.9504 476.616 -16.8041 477.173 -20.27 476.301C-20.4639 476.252 -20.2215 475.937 -19.858 475.816C-15.7862 474.265 -11.5205 473.077 -7.25476 472.156Z" fill="#304D30"/>
<path d="M7.86926 461.25C6.09997 464.231 4.35491 467.406 3.28849 470.751C3.21578 470.969 3.55509 470.944 3.8217 470.702C7.21486 467.769 10.0263 464.037 12.1834 460.256C13.88 457.251 15.6493 453.76 15.9159 450.222C15.9401 450.004 15.5524 450.173 15.31 450.464C12.547 453.833 10.0991 457.493 7.86926 461.25Z" fill="#304D30"/>
<path d="M-5.36379 476.446C-1.67979 475.574 2.17389 474.75 5.95484 474.653C6.19721 474.653 6.05179 474.968 5.71247 475.186C1.47101 477.731 -3.30365 479.403 -8.02985 480.397C-11.7623 481.173 -15.9553 481.851 -19.7847 481.051C-20.0029 481.003 -19.712 480.688 -19.3 480.542C-14.7677 478.87 -10.0658 477.537 -5.36379 476.446Z" fill="#304D30"/>
<path d="M11.36 464.401C9.37259 467.624 7.38516 471.017 6.07637 474.58C5.97942 474.822 6.34297 474.774 6.65805 474.507C10.4148 471.308 13.5171 467.285 15.9408 463.116C17.8555 459.82 19.8187 456.063 20.2792 452.161C20.3034 451.943 19.9156 452.112 19.649 452.452C16.6194 456.257 13.8806 460.28 11.36 464.401Z" fill="#304D30"/>
<path d="M-3.52124 480.785C0.477849 479.791 4.59812 478.773 8.71839 478.506C8.985 478.482 8.81534 478.822 8.42755 479.064C3.82254 481.876 -1.38839 483.742 -6.55085 484.881C-10.5984 485.778 -15.2034 486.577 -19.3964 485.826C-19.6388 485.778 -19.2995 485.463 -18.8632 485.293C-13.8219 483.524 -8.65946 482.069 -3.52124 480.785Z" fill="#304D30"/>
<path d="M14.8743 467.527C12.693 470.993 10.3905 474.58 8.83933 478.434C8.74238 478.676 9.10594 478.628 9.44526 478.337C13.5655 474.822 16.9829 470.508 19.6975 465.952C21.8303 462.365 24.0116 458.269 24.6418 454.051C24.6903 453.809 24.254 454.027 23.9632 454.391C20.7397 458.608 17.71 463.043 14.8743 467.527Z" fill="#304D30"/>
<path d="M18.4608 470.678C16.0613 474.435 13.4922 478.264 11.6744 482.336C11.5533 482.603 11.9653 482.53 12.3288 482.215C16.8369 478.434 20.6179 473.732 23.599 468.763C25.9257 464.861 28.2525 460.45 29.1008 455.894C29.1493 455.627 28.713 455.869 28.3979 456.281C24.8836 460.935 21.5873 465.782 18.4608 470.678Z" fill="#304D30"/>
<path d="M22.1696 473.805C19.5035 477.852 16.6678 481.924 14.5592 486.311C14.4138 486.578 14.85 486.505 15.2621 486.165C20.1822 482.069 24.3267 476.98 27.6229 471.599C30.1678 467.406 32.6157 462.656 33.5852 457.76C33.6336 457.469 33.1974 457.76 32.8581 458.196C29.1256 463.262 25.6355 468.545 22.1696 473.805Z" fill="#304D30"/>
<path d="M25.9013 476.955C22.9686 481.294 19.8663 485.656 17.4426 490.31C17.2972 490.6 17.7577 490.504 18.1939 490.14C23.5261 485.729 28.0584 480.251 31.6212 474.435C34.36 469.975 37.0018 464.861 38.0197 459.602C38.0682 459.286 37.6319 459.602 37.2926 460.086C33.4147 465.637 29.6822 471.332 25.9013 476.955Z" fill="#304D30"/>
<path d="M29.6578 480.13C26.4828 484.784 23.0896 489.413 20.3508 494.333C20.1812 494.648 20.6659 494.527 21.1507 494.115C26.919 489.389 31.7906 483.523 35.6201 477.27C38.5285 472.496 41.34 467.067 42.4064 461.444C42.4791 461.129 42.0186 461.444 41.6793 461.977C37.6802 468.036 33.7538 474.144 29.6578 480.13Z" fill="#304D30"/>
<path d="M33.4636 483.354C30.0462 488.322 26.3622 493.218 23.3326 498.429C23.1387 498.744 23.6719 498.599 24.1809 498.187C30.3613 493.146 35.5722 486.917 39.644 480.203C42.7464 475.113 45.6063 469.369 46.7697 463.383C46.8424 463.043 46.3819 463.383 46.0426 463.94C41.9465 470.508 37.8263 477.028 33.4636 483.354Z" fill="#304D30"/>
<path d="M31.1851 504.658C31.4032 504.973 31.8879 504.997 32.2757 504.731C75.0538 473.198 100.139 423.949 100.454 370.822C100.454 370.361 100.139 369.998 99.7512 369.998C99.3634 369.998 99.0726 370.361 99.0726 370.822C98.7575 423.513 73.8905 472.326 31.4759 503.592C31.0881 503.882 30.9669 504.343 31.1851 504.658Z" fill="#304D30"/>
<path d="M101.739 360.206C102.03 364.545 101.642 369.319 100.043 373.415C99.9216 373.73 99.558 373.706 99.4368 373.415C97.9584 369.271 97.304 364.811 97.0131 360.521C96.7223 356.183 96.7708 351.651 97.6433 347.288C97.716 346.949 98.0795 346.9 98.2492 347.191C100.406 351.117 101.448 355.819 101.739 360.206Z" fill="#304D30"/>
<path d="M91.9471 369.417C95.0494 371.84 97.8124 375.015 99.5332 378.82C99.6544 379.111 99.4363 379.475 99.1454 379.402C95.4372 378.311 92.1167 376.13 89.2083 373.779C86.2756 371.404 83.3914 368.52 81.3555 365.199C81.2101 364.933 81.404 364.618 81.6706 364.666C85.5001 365.224 89.1114 367.187 91.9471 369.417Z" fill="#304D30"/>
<path d="M107.507 369.222C104.526 371.913 101.617 375.161 99.63 378.82C99.4845 379.111 99.6784 379.475 99.945 379.426C103.823 378.748 107.434 376.494 110.221 374.094C113.421 371.331 116.16 367.768 117.808 363.624C117.929 363.284 117.711 362.897 117.42 362.969C113.663 364.181 110.367 366.653 107.507 369.222Z" fill="#304D30"/>
<path d="M91.8024 378.796C94.7593 381.389 97.3284 384.71 98.8068 388.588C98.928 388.878 98.6614 389.218 98.3948 389.121C94.7593 387.812 91.5842 385.461 88.8212 382.94C86.0582 380.42 83.3194 377.39 81.5017 373.949C81.3563 373.682 81.5744 373.367 81.8652 373.44C85.5977 374.215 89.0878 376.396 91.8024 378.796Z" fill="#304D30"/>
<path d="M107.338 379.523C104.211 382.02 101.109 385.073 98.879 388.588C98.7094 388.854 98.879 389.242 99.1699 389.218C103.096 388.782 106.829 386.77 109.761 384.54C113.106 381.995 116.063 378.602 117.953 374.603C118.099 374.288 117.881 373.876 117.614 373.949C113.785 374.894 110.343 377.124 107.338 379.523Z" fill="#304D30"/>
<path d="M91.0754 388.079C93.8627 390.842 96.2379 394.283 97.4982 398.234C97.5952 398.549 97.3285 398.864 97.0619 398.743C93.5234 397.24 90.4695 394.695 87.8519 392.029C85.2343 389.363 82.6895 386.188 81.0656 382.65C80.9444 382.383 81.1868 382.068 81.4534 382.165C85.1616 383.183 88.5063 385.534 91.0754 388.079Z" fill="#304D30"/>
<path d="M106.538 389.727C103.266 392.029 99.9943 394.865 97.5706 398.234C97.3767 398.501 97.5222 398.888 97.813 398.864C101.739 398.67 105.593 396.877 108.647 394.841C112.137 392.514 115.288 389.339 117.421 385.461C117.59 385.146 117.396 384.734 117.13 384.783C113.276 385.534 109.689 387.546 106.538 389.727Z" fill="#304D30"/>
<path d="M89.8144 397.264C92.4319 400.173 94.589 403.76 95.6312 407.759C95.7039 408.074 95.4131 408.365 95.1707 408.244C91.7291 406.523 88.8449 403.808 86.3727 400.997C83.9248 398.185 81.5738 394.865 80.1681 391.278C80.0711 391.011 80.3135 390.72 80.5801 390.817C84.1914 392.029 87.3907 394.598 89.8144 397.264Z" fill="#304D30"/>
<path d="M105.157 399.858C101.763 401.942 98.3218 404.584 95.7042 407.783C95.5103 408.026 95.6315 408.438 95.9224 408.438C99.8487 408.462 103.799 406.935 106.974 405.069C110.586 402.96 113.906 399.979 116.281 396.271C116.475 395.98 116.306 395.544 116.015 395.568C112.113 396.053 108.429 397.846 105.157 399.858Z" fill="#304D30"/>
<path d="M87.996 406.329C90.444 409.383 92.3829 413.067 93.1827 417.114C93.2555 417.43 92.9404 417.72 92.6738 417.575C89.3291 415.66 86.6145 412.8 84.3363 409.843C82.058 406.886 79.9009 403.469 78.7133 399.785C78.6164 399.494 78.883 399.228 79.1496 399.349C82.7124 400.803 85.742 403.518 87.996 406.329Z" fill="#304D30"/>
<path d="M103.168 409.819C99.654 411.685 96.0669 414.109 93.2797 417.139C93.0616 417.381 93.1585 417.769 93.4494 417.793C97.3757 418.06 101.399 416.775 104.695 415.103C108.428 413.212 111.918 410.449 114.511 406.887C114.705 406.596 114.584 406.159 114.293 406.184C110.342 406.475 106.537 408.026 103.168 409.819Z" fill="#304D30"/>
<path d="M85.6701 415.273C87.9483 418.472 89.6691 422.253 90.2024 426.325C90.2508 426.64 89.9115 426.906 89.6691 426.761C86.4456 424.652 83.9008 421.623 81.7922 418.545C79.6835 415.467 77.7446 411.928 76.7751 408.195C76.7024 407.905 76.9933 407.662 77.2356 407.783C80.7015 409.432 83.5857 412.34 85.6701 415.273Z" fill="#304D30"/>
<path d="M100.599 419.635C96.9879 421.283 93.2797 423.489 90.2985 426.349C90.0562 426.567 90.1531 426.979 90.4439 427.003C94.3461 427.512 98.4421 426.446 101.811 424.992C105.64 423.319 109.3 420.799 112.087 417.406C112.306 417.139 112.184 416.678 111.918 416.703C107.943 416.727 104.089 418.06 100.599 419.635Z" fill="#304D30"/>
<path d="M82.8093 424.022C84.8937 427.342 86.3964 431.22 86.6872 435.316C86.7115 435.631 86.3722 435.874 86.1298 435.704C83.0517 433.426 80.6765 430.251 78.7375 427.051C76.8228 423.852 75.0778 420.217 74.3264 416.436C74.278 416.145 74.5688 415.902 74.8112 416.048C78.2043 417.914 80.8946 420.968 82.8093 424.022Z" fill="#304D30"/>
<path d="M97.4727 429.281C93.7645 430.711 89.935 432.699 86.7842 435.365C86.5419 435.583 86.5903 435.995 86.8812 436.044C90.7349 436.771 94.9036 435.971 98.3452 434.71C102.272 433.28 106.053 430.978 109.058 427.755C109.3 427.488 109.203 427.052 108.913 427.027C104.986 426.809 101.036 427.9 97.4727 429.281Z" fill="#304D30"/>
<path d="M79.4648 432.602C81.3553 436.043 82.6156 439.994 82.6641 444.114C82.6641 444.429 82.3005 444.672 82.0824 444.478C79.1255 442.006 76.9442 438.71 75.2233 435.389C73.5025 432.093 71.9756 428.336 71.4424 424.531C71.3939 424.24 71.709 424.022 71.9514 424.167C75.1991 426.228 77.7197 429.427 79.4648 432.602Z" fill="#304D30"/>
<path d="M93.765 438.71C89.984 439.921 86.0334 441.666 82.7372 444.163C82.4706 444.357 82.5191 444.769 82.7857 444.842C86.5909 445.787 90.7839 445.229 94.3224 444.187C98.3215 443 102.248 440.915 105.423 437.861C105.665 437.619 105.617 437.158 105.326 437.134C101.4 436.674 97.4005 437.546 93.765 438.71Z" fill="#304D30"/>
<path d="M75.5871 440.964C77.2595 444.502 78.3016 448.526 78.1077 452.646C78.0835 452.961 77.72 453.179 77.5261 452.985C74.7388 450.343 72.7514 446.902 71.2245 443.508C69.6975 440.115 68.413 436.286 68.0979 432.432C68.0737 432.141 68.3888 431.948 68.6311 432.117C71.7334 434.347 74.0602 437.692 75.5871 440.964Z" fill="#304D30"/>
<path d="M89.5237 447.895C85.6701 448.889 81.6225 450.392 78.2051 452.694C77.9385 452.864 77.9385 453.276 78.2293 453.373C81.986 454.561 86.2033 454.246 89.7661 453.397C93.8379 452.428 97.8612 450.586 101.206 447.75C101.473 447.532 101.448 447.071 101.157 447.023C97.2795 446.32 93.232 446.95 89.5237 447.895Z" fill="#304D30"/>
<path d="M71.2489 449.083C72.7031 452.719 73.5029 456.814 73.0667 460.91C73.0424 461.226 72.6546 461.42 72.4607 461.201C69.8189 458.414 68.0496 454.851 66.7408 451.361C65.4078 447.871 64.3656 443.969 64.2687 440.115C64.2687 439.824 64.608 439.655 64.8261 439.824C67.783 442.248 69.9159 445.738 71.2489 449.083Z" fill="#304D30"/>
<path d="M84.7485 456.839C80.8464 457.59 76.7019 458.875 73.1391 460.983C72.8725 461.153 72.8482 461.565 73.1148 461.662C76.7988 463.068 81.0161 462.995 84.6516 462.365C88.7719 461.638 92.9164 460.038 96.4065 457.372C96.6731 457.154 96.6731 456.693 96.4065 456.645C92.5771 455.724 88.5053 456.087 84.7485 456.839Z" fill="#304D30"/>
<path d="M66.4255 456.936C67.6616 460.668 68.1948 464.789 67.5162 468.86C67.4677 469.175 67.0799 469.345 66.886 469.127C64.4138 466.17 62.8627 462.51 61.7478 458.947C60.6329 455.385 59.8088 451.434 59.9542 447.556C59.9542 447.265 60.3178 447.096 60.5117 447.289C63.3716 449.907 65.2864 453.518 66.4255 456.936Z" fill="#304D30"/>
<path d="M79.4407 465.467C75.4901 466 71.2971 467.042 67.6131 468.933C67.3223 469.078 67.2738 469.49 67.5404 469.611C71.1275 471.211 75.3689 471.405 79.0287 470.969C83.1974 470.484 87.4147 469.102 91.0744 466.679C91.3653 466.485 91.3895 466.024 91.1229 465.952C87.3177 464.812 83.2217 464.958 79.4407 465.467Z" fill="#304D30"/>
<path d="M61.1185 464.522C62.1365 468.327 62.4273 472.496 61.4821 476.519C61.4093 476.834 60.9973 476.98 60.8277 476.737C58.5494 473.635 57.2164 469.902 56.3196 466.267C55.4228 462.631 54.8411 458.632 55.2289 454.779C55.2532 454.488 55.6167 454.342 55.8106 454.56C58.5009 457.323 60.1975 461.056 61.1185 464.522Z" fill="#304D30"/>
<path d="M73.6001 473.829C69.6253 474.144 65.3596 474.944 61.5544 476.592C61.2636 476.713 61.1909 477.125 61.4332 477.27C64.9233 479.088 69.1406 479.5 72.8246 479.306C77.0175 479.064 81.3075 477.925 85.1369 475.719C85.4278 475.55 85.4762 475.089 85.2096 474.992C81.5256 473.611 77.4296 473.514 73.6001 473.829Z" fill="#304D30"/>
<path d="M55.3485 471.817C56.1241 475.671 56.1483 479.864 54.9849 483.863C54.888 484.178 54.476 484.299 54.3305 484.057C52.2462 480.833 51.1555 477.004 50.4769 473.32C49.7982 469.636 49.4589 465.588 50.0891 461.759C50.1375 461.468 50.5011 461.347 50.695 461.565C53.1914 464.449 54.6456 468.279 55.3485 471.817Z" fill="#304D30"/>
<path d="M67.2735 481.827C63.2744 481.899 58.9602 482.457 55.0581 483.911C54.743 484.032 54.6703 484.444 54.9127 484.59C58.3059 486.626 62.4988 487.28 66.1828 487.28C70.3758 487.28 74.7627 486.407 78.7133 484.396C79.0284 484.226 79.1011 483.79 78.8345 483.669C75.199 482.069 71.1029 481.754 67.2735 481.827Z" fill="#304D30"/>
<path d="M49.1443 478.749C49.6776 482.675 49.4352 486.868 48.0295 490.77C47.9083 491.085 47.4962 491.158 47.3508 490.916C45.4603 487.547 44.612 483.669 44.1758 479.936C43.7395 476.204 43.6426 472.132 44.5151 468.351C44.5878 468.06 44.9514 467.963 45.121 468.181C47.4235 471.26 48.6596 475.186 49.1443 478.749Z" fill="#304D30"/>
<path d="M42.5048 485.366C42.7956 489.316 42.2866 493.509 40.6143 497.339C40.4931 497.629 40.0568 497.702 39.9357 497.46C38.2633 493.994 37.6574 490.043 37.4393 486.287C37.2454 482.53 37.415 478.434 38.5057 474.701C38.5784 474.41 38.9662 474.338 39.1358 474.58C41.2445 477.755 42.2382 481.754 42.5048 485.366Z" fill="#304D30"/>
<path d="M-42.4709 492.467C-43.0283 492.225 -42.9799 491.74 -42.3739 491.667C-35.733 490.819 -26.8866 490.94 -17.2645 492.225C-16.0042 492.394 -14.7681 492.588 -13.532 492.782C-14.6712 492.322 -15.8345 491.813 -16.9979 491.304C-25.8444 487.353 -33.4548 482.797 -38.6415 478.579C-39.1262 478.192 -38.9081 477.731 -38.3021 477.828C-31.7097 478.894 -23.2268 481.512 -14.3803 485.487C-13.217 485.996 -12.0778 486.529 -10.9629 487.062C-11.9324 486.287 -12.9019 485.487 -13.8471 484.663C-21.2151 478.361 -27.2016 471.842 -31.0068 466.315C-31.3461 465.807 -31.0311 465.419 -30.4736 465.685C-24.4386 468.57 -17.0706 473.49 -9.70261 479.815C-8.73313 480.64 -7.78789 481.463 -6.89113 482.312C-7.59399 481.294 -8.29687 480.252 -8.9755 479.185C-14.2591 471.042 -18.137 463.092 -20.2214 456.742C-20.4153 456.16 -19.979 455.894 -19.5428 456.306C-14.5742 460.789 -8.90279 467.6 -3.64338 475.744C-2.94051 476.81 -2.28612 477.877 -1.63173 478.919C-2.01951 477.731 -2.38306 476.543 -2.74662 475.332C-5.50962 466.025 -6.98808 457.299 -7.15773 450.61C-7.18197 450.004 -6.69724 449.859 -6.38215 450.368C-2.89204 456.087 0.622311 464.207 3.36108 473.514C3.72463 474.726 4.06395 475.937 4.37903 477.125C4.35479 475.889 4.33055 474.629 4.33055 473.368C4.33055 463.674 5.39698 454.876 7.1178 448.404C7.28746 447.798 7.77219 447.798 7.94185 448.404C9.66267 454.876 10.7291 463.674 10.7291 473.368C10.7291 475.041 10.7049 476.689 10.6321 478.313C11.0442 476.737 11.4804 475.138 11.9652 473.514C14.7282 464.207 18.2183 456.087 21.7084 450.368C22.0235 449.834 22.5082 449.98 22.484 450.61C22.2901 457.299 20.8116 466.025 18.0729 475.332C17.7093 476.543 17.3458 477.755 16.958 478.919C17.6124 477.852 18.2668 476.81 18.9696 475.744C24.2533 467.6 29.9247 460.789 34.869 456.306C35.3295 455.894 35.7416 456.16 35.5477 456.742C33.4633 463.092 29.5854 471.066 24.3018 479.185C23.5989 480.252 22.9203 481.294 22.2174 482.312C23.1384 481.488 24.0836 480.64 25.0289 479.815C32.3969 473.514 39.7649 468.594 45.7999 465.685C46.3573 465.419 46.6724 465.807 46.3331 466.315C42.5521 471.817 36.5414 478.361 29.1734 484.663C28.2039 485.487 27.2344 486.287 26.2892 487.062C27.4041 486.529 28.5432 485.996 29.7066 485.487C38.553 481.536 47.0117 478.894 53.6284 477.828C54.2343 477.731 54.4525 478.192 53.9677 478.579C48.781 482.797 41.1706 487.353 32.3242 491.304C31.1608 491.813 30.0217 492.322 28.8583 492.782C30.0701 492.588 31.3305 492.394 32.5908 492.225C42.2128 490.94 51.0593 490.819 57.7002 491.667C58.3061 491.74 58.3788 492.249 57.7971 492.467C51.6167 495.036 43.0369 497.242 33.4391 498.526C32.1787 498.696 30.9427 498.841 29.7066 498.963C30.9427 499.108 32.1787 499.302 33.4391 499.496C43.0126 500.998 51.544 503.398 57.676 506.088C58.2334 506.331 58.1607 506.84 57.5548 506.888C50.9139 507.591 42.0432 507.276 32.4696 505.773C22.896 504.27 14.3646 501.871 8.23269 499.181C7.94185 499.06 7.82066 498.866 7.8449 498.696C7.82066 498.696 7.77219 498.672 7.74796 498.647C7.69948 498.672 7.65101 498.696 7.5783 498.696C7.60254 498.866 7.48135 499.06 7.21474 499.181C1.10705 501.871 -7.42434 504.27 -17.0221 505.773C-26.5957 507.276 -35.4664 507.591 -42.1073 506.888C-42.7133 506.815 -42.786 506.331 -42.2285 506.088C-36.1208 503.398 -27.5894 500.998 -17.9916 499.496C-16.7313 499.302 -15.4952 499.132 -14.2591 498.963C-15.4952 498.841 -16.7313 498.696 -17.9916 498.526C-27.7349 497.242 -36.3147 495.036 -42.4709 492.467Z" fill="#304D30"/>
</svg>
