<svg width="1440" height="1024" viewBox="0 0 1440 1024" fill="none" xmlns="http://www.w3.org/2000/svg">
<g clip-path="url(#clip0_30_26219)">
<path d="M1443.97 768.209C1422.77 762.895 1401.22 758.566 1379.45 756.566C1358.41 754.625 1337.15 754.685 1316.16 757.312C1296.52 759.76 1272.46 763.701 1255.23 774.269C1249.05 778.06 1245.11 782.896 1242.99 788.24C1257.08 827.676 1304.04 840.304 1342.58 848.902C1380.2 857.321 1420.62 865.292 1457.52 852.903C1463.91 849.529 1483.49 841.618 1490.06 839.021C1495.7 852.096 1476.54 863.769 1470.6 867.769C1446.09 884.248 1445.28 916.162 1444.24 942.91C1443.55 960.165 1440.44 977.033 1439.49 994.228C1438.83 1005.81 1438.71 1017.45 1438.65 1029.07C1454.8 1024.02 1470.18 1016.92 1477.31 1009.21C1502.03 982.675 1511.97 910.042 1515.08 886.428C1519.02 856.515 1523.41 833.916 1519.7 804.003C1517.64 787.345 1462.89 772.955 1443.97 768.209Z" fill="#6D696D"/>
<path d="M1478.6 769.253C1473.91 767.283 1469.13 765.641 1464.33 764.148C1462.95 767.462 1460.18 770.238 1456.42 772.06C1435.79 782.12 1407.78 774.328 1386.62 771.045C1378.44 769.761 1346.97 763.283 1340.53 771.343C1333.93 779.642 1347.12 783.434 1351.84 787.225C1355.45 790.151 1357.75 792.718 1360.26 796.599C1362.59 800.181 1361.3 805.495 1357.63 807.645C1342.76 816.332 1328.64 827.617 1312.46 833.736C1310.52 835.378 1308.55 836.99 1306.58 838.632C1340.05 850.365 1378.11 854.425 1411.07 853.917C1434.38 853.559 1459.37 851.41 1481.28 842.842C1496.06 837.05 1518.69 825.079 1520.03 807.077C1521.56 786.807 1493.94 775.672 1478.6 769.253Z" fill="#999698"/>
<path d="M1317.99 749.7C1298.25 750.744 1261.44 750.237 1252.55 772.269C1252.31 772.896 1252.16 773.493 1252.01 774.09C1251.03 775.791 1250.16 777.642 1249.5 779.672C1244.07 796.51 1254.76 811.048 1268.25 820.004C1279.77 827.676 1292.79 833.766 1306.55 838.603C1308.52 836.991 1310.49 835.379 1312.43 833.707C1328.61 827.587 1342.73 816.302 1357.6 807.615C1361.27 805.466 1362.56 800.152 1360.23 796.569C1357.72 792.688 1355.39 790.121 1351.81 787.195C1347.09 783.374 1333.9 779.583 1340.5 771.313C1346.91 763.253 1378.41 769.731 1386.59 771.015C1407.75 774.329 1435.79 782.09 1456.39 772.03C1460.15 770.209 1462.95 767.432 1464.3 764.119C1447.25 758.865 1429.49 756.237 1411.7 754.297C1380.74 750.953 1349.18 748.058 1317.99 749.7Z" fill="#A5A0A4"/>
<path d="M1325.18 856.067C1324.49 852.246 1325.87 847.35 1329.96 845.947C1294.34 837.259 1255.53 823.437 1242.96 788.21C1239.11 797.734 1248.64 824.9 1249.62 828.333C1257.83 856.306 1270.01 883.801 1280.31 910.549C1291.95 940.761 1313.78 982.227 1331.54 1009.87C1339.78 1015.1 1348.32 1019.69 1356.65 1023.54C1351.66 1009.78 1348.14 996.169 1346.35 985.451C1340.08 948.015 1332.02 893.413 1325.18 856.067Z" fill="#878286"/>
<path d="M1457.52 852.873C1422.59 864.605 1384.53 858.097 1348.67 850.216C1351.45 853.052 1353.42 856.963 1354.38 861.888C1358.08 880.815 1355.39 901.952 1357.72 921.267C1361.39 951.687 1368.86 998.587 1378.35 1032.08C1388.5 1035.31 1397.34 1036.89 1403.51 1036.38C1413.52 1035.57 1426.32 1032.89 1438.65 1029.04C1438.74 1017.42 1438.83 1005.78 1439.49 994.198C1440.44 977.003 1443.55 960.136 1444.23 942.88C1445.28 916.162 1446.09 884.219 1470.6 867.74C1476.54 863.739 1495.67 852.067 1490.06 838.991C1483.49 841.588 1463.91 849.499 1457.52 852.873Z" fill="#878286"/>
<path d="M1330.79 845.648C1330.49 845.708 1330.23 845.827 1329.96 845.947C1334.23 846.992 1338.43 847.977 1342.55 848.902C1344.58 849.35 1346.61 849.798 1348.64 850.246C1344.41 845.887 1338.23 844.185 1330.79 845.648Z" fill="#6D696D"/>
<path d="M1354.38 861.888C1353.42 856.962 1351.45 853.052 1348.67 850.216C1346.64 849.768 1344.58 849.32 1342.58 848.872C1338.46 847.947 1334.23 846.962 1329.99 845.917C1325.9 847.32 1324.52 852.216 1325.21 856.037C1332.05 893.383 1340.08 947.985 1346.38 985.421C1348.17 996.139 1351.69 1009.75 1356.68 1023.51C1364.23 1027.04 1371.6 1029.9 1378.38 1032.05C1368.92 998.557 1361.42 951.657 1357.75 921.237C1355.39 901.951 1358.08 880.785 1354.38 861.888Z" fill="#6D696D"/>
<path d="M1485.88 838.871C1473.97 853.261 1460.12 859.082 1441.28 859.172C1433.4 859.201 1425.34 858.843 1417.28 858.366C1417.07 858.067 1416.89 857.798 1416.68 857.5C1411.72 850.813 1402.95 852.365 1398.98 857.231C1395.96 857.052 1392.98 856.843 1389.99 856.724C1384.14 856.425 1368.38 863.769 1403.84 876.815C1418.08 902.847 1422.95 934.462 1422.41 964.016C1421.99 987.421 1421.04 1010.11 1423.9 1033.04C1436.09 1031.19 1444.06 1027.72 1451.73 1024.38C1451.58 1002.92 1447.01 982.317 1448.35 960.912C1449.43 943.627 1451.64 926.342 1455.31 909.415C1457.58 898.906 1460.65 889.204 1464.42 875.352C1478.69 868.934 1489.07 857.679 1492.72 842.722C1493.64 838.931 1488.54 835.647 1485.88 838.871Z" fill="#5B575B"/>
<path d="M1346.65 832.811C1340.38 836.125 1323.27 840.782 1323.27 840.782C1323.27 840.782 1327.42 832.303 1331.9 825.079C1324.4 825.975 1292.28 824.064 1289.74 823.019C1277.47 817.914 1263.71 812.123 1255.71 801.525C1245.59 788.15 1253.59 773.851 1259.59 767.94C1270.25 757.431 1300.61 754.327 1320.43 749.58C1300.49 749.58 1279.39 749.252 1260.55 758.387C1239.47 768.596 1234.9 799.017 1251.95 814.033C1261.86 822.78 1279.15 842.334 1315.18 851.081C1316.05 871.71 1320.91 892.637 1327.75 912.161C1329.48 920.52 1335.75 940.223 1339.6 947.179C1341.12 937.626 1335.72 861.799 1335.66 856.067C1347.69 860.784 1367.27 863.5 1371.93 864.396C1392.98 868.307 1416.5 864.485 1437.43 861.47C1465.07 857.5 1517.79 842.334 1520.03 807.077C1502.69 815.824 1483.82 843.797 1451.91 845.528C1432.35 846.573 1360.05 849.618 1346.65 832.811Z" fill="#BCB7BB"/>
<path d="M1421.28 912.042C1416.74 898.906 1412.86 887.741 1403.84 876.815C1412.92 898.458 1411.49 912.878 1415.81 936.163C1420.44 961.18 1417.37 1007.45 1423.76 1026.02C1425.25 1000.77 1427.79 965.957 1424.83 940.97C1423.46 929.297 1425.13 923.177 1421.28 912.042Z" fill="#BCB7BB"/>
<path d="M1160.84 886.129C1158.09 887.592 1142.93 897.026 1137.82 908.728C1134.48 916.43 1133.43 925.118 1133.61 933.178C1138.63 940.88 1160.99 933.476 1167.97 933.297C1171.11 933.238 1172.99 931.267 1172.99 928.58C1172.99 918.341 1168.21 908.638 1173.32 899.235C1176.81 892.816 1183.68 889.443 1183.65 880.457C1183.65 880.009 1183.26 878.517 1182.72 876.875C1175.05 877.591 1168 882.338 1160.84 886.129Z" fill="#A5A0A4"/>
<path d="M1233.02 884.219C1224.87 885.383 1216.81 888.428 1208.66 886.249C1210.63 890.219 1211.29 894.846 1209.8 898.279C1205.2 908.728 1212.01 912.072 1206.48 919.207C1204.42 922.729 1203.23 927.267 1204.81 929.267C1208.01 933.297 1221.59 936.522 1227.86 933.954C1234.69 931.178 1238.04 923.595 1242.61 917.833C1246.34 913.146 1249.08 908.519 1254.13 904.996C1255.47 904.041 1259.95 902.519 1264.91 900.877C1264.88 900.877 1264.82 900.847 1264.79 900.847C1269.24 898.041 1275.86 894.787 1278.1 889.712C1272.97 885.86 1247.8 882.099 1233.02 884.219Z" fill="#A5A0A4"/>
<path d="M1327.96 940.403C1333.12 952.971 1328.49 962.703 1318.16 970.107C1314.73 972.555 1313.33 977.51 1308.97 978.316C1302.55 979.51 1296.58 981.212 1291.98 989.123C1290.49 991.661 1286.13 990.377 1283.59 992.915C1279.8 996.706 1273.74 1000.53 1269 1002.86C1251.68 1011.27 1204.87 1028.77 1185.62 1015.13C1184.63 1014.44 1176.39 1005.01 1177.82 1004.92C1193.94 1004.11 1208.45 995.96 1220.04 985.809C1223.74 982.555 1229.23 976.376 1233.86 974.614C1251.44 967.957 1242.49 965.24 1244.84 958.255C1247.35 950.851 1255.35 949.956 1262.19 947.299C1267.47 945.239 1280.55 943.298 1281.92 937.387C1283.12 932.342 1285.98 926.013 1283.8 921.326C1282.52 918.55 1276.25 918.311 1273.35 917.475C1270.34 916.281 1267.29 915.565 1264.13 914.818C1261.98 914.311 1262.1 911.654 1263.56 910.519C1268.58 906.728 1274.31 905.265 1280.19 905.444C1275.21 903.802 1270.07 902.34 1264.91 900.966C1259.98 902.608 1255.5 904.161 1254.13 905.086C1249.08 908.609 1246.34 913.206 1242.61 917.923C1238.04 923.685 1235.29 932.163 1228.46 934.939C1222.19 937.477 1207.98 933.387 1204.81 929.327C1203.23 927.327 1204.45 922.789 1206.48 919.266C1212.01 912.131 1205.2 908.788 1209.8 898.339C1211.29 894.906 1210.66 890.279 1208.66 886.308C1208.27 886.219 1207.92 886.099 1207.53 885.98C1201.95 884.159 1197.41 880.278 1191.94 878.188C1188.75 876.964 1185.68 876.666 1182.72 876.934C1183.26 878.576 1183.65 880.039 1183.65 880.517C1183.68 889.503 1176.81 892.876 1173.32 899.295C1168.21 908.698 1172.99 918.43 1172.99 928.64C1172.99 931.327 1171.11 933.297 1167.97 933.357C1160.99 933.506 1138.63 940.94 1133.61 933.238C1133.82 942.462 1135.67 950.911 1137.61 956.165C1137.25 961.031 1136.87 965.927 1136.57 970.823C1135.79 983.511 1134.6 996.616 1138.87 1008.86C1145.91 1029.19 1165.43 1040.41 1183.41 1049.84C1185.59 1050.98 1188.18 1050.2 1189.23 1048.05C1190.12 1048.08 1191.11 1047.87 1192.12 1047.31C1197.77 1044.23 1205.74 1051.93 1213.95 1059.1C1242.49 1057.34 1273.56 1047.96 1299.45 1035.75C1309.66 1030.95 1336.23 1010.38 1336.23 1007.87C1336.23 1007.87 1336.46 983.66 1336.43 981.331C1336.26 962.822 1334.7 951.508 1327.96 940.403Z" fill="#999698"/>
<path d="M1317.96 927.655C1307.18 916.251 1294.13 910.012 1280.13 905.385C1274.22 905.235 1268.49 906.698 1263.5 910.46C1262.01 911.594 1261.89 914.251 1264.07 914.759C1267.23 915.505 1270.28 916.192 1273.3 917.416C1276.19 918.251 1282.46 918.49 1283.74 921.267C1285.92 925.954 1283.03 932.283 1281.86 937.328C1280.49 943.209 1267.41 945.179 1262.13 947.239C1255.29 949.896 1247.29 950.792 1244.79 958.195C1242.43 965.181 1251.38 967.868 1233.8 974.555C1229.17 976.316 1223.71 982.496 1219.98 985.75C1208.39 995.9 1193.89 1004.05 1177.76 1004.86C1176.33 1004.92 1184.6 1014.35 1185.56 1015.07C1204.81 1028.71 1251.65 1011.24 1268.94 1002.8C1273.68 1000.5 1279.74 996.676 1283.53 992.855C1286.07 990.317 1290.43 991.601 1291.92 989.064C1296.52 981.182 1302.49 979.451 1308.91 978.257C1313.27 977.451 1314.67 972.525 1318.1 970.047C1328.43 962.643 1333.06 952.941 1327.9 940.343C1325.42 936.223 1322.16 932.103 1317.96 927.655Z" fill="#A5A0A4"/>
<path d="M1179.65 1002.74C1158 983.809 1139.22 950.045 1139.37 931.894C1139.43 925.625 1137.13 917.654 1137.82 908.728C1132.78 919.625 1132.33 934.909 1132.12 940.283C1131.61 953.657 1132.84 967.479 1133.73 980.346C1134.66 993.75 1134.42 1008.8 1143.02 1019.87C1151.76 1031.13 1163.97 1042.47 1176.36 1049.52C1187.97 1056.14 1213.98 1059.01 1213.98 1059.01C1213.98 1059.01 1213.23 1041.43 1210.57 1035.52C1204.48 1021.93 1190.51 1012.23 1179.65 1002.74Z" fill="#878286"/>
<path d="M1345.06 974.346C1333.69 976.615 1315.93 980.436 1307.24 987.153C1300.34 983.451 1291.48 977.868 1288.31 975.391C1281.44 979.451 1275.09 982.884 1272.94 984.854C1270.52 987.093 1263.89 988.675 1261.05 990.347C1252.79 995.213 1244.07 999.303 1234.93 1002.35C1219.68 1007.39 1195.83 1015.36 1181.7 1004.56C1187.59 1016.95 1205.68 1038.56 1208.07 1056.5C1208.07 1056.56 1208.1 1056.59 1208.12 1056.65C1202.81 1054.5 1193.91 1049.81 1189.41 1044.11C1184.57 1037.99 1173.88 1028.32 1168.27 1025.96C1166.57 1025.25 1160.72 1023.66 1158.99 1021.6C1152 1013.42 1150.39 1015.24 1147.58 1013.36C1140.12 1008.32 1135.76 999.452 1134.36 990.287C1136.15 1009.21 1140.87 1017.99 1144.09 1022.02C1159.58 1041.4 1171.76 1049.67 1187.44 1054.2C1201.86 1058.35 1213.98 1060.02 1213.98 1060.02C1213.98 1060.02 1235.05 1058.83 1248.96 1054.77C1258.43 1052.02 1300.16 1037.49 1308.49 1033.19C1322.13 1026.14 1346.35 1015.63 1347.81 1013.24C1349.15 1006.08 1348.35 993.362 1347.78 988.317C1347.33 983.839 1346.38 979.122 1345.06 974.346Z" fill="#6D696D"/>
<path d="M1306.64 962.255C1302.52 966.673 1295.18 971.331 1288.34 975.361C1291.51 977.868 1300.37 983.421 1307.27 987.123C1315.96 980.406 1333.69 976.615 1345.09 974.316C1341.18 960.046 1333.33 941.895 1326.02 934.88C1323.21 947.328 1314.25 954.105 1306.64 962.255Z" fill="#5B575B"/>
<path d="M1271.62 973.898C1271.86 975.152 1273.44 980.167 1274.28 986.197C1276.4 1001.03 1280.79 1024.44 1281.18 1025.63C1281.74 1027.45 1289.12 1024.74 1289.89 1020.98C1290.76 1016.86 1286.43 986.944 1285.12 976.614C1282.1 975.659 1276.43 974.196 1271.62 973.898Z" fill="#5B575B"/>
<path d="M1348.08 972.047C1333.12 973.689 1316.7 979.063 1303.78 986.078C1287.92 994.646 1270.19 1010.26 1259.29 1021.45C1257.77 1023.04 1263.5 1025.37 1264.91 1025.69C1317.54 1037.96 1371.93 1036.26 1423.76 1021.04C1425.85 1020.41 1426.71 1017.66 1425.07 1016.11C1405.9 997.781 1377.1 968.883 1348.08 972.047Z" fill="#999698"/>
<path d="M1385.01 1030.5C1382.59 1027.99 1378.23 1029.19 1375.39 1029.43C1367.66 1030.08 1359.93 1030.56 1352.17 1030.71C1335.48 1031.01 1317.9 1031.96 1301.36 1029.48C1287.89 1027.45 1265.68 1023.25 1259.29 1021.48C1258.61 1029.78 1257.41 1037.19 1257.35 1045.49C1257.32 1048.65 1258.94 1058.35 1258.94 1058.35C1258.94 1058.35 1268.79 1063.07 1272.4 1064.41C1274.22 1065.1 1276.01 1065.76 1277.83 1066.38C1281 1062.92 1282.61 1061.97 1288.67 1062.56C1299.24 1063.64 1306.52 1067.34 1310.22 1055.79C1312.52 1048.59 1311.75 1039.31 1310.55 1032.05C1310.43 1031.4 1311.03 1030.89 1311.69 1031.19C1318.43 1034.56 1320.73 1031.43 1325.75 1035.84C1330.17 1039.75 1331.66 1043.7 1333.27 1049.13C1334.35 1052.77 1335.72 1058.89 1337.54 1062.35C1337.78 1062.8 1338.05 1063.22 1338.35 1063.61C1347.06 1067.7 1357.33 1060.95 1365 1069.04C1365.6 1068.98 1366.2 1068.95 1366.77 1068.92C1367.03 1068.89 1367.09 1069.37 1366.83 1069.4C1366.38 1069.49 1365.9 1069.55 1365.42 1069.64C1365.51 1069.82 1365.54 1070 1365.6 1070.18C1367.33 1069.82 1369.09 1069.49 1370.92 1069.1C1372.05 1068.86 1384.62 1057.55 1384.62 1056.44C1384.59 1048.2 1386.68 1047.31 1386.53 1039.04C1386.41 1036.65 1386.95 1032.47 1385.01 1030.5Z" fill="#878286"/>
<path d="M1260.82 897.085C1250.22 905.325 1246.43 912.072 1236.52 921.087C1232.78 924.491 1230.61 933.477 1223.74 932.014C1217.17 930.611 1205.68 926.969 1201.05 933.865C1210.51 936.462 1215.14 939.029 1224.54 940.134C1228.43 940.582 1236.96 938.581 1239.38 935.626C1245.23 928.491 1249.41 923.177 1257.65 918.162C1265.74 913.236 1278.64 916.341 1284.19 906.788C1283.77 905.952 1280.28 892.1 1278.07 889.741C1274.91 893.055 1263.68 894.876 1260.82 897.085Z" fill="#6D696D"/>
<path d="M1420.83 1016.35C1409.1 1018.65 1400.71 1020.98 1388.95 1023.22C1388.53 1023.31 1388.17 1023.36 1387.78 1023.45C1385.13 1021.81 1382.41 1020.26 1379.63 1018.74C1378.74 1018.23 1377.69 1018.56 1377.12 1019.39C1374.41 1023.57 1373.78 1028.71 1375.54 1033.22C1375.3 1033.84 1375.09 1034.53 1374.83 1035.28C1374.74 1035.52 1374.65 1035.75 1374.56 1035.99C1373.81 1036.56 1373.51 1037.49 1373.63 1038.35C1369.75 1047.81 1377.18 1062.23 1377.3 1060.86C1384.17 1062.29 1389.04 1068.71 1395.28 1067.22C1403.4 1065.28 1417.79 1059.37 1425.88 1055.87C1428.5 1044.47 1429.1 1026.14 1428.05 1017.16C1425.91 1016.77 1422.59 1016.02 1420.83 1016.35Z" fill="#6D696D"/>
<path d="M1407.19 1002.83C1397.48 1003.99 1384.41 1008.44 1374.56 1006.8C1368.68 1005.81 1361.66 1003.42 1355.63 1004.29C1352.82 1004.71 1351.21 1005.48 1349.18 1007.3C1348.32 1008.08 1348.5 1009.69 1347.9 1010.5C1344.58 1015.04 1341.03 1016.62 1335.84 1018.29C1319.84 1023.51 1299.8 1026.32 1283.15 1025.93C1282.43 1025.9 1335.9 1035.07 1352.26 1033.57C1362.11 1032.68 1371.69 1030.32 1375.39 1020.89C1389.28 1026.29 1403.69 1025.13 1416.92 1017.9C1417.99 1017.3 1418.74 1015.72 1418.29 1014.53C1415.64 1007.36 1411.25 1003.12 1407.19 1002.83Z" fill="#A5A0A4"/>
<path d="M1413.49 1011.81C1414.86 1013.66 1414.08 1017.13 1407.28 1018.08C1404.98 1018.41 1394.08 1021.66 1386.47 1017.13C1381.36 1014.08 1378.41 1014.56 1372.56 1012.86C1372.23 1017.87 1371.57 1025.13 1367.21 1027.93C1363.96 1030.02 1360.23 1030.14 1356.59 1029.34C1346.14 1029.66 1335.72 1029.78 1325.27 1029.01C1307.3 1027.69 1286.55 1025.78 1268.73 1023.39C1290.64 1029.22 1313.18 1034.29 1336.46 1035.63C1344.05 1036.08 1365.48 1032.77 1365.57 1040.08C1365.63 1044.92 1362.74 1056.62 1368.5 1064.83C1374.68 1064.95 1370.47 1048.17 1372.38 1040.44C1372.83 1039.46 1373.3 1038.47 1373.81 1037.49C1373.99 1037.16 1374.02 1036.86 1373.99 1036.56C1374.44 1036.26 1374.86 1035.93 1375.3 1035.63C1376.65 1035.13 1376.83 1033.31 1375.51 1032.71C1375.51 1032.68 1375.54 1032.68 1375.57 1032.65C1376.38 1032.68 1377.24 1032.14 1377.33 1031.1C1377.66 1027.87 1377.6 1024.98 1377.27 1022.05C1377.27 1022.02 1377.27 1022.02 1377.27 1021.99C1378.44 1022.95 1379.69 1023.72 1381.3 1024.5C1381.57 1024.62 1381.81 1024.68 1382.08 1024.68C1383.19 1025.42 1382.83 1026.2 1383.96 1026.92C1384.86 1027.45 1423.76 1020.98 1428.11 1017.1C1416.32 1005.18 1402.65 994.557 1388.89 985.004C1387.39 989.78 1404.2 999.363 1413.49 1011.81Z" fill="#BCB7BB"/>
<path d="M1311.87 921.953C1317.3 926.162 1323 936.94 1318.4 945.687C1312.49 956.941 1295.6 967.539 1293.12 969.39C1286.31 967.897 1283 966.524 1282.7 968.614C1282.64 969.032 1284.67 971.271 1284.97 971.808C1285.33 972.435 1283.77 973.54 1282.49 972.913C1278.97 971.211 1273.86 968.375 1271.06 966.673C1270.52 966.345 1265.59 963.36 1264.85 966.673C1263.32 973.361 1265.17 976.943 1260.52 982.227C1255.68 987.75 1248.76 991.75 1242.43 995.333C1236.01 998.945 1212.96 1009.87 1198.9 1008.14C1192.69 1007.36 1184.15 1003.03 1179.97 1000.05C1171.5 993.989 1159.26 978.824 1152.99 968.614C1146.39 957.867 1142.87 948.761 1140.33 937.865C1142.96 939.567 1165.88 940.164 1172.66 930.431C1164.06 933.357 1152.51 935.835 1145.67 929.715C1143.91 928.133 1143.34 925.894 1143.49 923.983C1144 917.744 1149.4 911.564 1152.15 907.534C1155.82 902.131 1159.2 895.414 1163.55 889.98C1169.29 886.935 1178.48 882.099 1181.91 876.994C1155.37 879.561 1144.42 899.653 1137.07 908.728C1132.09 925.088 1136.09 946.075 1143.7 962.464C1149.11 974.047 1157.02 983.988 1165.82 993.123C1168.84 996.258 1188.75 1020.41 1193.17 1024.83C1195.05 1027.31 1203.11 1042.17 1203.8 1042.59C1203.8 1037.58 1201.95 1024.83 1207.14 1015.72C1225.26 1009.72 1242.96 1001.96 1260.28 994.049C1264.64 992.049 1269.98 988.317 1274.19 984.526C1275.09 981.391 1272.7 975.391 1272.67 975.062C1276.43 976.764 1284.1 979.421 1285.39 978.854C1286.37 978.406 1327.18 954.493 1328.11 941.985C1328.7 934.85 1317.81 924.103 1311.87 921.953Z" fill="#BCB7BB"/>
<path d="M1225.08 885.711C1234.43 886.577 1250.46 884.278 1261.95 887.413C1266.58 888.667 1267.26 891.921 1261.68 894.667C1258.67 896.16 1255.65 900.399 1253.11 902.668C1249.14 906.221 1239.29 917.326 1239.02 917.595C1234.6 921.774 1232.78 925.297 1227.08 927.267C1226.07 927.625 1222.01 928.133 1220.75 928.252C1215.44 928.73 1209.89 928.372 1205.98 930.402C1211.68 930.79 1221.02 936.402 1230.16 933.566C1234.49 932.223 1238.84 928.282 1242.61 922.282C1245.02 918.43 1250.25 911.087 1253.47 907.653C1256.28 904.638 1268.97 897.324 1269.98 896.966C1272.46 896.041 1274.82 894.996 1277.24 893.712C1278.22 893.175 1278.91 890.488 1278.07 889.741C1265.77 878.815 1239.92 881.83 1225.08 885.711Z" fill="#BCB7BB"/>
<path d="M1375.15 1020.11C1375.27 1022.44 1374.53 1028.23 1374.2 1032.83C1371.04 1037.04 1369.18 1045.55 1368.74 1048.14C1367.69 1054.41 1367.6 1063.67 1369.51 1069.37C1369.51 1069.37 1376.71 1067.97 1381.66 1065.67C1385.25 1066.71 1389.57 1068.59 1393.63 1068.03C1392.32 1057.52 1387.28 1034.5 1384.35 1023.69C1383.9 1022.05 1375.07 1018.2 1375.15 1020.11Z" fill="#5B575B"/>
<path d="M1391.19 733.132C1389.42 744.983 1385.07 781.733 1384.56 794.898C1384.38 799.346 1384.5 804.421 1384.71 809.287C1388.8 809.735 1399.52 816.721 1406.53 820.064C1406.83 809.586 1407.13 799.137 1407.4 788.659C1407.78 774.09 1407.37 758.716 1409.75 744.297C1405.37 742.774 1402.35 739.311 1398.11 736.117C1395.46 734.147 1393.54 733.4 1391.19 733.132Z" fill="#878286"/>
<path d="M1366.02 729.519C1365.93 729.907 1363.75 741.878 1362.65 746.745C1360.41 756.387 1357.93 770.12 1355.84 781.404C1355.63 784.599 1355.45 787.793 1355.42 791.017C1355.36 794.062 1356.62 800.272 1355.75 804.809C1357.33 806.959 1358.38 810.034 1360.77 810.66C1363 811.258 1365.6 811.228 1368.29 810.989C1368.23 805.466 1366.56 798.003 1367.21 792.868C1367.9 787.554 1369.21 782.27 1370.05 776.986C1371.84 765.672 1376.62 745.879 1378.11 732.146C1374.56 731.34 1371.27 729.937 1367.54 727.847C1366.65 728.833 1366.02 729.519 1366.02 729.519Z" fill="#878286"/>
<path d="M1359.72 719.578C1357.33 728.265 1354.94 743.729 1353.78 757.611C1352.91 767.851 1354.08 778.807 1355.24 784.748C1357.42 772.956 1360.2 757.342 1362.65 746.744C1363.78 741.878 1365.96 729.907 1366.02 729.519C1366.02 729.519 1366.65 728.832 1367.51 727.847C1367.39 727.788 1367.27 727.728 1367.15 727.638C1369.72 726.235 1368.74 724.295 1368.83 720.802C1366.92 720.891 1363.69 720.384 1359.72 719.578Z" fill="#5B575B"/>
<path d="M1391.19 733.131C1389.93 732.982 1388.56 732.952 1386.86 732.982C1383.57 733.012 1380.77 732.743 1378.11 732.146C1376.62 745.908 1371.84 765.701 1370.05 776.986C1369.21 782.3 1367.9 787.554 1367.21 792.868C1366.56 798.002 1368.23 805.466 1368.29 810.989C1373.72 810.511 1379.63 809.018 1384.44 809.257C1384.5 809.257 1384.59 809.287 1384.68 809.287C1384.47 804.391 1384.38 799.316 1384.53 794.898C1385.04 781.732 1389.39 744.983 1391.19 733.131Z" fill="#6D696D"/>
<path d="M1433.16 742.565C1433.22 742.326 1421.4 744.685 1415.93 745.073C1413.49 745.252 1411.49 744.923 1409.73 744.297C1407.34 758.716 1407.75 774.12 1407.37 788.659C1407.1 799.137 1406.8 809.586 1406.5 820.064C1407.43 820.512 1408.29 820.9 1409.04 821.169C1415.79 823.706 1423.34 822.93 1423.34 822.93C1423.34 822.93 1427.04 829.856 1431.52 831.558C1431.82 831.677 1432.12 831.767 1432.44 831.856C1433.1 828.513 1432.41 824.333 1432.44 821.199C1432.5 815.437 1432.62 809.645 1432.89 803.884C1433.67 786.031 1435.64 768.09 1440.24 750.834C1438.68 750.775 1437.25 750.655 1436.15 750.327C1432.8 749.342 1432.26 746.356 1433.16 742.565Z" fill="#6D696D"/>
<path d="M1359.72 719.578C1352.41 718.085 1342.41 715.518 1332.67 713.219C1332.73 721.638 1332.29 729.997 1332.02 738.415C1331.87 743.073 1334.97 747.551 1335.54 752.178C1336.17 757.372 1334.91 766.746 1337.81 765.851C1343.57 764.089 1342.56 768.388 1342.85 775.314C1343.18 782.3 1343.39 791.823 1343.24 799.555C1346.62 800.66 1349.99 801.764 1353.33 802.839C1354.35 803.167 1355.09 803.914 1355.75 804.809C1356.62 800.272 1355.36 794.092 1355.42 791.017C1355.48 787.793 1355.63 784.599 1355.84 781.404C1355.63 782.539 1355.42 783.673 1355.21 784.748C1354.02 778.837 1352.88 767.851 1353.75 757.611C1354.91 743.729 1357.3 728.265 1359.72 719.578Z" fill="#6D696D"/>
<path d="M1337.78 765.851C1334.88 766.746 1336.17 757.372 1335.51 752.178C1334.94 747.551 1331.84 743.073 1331.99 738.416C1332.26 730.027 1332.7 721.638 1332.64 713.219C1329.18 712.413 1325.75 711.637 1322.49 710.95C1321.63 724.922 1322.05 740.326 1321.63 751.133C1321.12 765.104 1320.97 779.076 1321.12 793.077C1328.67 794.808 1335.99 797.167 1343.21 799.555C1343.36 791.793 1343.15 782.3 1342.82 775.314C1342.5 768.358 1343.54 764.06 1337.78 765.851Z" fill="#5B575B"/>
<path d="M1450.21 693.636C1444.18 689.725 1436.95 690.412 1430.5 687.695C1425.4 685.575 1422.26 681.068 1417.58 678.351C1410.41 674.171 1402.77 677.634 1395.96 680.739C1389.34 683.754 1382.05 687.426 1374.71 686.441C1370.89 689.665 1365.84 691.815 1361.6 693.964C1348.94 700.383 1335.87 705.935 1322.52 710.772C1322.52 710.831 1322.52 710.921 1322.52 711.01C1340.02 714.623 1362.2 721.131 1368.83 720.832C1368.74 724.325 1369.72 726.266 1367.15 727.669C1373.84 731.49 1379.01 733.102 1386.86 733.012C1391.72 732.953 1394.08 733.162 1398.08 736.147C1404.08 740.655 1407.52 745.73 1415.96 745.103C1421.43 744.715 1433.25 742.356 1433.19 742.595C1432.77 744.327 1432.68 745.849 1433.01 747.133C1435.73 741.491 1443.49 734.266 1445.64 734.386C1455.76 730.266 1463.07 719.996 1460.39 708.383C1459.01 702.443 1455.31 696.95 1450.21 693.636Z" fill="#999698"/>
<path d="M1570.6 681.843C1556.9 678.261 1543.02 675.276 1529.14 672.559C1500.69 667.036 1471.91 663.125 1443.01 660.916C1428.11 659.782 1413.16 659.006 1398.2 658.797C1391.81 658.707 1381.72 658.588 1378.8 665.782C1376.38 671.753 1381.96 677.634 1377.6 683.396C1376.77 684.5 1375.78 685.485 1374.71 686.381C1382.05 687.396 1389.34 683.724 1395.96 680.679C1402.77 677.574 1410.41 674.111 1417.58 678.291C1422.26 681.008 1425.4 685.485 1430.5 687.635C1436.95 690.322 1444.18 689.635 1450.21 693.576C1455.31 696.889 1459.01 702.382 1460.39 708.293C1463.04 719.906 1455.76 730.176 1445.64 734.296C1443.49 734.176 1435.73 741.401 1433.01 747.043C1433.37 748.595 1434.35 749.76 1436.17 750.297C1439.91 751.431 1446.98 750.357 1452.03 751.043C1472.24 744.655 1509.38 731.728 1529.2 724.205C1539.86 720.175 1550.45 715.787 1560.66 710.682C1566.96 707.547 1587.95 699.308 1585.47 689.784C1581.92 685.635 1576.72 683.455 1570.6 681.843Z" fill="#A5A0A4"/>
<path d="M1454.71 810.929C1451.55 812.093 1450.21 814.631 1449.25 817.706C1447.22 824.303 1444.38 829.199 1438.86 833.021C1444.32 833.23 1449.64 831.767 1456.36 831.588C1456.24 824.602 1456.06 817.616 1455.79 810.631C1455.43 810.72 1455.07 810.81 1454.71 810.929Z" fill="#6D696D"/>
<path d="M1596.28 743.998C1594.01 728.564 1592.88 712.264 1589.05 697.128C1588.28 694.113 1587.02 691.784 1585.41 689.814C1586.81 695.277 1580.52 700.323 1573.71 704.203C1573.71 704.203 1573.74 704.233 1573.74 704.263C1577.92 711.607 1581.77 719.1 1585.29 726.802C1585.35 726.534 1585.41 726.235 1585.47 725.967C1585.59 725.489 1586.31 725.608 1586.34 726.086C1586.37 727.071 1582.34 739.46 1583.62 754.954C1584.34 763.492 1582.64 772.448 1579.65 780.568C1579.35 781.434 1578.1 781.762 1577.59 780.837C1572.9 772.209 1568.48 763.641 1567.47 753.73C1566.84 747.58 1566.1 742.595 1562.45 737.43C1560.63 734.863 1558.22 732.743 1557.29 729.818C1556.66 727.788 1555.62 726.414 1553.47 727.489C1551.71 728.534 1551.68 726.116 1552.84 725.011C1554.51 723.459 1555.08 718.772 1556.07 716.443C1556.45 715.518 1556.25 714.294 1555.77 713.01C1547.05 717.13 1538.12 720.802 1529.11 724.205C1509.29 731.698 1472.15 744.625 1451.94 751.043C1448.41 750.566 1443.88 750.954 1440.21 750.834C1435.61 768.09 1433.64 786.031 1432.86 803.884C1432.62 809.645 1432.47 815.437 1432.41 821.199C1432.38 824.333 1433.07 828.513 1432.41 831.856C1434.65 832.603 1436.77 832.901 1438.86 832.991C1444.38 829.199 1447.22 824.274 1449.25 817.676C1450.21 814.631 1451.55 812.093 1454.71 810.899C1455.07 810.78 1455.43 810.66 1455.82 810.601C1458.65 809.974 1461.88 810.78 1464.36 812.153C1465.88 813.019 1467.07 814.153 1468.21 815.467C1471.16 818.84 1473.13 819.198 1477.55 818.78C1492.06 817.407 1506.48 814.72 1520.54 810.899C1527.47 809.018 1534.33 806.899 1541.08 804.451C1547.83 802.003 1554.9 799.077 1558.04 792.121C1558.66 790.748 1559.11 784.658 1560.57 789.763C1563.17 798.629 1568.31 798.689 1574.22 797.764C1576.16 797.465 1578.1 797.256 1580.04 797.077C1592.76 792.45 1602.22 788.927 1601.41 789.017C1600.1 777.434 1597.98 755.551 1596.28 743.998Z" fill="#878286"/>
<path d="M1579.98 706.054C1579.74 704.532 1579.62 701.905 1580.81 700.322C1581.38 699.576 1582.25 698.651 1582.58 698.322C1584.43 696.352 1586.37 693.098 1585.89 690.441C1585.62 688.889 1582.22 685.963 1579.86 684.739C1578.84 684.202 1575.14 682.739 1573.11 682.56C1577.92 686.232 1580.13 693.098 1577.23 696.889C1575.86 698.681 1568.34 703.726 1565.74 704.95C1542.15 715.876 1519.82 728.444 1495.23 736.624C1482.78 740.774 1470.48 745.55 1457.55 747.461C1453.01 748.148 1441.94 748.655 1438.8 744.744C1438.21 744.028 1436.86 741.848 1440.24 739.55C1443.67 737.191 1447.1 734.146 1451.07 731.758C1446.06 732.504 1419.49 746.058 1410.17 742.983C1409.04 742.386 1407.96 741.699 1406.89 740.923C1406.32 740.266 1405.72 739.639 1405.13 739.012C1401.61 735.221 1397.16 730.176 1390.02 729.519C1387.13 729.25 1378.08 729.758 1374.92 728.325C1372.83 727.37 1370.86 724.205 1373.12 720.563C1374.65 718.115 1376.14 715.398 1375.96 712.95C1375.78 710.294 1376.02 707.756 1369.96 706.771C1370.53 710.95 1373.24 716.264 1365.06 715.966C1359.48 715.787 1353.87 715.13 1348.26 714.592C1347.33 714.443 1342.53 712.98 1341.6 712.771C1335.66 711.279 1337.63 707.129 1339.9 705.816C1347.42 701.487 1355.33 699.188 1363.06 695.277C1364.95 694.322 1371.33 689.993 1377.24 687.635C1385.25 684.411 1385.57 681.933 1384.98 680.828C1383.39 677.903 1378.08 670.887 1378.74 665.842C1376.77 667.096 1376.95 671.275 1377.51 675.037C1377.93 677.634 1377.72 679.664 1376.62 681.993C1375.07 685.247 1368.89 689.695 1366.53 691.098C1357.51 696.382 1347.51 700.084 1337.78 704.024C1336.73 704.442 1326.05 708.95 1322.46 710.98C1331.48 712.712 1340.73 716.533 1349.78 718.205C1353.27 718.832 1358.88 720.056 1362.92 720.533C1366.02 720.921 1367.21 721.25 1368.68 721.28C1368.74 723.041 1366.5 726.086 1366.02 729.519C1367.48 732.385 1372.53 733.34 1376.2 733.579C1377.16 733.639 1381.66 733.46 1382.77 733.37C1386.05 733.101 1387.63 732.743 1391.1 733.49C1395.63 734.445 1399.81 739.968 1403.78 742.774C1405.99 745.073 1408.71 746.446 1411.73 747.043C1414.98 748.118 1429.31 747.73 1432.26 746.297C1432.41 750.446 1433.49 754.656 1434.03 758.089C1435.13 765.283 1433.73 770.985 1432.65 778.061C1430.83 790.091 1431.01 804.809 1432.47 816.482C1434.09 804.779 1433.55 791.793 1435.25 780.061C1435.94 775.284 1437.7 765.044 1439.4 760.477C1443.22 750.327 1463.16 748.983 1471.82 746.595C1484.33 743.132 1496.63 739.012 1508.75 734.385C1527.71 727.161 1561.65 710.264 1570.6 706.413C1572.01 705.816 1572.84 707.786 1573.02 708.293C1574.75 713.339 1579.17 721.041 1586.28 726.116C1586.28 726.116 1584.64 721.339 1583.92 719.22C1581.92 713.279 1580.9 711.935 1579.98 706.054Z" fill="#BCB7BB"/>
<path d="M1460.33 762.925C1459.4 764.477 1455.25 761.432 1452.06 764.209C1447.49 768.149 1449.52 773.225 1445.07 775.016C1440.56 776.837 1441.07 786.479 1440.95 791.256C1440.8 797.615 1440.18 798.57 1441.28 804.839C1442.3 810.661 1439.16 816.512 1440.21 816.512C1446.33 816.512 1447.34 808.242 1447.61 802.361C1447.82 797.286 1449.85 796.898 1454.59 794.51C1458.42 792.599 1456.48 788.33 1457.79 786.241C1458.68 784.808 1462.12 782.867 1462.98 781.434C1468.21 772.836 1468.98 766.448 1467.82 756.537C1465.37 756.029 1462.66 759.014 1460.33 762.925Z" fill="#6D696D"/>
<path d="M1454.09 696.859C1451.67 688.859 1453.73 681.127 1454.24 673.245C1453.49 673.395 1452.77 673.544 1452.09 673.693C1446.12 675.007 1440.71 675.275 1435.76 675.066C1437.31 684.769 1439.31 694.411 1441.16 704.054C1442.15 709.159 1443.28 714.264 1444.12 719.398C1444.18 719.816 1444.21 720.205 1444.27 720.593C1450.21 721.04 1457.28 721.697 1464.33 721.578C1463.31 718.234 1461.25 714.98 1459.88 711.905C1457.7 706.98 1455.61 701.964 1454.09 696.859Z" fill="#6D696D"/>
<path d="M1441.16 704.024C1439.31 694.381 1437.31 684.739 1435.76 675.036C1424.59 674.529 1415.93 671.424 1408.98 671.722C1398.95 672.17 1388.89 672.23 1378.86 672.469C1372.35 672.618 1360.02 670.648 1355.84 674.648C1354.59 675.842 1352.65 678.798 1350.85 682.38C1351.39 683.723 1352.11 685.007 1352.88 686.291C1353.75 686.261 1354.71 686.291 1355.78 686.142C1360.85 685.395 1362.68 681.544 1368.11 682.35C1376.8 683.604 1382.11 693.008 1389.1 697.396C1398.68 703.397 1410.14 706.203 1421.07 708.502C1423.91 709.099 1427.46 709.188 1429.13 711.905C1430.32 713.845 1430.77 716.801 1431.01 719.398C1435.55 719.876 1439.97 720.234 1444.21 720.562H1444.24C1444.18 720.174 1444.18 719.786 1444.09 719.368C1443.28 714.234 1442.15 709.129 1441.16 704.024Z" fill="#878286"/>
<path d="M1421.07 708.501C1410.11 706.202 1398.68 703.396 1389.1 697.396C1382.08 693.007 1376.8 683.604 1368.11 682.35C1362.65 681.574 1360.86 685.395 1355.78 686.141C1354.71 686.29 1353.78 686.29 1352.88 686.29C1353.93 687.992 1355.15 689.634 1356.62 691.216C1374.41 710.382 1404.65 716.651 1431.07 719.368C1430.8 716.741 1430.38 713.815 1429.19 711.875C1427.46 709.158 1423.91 709.068 1421.07 708.501Z" fill="#6D696D"/>
<path d="M1350.85 682.38C1351.45 681.156 1352.08 680.022 1352.67 679.007C1351.6 678.857 1350.55 678.619 1349.57 678.29C1349.9 679.693 1350.32 681.067 1350.85 682.38Z" fill="#A5A0A4"/>
<path d="M1457.88 627.749C1437.64 627.57 1415.1 629.092 1394.08 634.675C1391.57 637.093 1389.57 640.019 1387.22 642.705C1384.29 646.019 1379.39 648.318 1377.27 652.169C1369.63 666.14 1394.23 668.021 1401.9 671.723C1402.02 671.782 1402.05 671.902 1402.02 672.021C1404.35 671.962 1406.65 671.872 1408.98 671.782C1419.01 671.335 1432.59 677.992 1452.09 673.723C1456.89 672.678 1464.12 671.484 1468.27 669.066C1473.31 666.11 1470.27 659.214 1472.83 654.617C1476.21 648.586 1482.09 644.467 1487.97 640.944C1487.88 640.765 1487.79 640.556 1487.67 640.377C1481.34 629.301 1469.49 627.868 1457.88 627.749Z" fill="#A5A0A4"/>
<path d="M1355.84 674.649C1355 675.425 1353.87 677.007 1352.7 679.007C1353.24 679.097 1353.78 679.156 1354.32 679.186C1361.18 679.694 1368.35 677.962 1375.09 676.947C1383.45 675.693 1391.84 674.41 1400.2 673.156C1400.8 673.066 1401.01 672.618 1400.92 672.141C1401.19 672.171 1401.48 672.201 1401.75 672.201C1401.9 672.201 1401.99 672.081 1402.02 671.962C1394.29 672.201 1386.56 672.29 1378.86 672.439C1372.35 672.619 1360.02 670.648 1355.84 674.649Z" fill="#999698"/>
<path d="M1377.27 652.169C1379.39 648.318 1384.29 646.019 1387.21 642.706C1389.57 640.019 1391.57 637.093 1394.08 634.675C1384.83 637.123 1375.87 640.377 1367.54 644.616C1362.53 647.184 1352.64 653.871 1350.76 659.841C1348.67 666.469 1348.26 672.648 1349.6 678.291C1350.58 678.589 1351.63 678.828 1352.7 679.007C1353.9 677.007 1355.03 675.425 1355.84 674.649C1360.02 670.648 1372.35 672.619 1378.86 672.469C1386.59 672.29 1394.29 672.231 1402.02 671.992C1402.05 671.872 1402.02 671.753 1401.9 671.693C1394.23 668.021 1369.63 666.14 1377.27 652.169Z" fill="#999698"/>
<path d="M1467.88 628.376C1456.59 626.853 1444.62 625.957 1433.43 628.495C1436.5 628.883 1447.1 631.48 1456.98 629.988C1462.71 629.122 1464.74 630.585 1468.15 630.555C1470.06 630.555 1475.46 631.271 1477.73 633.003C1478.81 633.809 1481.88 636.943 1479.58 638.436C1474.95 641.421 1471.73 643.869 1470.06 648.616C1468.21 653.87 1464.39 658.707 1459.94 662.02C1450.53 669.006 1439.25 671.394 1428.14 669.424C1423.67 668.648 1414.26 669.722 1408.89 669.991C1407.1 669.961 1405.31 669.961 1403.52 670.081C1401.49 670.2 1399.46 670.349 1397.43 670.528C1395.96 670.588 1394.47 670.648 1393.01 670.737C1389.39 670.917 1379.54 669.573 1370.47 670.349C1362.41 671.006 1359.57 671.245 1356.68 669.573C1348.56 664.826 1356.41 652.407 1362.65 647.691C1362.47 647.661 1362.29 647.691 1362.08 647.75C1357.96 649.362 1352.41 653.572 1349.69 660.647C1347.3 666.886 1348.05 677.156 1351.33 683.216C1352.38 680.32 1355.06 677.604 1357.48 675.872C1358.71 675.006 1359.81 674.32 1361.3 674.141C1362.59 673.962 1368.38 674.738 1370.32 674.857C1381.07 675.484 1392.29 674.051 1403.04 673.573C1407.13 673.394 1411.22 672.917 1415.31 673.006C1419.52 673.096 1425.31 674.529 1429.79 675.215C1430.92 677.036 1433.19 682.261 1433.88 683.664C1438.53 693.575 1438.06 703.845 1443.07 713.756C1442.59 706.382 1441.64 697.158 1439.67 690.023C1438.59 686.112 1438.38 681.007 1437.25 675.932C1444.44 676.529 1453.88 677.007 1462.18 672.767C1464.3 671.215 1466.18 671.036 1467.16 674.23C1469.46 681.813 1471.31 685.873 1475.61 692.59C1478.27 696.74 1479.28 698.143 1482.98 706.084C1481.01 698.322 1477.43 690.381 1475.82 682.44C1474.45 675.633 1472.36 668.08 1471.67 661.154C1471.04 654.796 1475.88 650.437 1481.94 646.855C1485.04 645.004 1489.31 645.243 1487.94 640.974C1483.49 630.376 1473.07 629.062 1467.88 628.376Z" fill="#BCB7BB"/>
<path d="M1446.3 597.298C1446.3 597.298 1435.79 590.044 1431.82 588.313C1422.8 584.342 1404.11 579.148 1386.68 580.521C1378.83 589.536 1370.47 599.358 1364.8 609.956C1363.81 611.807 1363.42 616.733 1363.42 622.972C1381.39 628.465 1400.23 632.197 1417.13 640.466C1421.67 642.675 1425.13 646.407 1426.71 651.84C1428.23 657.184 1428.44 662.588 1427.61 667.961C1439.4 663.274 1441.43 659.841 1443.64 655.154C1445.07 652.079 1447.31 652.915 1447.61 652.139C1448.62 649.542 1447.4 647.541 1446.83 644.437C1446.44 642.257 1444.12 638.406 1447.91 640.317C1449.76 641.242 1452.44 645.631 1454.12 646.526C1454.8 646.885 1459.49 642.526 1461.97 640.377C1461.37 638.227 1460.39 635.421 1459.85 633.57C1456.98 623.569 1446.3 597.298 1446.3 597.298Z" fill="#878286"/>
<path d="M1429.64 586.402C1427.79 585.447 1424.71 584.312 1420.98 583.208C1420.92 583.357 1420.86 583.476 1420.74 583.566C1420.77 584.103 1420.23 584.641 1419.58 584.372C1418.83 584.073 1418.11 583.775 1417.37 583.476C1416.44 583.267 1415.55 582.939 1414.62 582.521C1414.32 582.402 1414.2 582.133 1414.2 581.864C1412.32 581.118 1410.38 580.521 1408.38 579.984C1404.89 579.237 1401.37 578.64 1398.11 578.192C1394.86 577.924 1391.63 577.924 1388.56 578.192C1388.17 578.222 1387.9 577.983 1387.81 577.715C1387.39 577.745 1386.98 577.804 1386.59 577.864C1380.59 582.491 1373.36 594.164 1368.86 600.284C1363 608.225 1363.09 615.3 1363.42 622.972C1380.11 631.272 1417.13 646.168 1425.64 648.945C1434.59 635.75 1443.46 612.942 1446.33 597.269C1441.01 591.179 1434.15 588.731 1429.64 586.402Z" fill="#999698"/>
<path d="M1404.11 589.417C1405.55 585.596 1398.05 577.685 1390.2 578.132C1384.59 582.192 1380.86 589.208 1378.08 595.208C1374.11 603.776 1371.51 614.434 1376.89 623.032C1381.63 630.644 1390.83 633.51 1398.98 635.899C1399.52 636.048 1400.14 635.57 1400.08 635.003C1399.69 629.39 1399.46 623.748 1399.61 618.136C1399.72 614.016 1401.01 612.225 1404.02 609.598C1405.13 608.642 1406.2 607.687 1407.04 606.463C1408.14 604.821 1408.65 601.358 1407.76 599.209C1406.56 596.343 1402.08 594.88 1404.11 589.417Z" fill="#A5A0A4"/>
<path d="M1454.09 646.527C1452.42 645.631 1449.73 641.273 1447.88 640.317C1444.09 638.407 1446.42 642.258 1446.8 644.437C1447.37 647.542 1448.56 649.512 1447.58 652.139C1447.28 652.915 1445.04 652.08 1443.61 655.154C1441.43 659.871 1439.37 663.275 1427.58 667.961C1428.41 662.588 1428.23 657.184 1426.68 651.841C1425.13 646.437 1421.67 642.676 1417.1 640.467C1415.49 639.69 1413.87 638.974 1412.23 638.257C1412.23 642.288 1411.87 646.258 1411.67 646.855C1410.65 649.542 1409.22 654.647 1410.86 660.319C1412.41 665.752 1412.59 671.395 1412.5 675.007C1434.44 673.783 1454.86 665.603 1462.39 643.183C1462.54 642.735 1462.33 641.631 1461.97 640.287C1459.46 642.526 1454.77 646.885 1454.09 646.527Z" fill="#6D696D"/>
<path d="M1372.8 636.078C1370.32 634.167 1368.68 628.883 1367.63 624.256C1366.2 623.838 1364.8 623.45 1363.39 623.002C1363.36 638.705 1365.63 662.976 1366.2 669.275C1373.36 671.335 1381.63 673.126 1390.26 674.2C1388.68 667.454 1385.99 659.005 1383.99 654.229C1381.21 647.661 1378.47 640.436 1372.8 636.078Z" fill="#6D696D"/>
<path d="M1411.67 646.914C1411.9 646.317 1412.23 642.317 1412.23 638.316C1397.99 632.167 1382.62 628.614 1367.63 624.285C1368.65 628.942 1370.32 634.227 1372.8 636.107C1378.47 640.466 1381.22 647.661 1383.99 654.258C1385.99 659.005 1388.68 667.483 1390.26 674.23C1397.54 675.126 1405.1 675.514 1412.5 675.096C1412.59 671.483 1412.41 665.811 1410.86 660.408C1409.22 654.676 1410.65 649.571 1411.67 646.914Z" fill="#5B575B"/>
<path d="M1438.5 613.718C1434.26 612.165 1431.22 612.912 1426.71 613.718C1429.94 613.957 1433.97 616.673 1436.59 618.166C1435.91 619.778 1433.4 630.674 1428.53 635.69C1425.13 639.212 1420.17 637.929 1414.44 635.809C1407.7 633.301 1395.54 632.018 1388.47 627.898C1382.47 624.405 1381.1 618.464 1379.51 612.195C1378.23 607.12 1381.57 600.164 1382.59 595.149C1385.51 591.507 1388.74 583.805 1391.22 579.864C1396.89 577.774 1408.83 581.625 1413.76 584.103C1419.64 587.029 1425.85 585.984 1432.95 588.044C1424.38 581.775 1413.43 579.715 1403.16 576.879C1400.41 576.132 1390.02 576.849 1386.23 577.506C1379.1 583.655 1372.8 593.567 1367.3 601.269C1362.53 607.956 1361.21 620.076 1363.39 623.032C1369.33 630.913 1380.44 634.376 1389.04 637.988C1392.5 639.421 1406.53 641.899 1412.74 645.183C1413.84 645.78 1416.17 648.198 1416.59 648.885C1417.37 650.139 1417.4 651.422 1419.01 652.646C1420.53 653.811 1422.32 653.214 1423.22 655.871C1424 658.11 1425.58 660.08 1427.97 660.528C1427.85 658.856 1429.4 654.915 1429.25 647.9C1429.13 643.004 1433.28 638.048 1435.16 632.555C1439.85 618.673 1445.79 605.717 1445.01 603C1439.64 608.135 1441.31 610.643 1438.5 613.718Z" fill="#BCB7BB"/>
<path d="M1427.85 573.864C1421.7 578.521 1414.83 581.088 1415.19 589.537C1415.4 594.582 1416.32 599.508 1416.98 604.523C1417.4 607.598 1420.26 615.151 1423.34 617.121C1423.58 617.27 1423.82 617.39 1424.05 617.509C1425.19 617.33 1426.2 617.181 1427.13 617.031C1428.74 616.793 1431.16 615.569 1433.94 613.718C1431.73 605.359 1434.83 595.597 1436.83 590.611C1438.53 586.402 1446.03 584.82 1446.21 579.984C1446.41 574.073 1447.61 567.744 1446.21 559.653C1440.32 564.848 1432.35 570.46 1427.85 573.864Z" fill="#6D696D"/>
<path d="M1453.46 550.638C1453.04 552.966 1450.09 556.22 1446.21 559.624C1447.58 567.714 1446.41 574.073 1446.21 579.954C1446.03 584.79 1438.53 586.372 1436.83 590.581C1434.8 595.567 1431.73 605.359 1433.94 613.688C1442.21 608.165 1453.79 597.119 1457.46 589.746C1461.97 580.64 1458.77 563.982 1455.34 554.429C1454.77 552.966 1454.15 551.742 1453.46 550.638Z" fill="#5B575B"/>
<path d="M1443.4 543.652C1435.64 541.652 1426.2 542.786 1418.02 544.458C1414.38 545.055 1410.77 545.921 1407.31 546.816C1396.17 549.682 1379.57 557.116 1369.21 562.131C1365.21 567.952 1367.57 583.924 1369.24 589.447C1369.93 591.716 1370.74 593.805 1371.6 595.746C1372.23 594.163 1372.98 592.581 1372.89 590.939C1371.42 586.551 1371.84 584.431 1373.69 586.163C1377.01 589.268 1376.32 592.104 1382.08 592.641C1384.8 592.91 1385.04 598.343 1385.57 599C1389.37 603.687 1389.6 599.836 1391.87 601.418C1397.99 605.687 1401.34 602.702 1408.05 603.657C1410.32 603.985 1413.87 607.508 1417.55 606.941C1417.25 605.985 1417.04 605.12 1416.98 604.463C1416.29 599.448 1415.4 594.522 1415.19 589.477C1414.83 581.028 1421.7 578.461 1427.85 573.804C1435.31 568.131 1452.39 556.429 1453.46 550.578C1450.21 545.562 1445.52 544.189 1443.4 543.652Z" fill="#878286"/>
<path d="M1417.55 607C1413.84 607.567 1410.29 604.044 1408.05 603.716C1401.34 602.731 1397.99 605.746 1391.87 601.477C1389.6 599.895 1389.37 603.746 1385.57 599.059C1385.04 598.402 1384.8 592.969 1382.08 592.7C1376.35 592.163 1377.01 589.327 1373.69 586.222C1371.87 584.491 1371.42 586.61 1372.89 590.999C1372.98 592.64 1372.23 594.193 1371.6 595.805C1383.39 622.046 1410.89 619.508 1424.05 617.568C1423.82 617.449 1423.58 617.329 1423.34 617.18C1420.89 615.568 1418.62 610.552 1417.55 607Z" fill="#6D696D"/>
<path d="M1451.07 547.204C1445.55 543.085 1436.26 541.652 1429.79 542.07C1409.72 543.383 1377.54 556.937 1369.21 562.161C1371.96 566.579 1375.33 570.46 1379.16 573.684C1378.98 572.998 1378.92 572.281 1379.04 571.505C1379.16 570.729 1379.84 570.012 1380.62 569.863C1383.57 566.579 1388.95 565.057 1392.68 563.176C1399.22 559.892 1406.08 557.265 1412.62 554.041C1413.52 553.593 1414.35 554.369 1414.38 555.265C1414.41 557.295 1413.93 558.19 1412.32 559.444C1411.34 560.191 1409.25 562.25 1411.19 567.594C1412.98 572.49 1412.08 579.207 1412.65 582.819C1421.96 580.58 1435.19 571.505 1445.01 559.235C1445.76 558.31 1449.94 556.101 1450.71 555.354C1453.76 552.369 1454.95 550.07 1451.07 547.204Z" fill="#999698"/>
<path d="M1412.62 553.981C1406.08 557.205 1399.25 559.832 1392.68 563.116C1388.95 564.997 1383.54 566.519 1380.62 569.803C1379.84 569.953 1379.16 570.699 1379.04 571.445C1378.92 572.221 1378.98 572.968 1379.16 573.625C1388.14 581.207 1399.63 585.058 1411.28 583.028C1411.73 582.939 1412.2 582.849 1412.65 582.73C1412.05 579.118 1412.98 572.401 1411.19 567.505C1409.25 562.161 1411.34 560.101 1412.32 559.355C1413.93 558.101 1414.41 557.205 1414.38 555.175C1414.35 554.309 1413.55 553.533 1412.62 553.981Z" fill="#A5A0A4"/>
<path d="M1440.86 560.34C1434.77 567.923 1424.47 574.7 1422.11 576.491C1415.93 581.208 1410.29 582.82 1405.37 581.596C1397.75 579.745 1392.41 580.611 1389.63 578.61C1386.44 576.312 1380.86 569.445 1379.36 568.132C1377.72 566.669 1373.57 563.684 1369.18 562.131C1371.51 565.714 1373.72 572.879 1387.13 580.491C1389.1 581.596 1392.53 584.014 1394.56 583.715C1395.69 583.865 1402.65 583.268 1405.25 583.894C1406.98 584.312 1409.25 584.671 1411.16 587.537C1413.76 591.477 1413.78 596.522 1414.08 598.463C1415.19 605.896 1415.61 612.285 1421.55 615.42C1418.83 611.359 1417.49 598.941 1416.8 590.193C1416.56 587.059 1417.25 582.73 1419.13 582.432C1428.41 580.969 1430.92 575.327 1434.74 570.908C1440.41 564.341 1442.47 567.863 1445.91 563.385C1447.01 561.922 1447.55 559.027 1448.68 558.28C1452.53 555.713 1454.06 554.131 1453.52 550.28C1451.25 554.847 1445.28 554.817 1440.86 560.34Z" fill="#BCB7BB"/>
<path d="M1441.1 582.64C1437.88 585.148 1434.86 592.94 1432.5 595.179C1427.07 600.284 1430.14 607.627 1433.46 611.538C1432.8 602.105 1434.41 599.836 1437.58 596.194C1440.92 592.343 1440.32 587.297 1443.97 583.984C1450.3 578.222 1449.25 570.997 1446.8 564.937C1446.98 571.923 1446.83 578.192 1441.1 582.64Z" fill="#878286"/>
<path d="M-14.4076 768.209C6.7883 762.895 28.3424 758.566 50.1055 756.566C71.152 754.625 92.4076 754.685 113.394 757.312C133.038 759.76 157.1 763.701 174.325 774.269C180.505 778.06 184.445 782.896 186.565 788.24C172.474 827.676 125.515 840.304 86.9743 848.902C49.3591 857.321 8.93771 865.292 -27.961 852.903C-34.3496 849.529 -53.9334 841.618 -60.5011 839.021C-66.1434 852.096 -46.9776 863.769 -41.0368 867.769C-16.5272 884.248 -15.7211 916.162 -14.6763 942.91C-13.9896 960.165 -10.8849 977.033 -9.92956 994.228C-9.27278 1005.81 -9.15337 1017.45 -9.09367 1029.07C-25.2443 1024.02 -40.6188 1016.92 -47.7537 1009.21C-72.4723 982.675 -82.4134 910.042 -85.5182 886.428C-89.4588 856.515 -93.8473 833.916 -90.1454 804.003C-88.0856 787.345 -33.3346 772.955 -14.4076 768.209Z" fill="#6D696D"/>
<path d="M-49.0377 769.253C-44.3508 767.283 -39.5742 765.641 -34.7679 764.148C-33.3946 767.462 -30.6183 770.238 -26.8567 772.06C-6.22811 782.12 21.7743 774.328 42.9403 771.045C51.1201 769.761 82.5855 763.283 89.0338 771.343C95.6314 779.642 82.4363 783.434 77.7194 787.225C74.1072 790.151 71.8085 792.718 69.3008 796.599C66.9722 800.181 68.2559 805.495 71.9279 807.645C86.7948 816.332 100.915 827.617 117.096 833.736C119.036 835.378 121.007 836.99 122.977 838.632C89.5115 850.365 51.4485 854.425 18.4904 853.917C-4.82499 853.559 -29.8122 851.41 -51.7246 842.842C-66.502 837.05 -89.1308 825.079 -90.4742 807.077C-91.9967 786.807 -64.3823 775.672 -49.0377 769.253Z" fill="#999698"/>
<path d="M111.573 749.7C131.306 750.744 168.115 750.237 177.012 772.269C177.25 772.896 177.4 773.493 177.549 774.09C178.534 775.791 179.4 777.642 180.057 779.672C185.49 796.51 174.802 811.048 161.309 820.004C149.785 827.676 136.769 833.766 123.007 838.603C121.037 836.991 119.066 835.379 117.126 833.707C100.945 827.587 86.8247 816.302 71.9577 807.615C68.2858 805.466 67.0021 800.152 69.3306 796.569C71.8383 792.688 74.1668 790.121 77.7492 787.195C82.4661 783.374 95.6612 779.583 89.0637 771.313C82.6452 763.253 51.1499 769.731 42.9701 771.015C21.8041 774.329 -6.22811 782.09 -26.8269 772.03C-30.5884 770.209 -33.3946 767.432 -34.738 764.119C-17.6918 758.865 0.0709285 756.237 17.8635 754.297C48.8214 750.953 80.3764 748.058 111.573 749.7Z" fill="#A5A0A4"/>
<path d="M104.379 856.067C105.065 852.246 103.692 847.35 99.6023 845.947C135.217 837.259 174.027 823.437 186.595 788.21C190.446 797.734 180.923 824.9 179.938 828.333C171.728 856.306 159.548 883.801 149.248 910.549C137.606 940.761 115.783 982.227 98.0201 1009.87C89.7806 1015.1 81.2425 1019.69 72.9134 1023.54C77.8989 1009.78 81.4216 996.169 83.2128 985.451C89.482 948.015 97.5424 893.413 104.379 856.067Z" fill="#878286"/>
<path d="M-27.9604 852.873C6.96795 864.605 45.0309 858.097 80.8848 850.216C78.1084 853.052 76.1381 856.963 75.1828 861.888C71.481 880.815 74.1678 901.952 71.8392 921.267C68.1673 951.687 60.7039 998.587 51.2106 1032.08C41.0604 1035.31 32.2238 1036.89 26.0442 1036.38C16.0434 1035.57 3.23629 1032.89 -9.09313 1029.04C-9.18269 1017.42 -9.27225 1005.78 -9.92902 994.198C-10.8843 977.003 -13.9891 960.136 -14.6757 942.88C-15.7206 916.162 -16.5266 884.219 -41.0362 867.74C-46.977 863.739 -66.113 852.067 -60.5006 838.991C-53.9328 841.588 -34.349 849.499 -27.9604 852.873Z" fill="#878286"/>
<path d="M98.7666 845.648C99.0652 845.708 99.3339 845.827 99.6025 845.947C95.3335 846.992 91.1242 847.977 87.0044 848.902C84.9744 849.35 82.9444 849.798 80.9144 850.246C85.1536 845.887 91.3332 844.185 98.7666 845.648Z" fill="#6D696D"/>
<path d="M75.1826 861.888C76.1379 856.962 78.1083 853.052 80.8846 850.216C82.9147 849.768 84.9745 849.32 86.9747 848.872C91.0945 847.947 95.3336 846.962 99.5728 845.917C103.663 847.32 105.036 852.216 104.349 856.037C97.5129 893.383 89.4824 947.985 83.1833 985.421C81.3921 996.139 77.8694 1009.75 72.8839 1023.51C65.331 1027.04 57.9573 1029.9 51.1806 1032.05C60.6441 998.557 68.1373 951.657 71.8092 921.237C74.1676 901.951 71.4808 880.785 75.1826 861.888Z" fill="#6D696D"/>
<path d="M-56.3214 838.871C-44.4099 853.261 -30.558 859.082 -11.7205 859.172C-3.83926 859.201 4.22114 858.843 12.2815 858.366C12.4905 858.067 12.6696 857.798 12.8786 857.5C17.8343 850.813 26.6111 852.365 30.5816 857.231C33.5968 857.052 36.5821 856.843 39.5675 856.724C45.4187 856.425 61.1813 863.769 25.7155 876.815C11.4755 902.847 6.6094 934.462 7.14676 964.016C7.56471 987.421 8.52001 1010.11 5.65409 1033.04C-6.52606 1031.19 -14.4969 1027.72 -22.1692 1024.38C-22.0199 1002.92 -17.4524 982.317 -18.7958 960.912C-19.8705 943.627 -22.0796 926.342 -25.7516 909.415C-28.0204 898.906 -31.0953 889.204 -34.8569 875.352C-49.1267 868.934 -59.5157 857.679 -63.1578 842.722C-64.0833 838.931 -58.9783 835.647 -56.3214 838.871Z" fill="#5B575B"/>
<path d="M82.914 832.811C89.1832 836.125 106.289 840.782 106.289 840.782C106.289 840.782 102.139 832.303 97.6615 825.079C105.155 825.975 137.277 824.064 139.814 823.019C152.084 817.914 165.846 812.123 173.847 801.525C183.967 788.15 175.967 773.851 169.966 767.94C159.309 757.431 128.948 754.327 109.125 749.58C129.067 749.58 150.173 749.252 169.011 758.387C190.087 768.596 194.655 799.017 177.609 814.033C167.697 822.78 150.412 842.334 114.379 851.081C113.514 871.71 108.648 892.637 101.811 912.161C100.08 920.52 93.8104 940.223 89.9593 947.179C88.4368 937.626 93.8403 861.799 93.9 856.067C81.8691 860.784 62.2853 863.5 57.6282 864.396C36.5816 868.307 13.0572 864.485 -7.86999 861.47C-35.5142 857.5 -88.2351 842.334 -90.4741 807.077C-73.1293 815.824 -54.262 843.797 -22.3488 845.528C-2.79492 846.573 69.5098 849.618 82.914 832.811Z" fill="#BCB7BB"/>
<path d="M8.28101 912.042C12.8187 898.906 16.6996 887.741 25.7153 876.815C16.6399 898.458 18.0729 912.878 13.7442 936.163C9.11691 961.18 12.1918 1007.45 5.80318 1026.02C4.31051 1000.77 1.77298 965.957 4.72845 940.97C6.10171 929.297 4.42993 923.177 8.28101 912.042Z" fill="#BCB7BB"/>
<path d="M268.721 886.129C271.468 887.592 286.633 897.026 291.738 908.728C295.082 916.43 296.127 925.118 295.948 933.178C290.932 940.88 268.572 933.476 261.586 933.297C258.452 933.238 256.571 931.267 256.571 928.58C256.571 918.341 261.348 908.638 256.243 899.235C252.75 892.816 245.884 889.443 245.913 880.457C245.913 880.009 246.301 878.517 246.839 876.875C254.511 877.591 261.557 882.338 268.721 886.129Z" fill="#A5A0A4"/>
<path d="M196.536 884.219C204.686 885.383 212.746 888.428 220.896 886.249C218.926 890.219 218.269 894.846 219.762 898.279C224.359 908.728 217.553 912.072 223.076 919.207C225.136 922.729 226.33 927.267 224.747 929.267C221.553 933.297 207.97 936.522 201.701 933.954C194.864 931.178 191.521 923.595 186.953 917.833C183.221 913.146 180.475 908.519 175.43 904.996C174.086 904.041 169.608 902.519 164.653 900.877C164.683 900.877 164.742 900.847 164.772 900.847C160.324 898.041 153.697 894.787 151.458 889.712C156.592 885.86 181.759 882.099 196.536 884.219Z" fill="#A5A0A4"/>
<path d="M101.603 940.403C96.4381 952.971 101.065 962.703 111.395 970.107C114.828 972.555 116.231 977.51 120.589 978.316C127.008 979.51 132.978 981.212 137.576 989.123C139.069 991.661 143.427 990.377 145.965 992.915C149.756 996.706 155.816 1000.53 160.563 1002.86C177.878 1011.27 224.688 1028.77 243.943 1015.13C244.928 1014.44 253.168 1005.01 251.735 1004.92C235.614 1004.11 221.105 995.96 209.522 985.809C205.821 982.555 200.328 976.376 195.7 974.614C178.117 967.957 187.073 965.24 184.714 958.255C182.207 950.851 174.206 949.956 167.37 947.299C162.085 945.239 149.01 943.298 147.636 937.387C146.442 932.342 143.576 926.013 145.756 921.326C147.039 918.55 153.309 918.311 156.204 917.475C159.22 916.281 162.265 915.565 165.429 914.818C167.578 914.311 167.459 911.654 165.996 910.519C160.981 906.728 155.249 905.265 149.368 905.444C154.353 903.802 159.488 902.34 164.653 900.966C169.579 902.608 174.057 904.161 175.43 905.086C180.475 908.609 183.222 913.206 186.953 917.923C191.521 923.685 194.267 932.163 201.104 934.939C207.373 937.477 221.583 933.387 224.748 929.327C226.33 927.327 225.106 922.789 223.076 919.266C217.553 912.131 224.36 908.788 219.762 898.339C218.269 894.906 218.896 890.279 220.897 886.308C221.285 886.219 221.643 886.099 222.031 885.98C227.614 884.159 232.151 880.278 237.614 878.188C240.809 876.964 243.884 876.666 246.839 876.934C246.302 878.576 245.914 880.039 245.914 880.517C245.884 889.503 252.75 892.876 256.243 899.295C261.348 908.698 256.571 918.43 256.571 928.64C256.571 931.327 258.452 933.297 261.587 933.357C268.572 933.506 290.932 940.94 295.948 933.238C295.739 942.462 293.888 950.911 291.947 956.165C292.306 961.031 292.694 965.927 292.992 970.823C293.768 983.511 294.963 996.616 290.694 1008.86C283.648 1029.19 264.124 1040.41 246.152 1049.84C243.973 1050.98 241.376 1050.2 240.331 1048.05C239.435 1048.08 238.45 1047.87 237.435 1047.31C231.793 1044.23 223.822 1051.93 215.612 1059.1C187.073 1057.34 155.995 1047.96 130.113 1035.75C119.903 1030.95 93.3333 1010.38 93.3333 1007.87C93.3333 1007.87 93.0945 983.66 93.1243 981.331C93.3034 962.822 94.8558 951.508 101.603 940.403Z" fill="#999698"/>
<path d="M111.603 927.655C122.38 916.251 135.426 910.012 149.428 905.385C155.339 905.235 161.07 906.698 166.056 910.46C167.549 911.594 167.668 914.251 165.489 914.759C162.324 915.505 159.279 916.192 156.264 917.416C153.368 918.251 147.099 918.49 145.815 921.267C143.636 925.954 146.532 932.283 147.696 937.328C149.069 943.209 162.145 945.179 167.429 947.239C174.266 949.896 182.266 950.792 184.774 958.195C187.132 965.181 178.176 967.868 195.76 974.555C200.387 976.316 205.85 982.496 209.582 985.75C221.165 995.9 235.674 1004.05 251.795 1004.86C253.228 1004.92 244.958 1014.35 244.003 1015.07C224.747 1028.71 177.908 1011.24 160.623 1002.8C155.876 1000.5 149.816 996.676 146.024 992.855C143.487 990.317 139.128 991.601 137.636 989.064C133.038 981.182 127.067 979.451 120.649 978.257C116.29 977.451 114.887 972.525 111.454 970.047C101.125 962.643 96.4976 952.941 101.662 940.343C104.14 936.223 107.394 932.103 111.603 927.655Z" fill="#A5A0A4"/>
<path d="M249.914 1002.74C271.557 983.809 290.335 950.045 290.186 931.894C290.126 925.625 292.425 917.654 291.738 908.728C296.783 919.625 297.231 934.909 297.44 940.283C297.948 953.657 296.724 967.479 295.828 980.346C294.902 993.75 295.141 1008.8 286.544 1019.87C277.797 1031.13 265.587 1042.47 253.197 1049.52C241.584 1056.14 215.582 1059.01 215.582 1059.01C215.582 1059.01 216.329 1041.43 218.985 1035.52C225.076 1021.93 239.047 1012.23 249.914 1002.74Z" fill="#878286"/>
<path d="M84.497 974.346C95.8711 976.615 113.634 980.436 122.321 987.153C129.217 983.451 138.084 977.868 141.248 975.391C148.114 979.451 154.473 982.884 156.623 984.854C159.041 987.093 165.668 988.675 168.504 990.347C176.774 995.213 185.491 999.303 194.626 1002.35C209.881 1007.39 233.734 1015.36 247.854 1004.56C241.973 1016.95 223.882 1038.56 221.494 1056.5C221.494 1056.56 221.464 1056.59 221.434 1056.65C226.748 1054.5 235.644 1049.81 240.152 1044.11C244.988 1037.99 255.676 1028.32 261.288 1025.96C262.99 1025.25 268.841 1023.66 270.573 1021.6C277.558 1013.42 279.17 1015.24 281.977 1013.36C289.44 1008.32 293.799 999.452 295.202 990.287C293.41 1009.21 288.694 1017.99 285.469 1022.02C269.976 1041.4 257.795 1049.67 242.122 1054.2C227.703 1058.35 215.583 1060.02 215.583 1060.02C215.583 1060.02 194.506 1058.83 180.595 1054.77C171.131 1052.02 129.396 1037.49 121.067 1033.19C107.424 1026.14 83.2133 1015.63 81.7505 1013.24C80.4071 1006.08 81.2131 993.362 81.7803 988.317C82.2281 983.839 83.1834 979.122 84.497 974.346Z" fill="#6D696D"/>
<path d="M122.918 962.255C127.038 966.673 134.382 971.331 141.218 975.361C138.054 977.868 129.187 983.421 122.291 987.123C113.604 980.406 95.8711 976.615 84.4671 974.316C88.3779 960.046 96.2293 941.895 103.543 934.88C106.35 947.328 115.306 954.105 122.918 962.255Z" fill="#5B575B"/>
<path d="M157.936 973.898C157.697 975.152 156.115 980.167 155.279 986.197C153.16 1001.03 148.771 1024.44 148.383 1025.63C147.816 1027.45 140.442 1024.74 139.666 1020.98C138.8 1016.86 143.129 986.944 144.442 976.614C147.458 975.659 153.13 974.196 157.936 973.898Z" fill="#5B575B"/>
<path d="M81.4812 972.047C96.4377 973.689 112.857 979.063 125.784 986.078C141.636 994.646 159.368 1010.26 170.265 1021.45C171.787 1023.04 166.056 1025.37 164.653 1025.69C112.021 1037.96 57.6284 1036.26 5.80303 1021.04C3.7133 1020.41 2.84755 1017.66 4.48948 1016.11C23.6553 997.781 52.4638 968.883 81.4812 972.047Z" fill="#999698"/>
<path d="M44.5529 1030.5C46.971 1027.99 51.3296 1029.19 54.1656 1029.43C61.8976 1030.08 69.6297 1030.56 77.3915 1030.71C94.0795 1031.01 111.663 1031.96 128.202 1029.48C141.666 1027.45 163.877 1023.25 170.265 1021.48C170.952 1029.78 172.146 1037.19 172.206 1045.49C172.235 1048.65 170.623 1058.35 170.623 1058.35C170.623 1058.35 160.772 1063.07 157.16 1064.41C155.339 1065.1 153.547 1065.76 151.726 1066.38C148.562 1062.92 146.95 1061.97 140.89 1062.56C130.321 1063.64 123.037 1067.34 119.335 1055.79C117.037 1048.59 117.813 1039.31 119.007 1032.05C119.126 1031.4 118.529 1030.89 117.873 1031.19C111.126 1034.56 108.827 1031.43 103.812 1035.84C99.3934 1039.75 97.9007 1043.7 96.2887 1049.13C95.2139 1052.77 93.8407 1058.89 92.0196 1062.35C91.7808 1062.8 91.5121 1063.22 91.2136 1063.61C82.4964 1067.7 72.2269 1060.95 64.5546 1069.04C63.9575 1068.98 63.3605 1068.95 62.7933 1068.92C62.5246 1068.89 62.4649 1069.37 62.7335 1069.4C63.1813 1069.49 63.659 1069.55 64.1366 1069.64C64.0471 1069.82 64.0172 1070 63.9575 1070.18C62.226 1069.82 60.4647 1069.49 58.6436 1069.1C57.5092 1068.86 44.941 1057.55 44.941 1056.44C44.9708 1048.2 42.8811 1047.31 43.0303 1039.04C43.1498 1036.65 42.6124 1032.47 44.5529 1030.5Z" fill="#878286"/>
<path d="M168.742 897.085C179.34 905.325 183.132 912.072 193.043 921.087C196.775 924.491 198.954 933.477 205.82 932.014C212.388 930.611 223.882 926.969 228.509 933.865C219.045 936.462 214.418 939.029 205.014 940.134C201.133 940.582 192.595 938.581 190.177 935.626C184.326 928.491 180.146 923.177 171.907 918.162C163.817 913.236 150.92 916.341 145.367 906.788C145.785 905.952 149.278 892.1 151.487 889.741C154.652 893.055 165.877 894.876 168.742 897.085Z" fill="#6D696D"/>
<path d="M8.72891 1016.35C20.4613 1018.65 28.85 1020.98 40.6123 1023.22C41.0302 1023.31 41.3884 1023.36 41.7765 1023.45C44.4335 1021.81 47.1501 1020.26 49.9265 1018.74C50.8221 1018.23 51.8669 1018.56 52.4342 1019.39C55.1508 1023.57 55.7777 1028.71 54.0164 1033.22C54.2552 1033.84 54.4642 1034.53 54.7329 1035.28C54.8224 1035.52 54.912 1035.75 55.0015 1035.99C55.7479 1036.56 56.0464 1037.49 55.927 1038.35C59.8079 1047.81 52.3744 1062.23 52.255 1060.86C45.3888 1062.29 40.5227 1068.71 34.2833 1067.22C26.1632 1065.28 11.7739 1059.37 3.68369 1055.87C1.0566 1044.47 0.459523 1026.14 1.50439 1017.16C3.65383 1016.77 6.96756 1016.02 8.72891 1016.35Z" fill="#6D696D"/>
<path d="M22.3718 1002.83C32.0741 1003.99 45.1499 1008.44 55.0015 1006.8C60.8826 1005.81 67.8981 1003.42 73.9284 1004.29C76.7347 1004.71 78.3467 1005.48 80.3768 1007.3C81.2425 1008.08 81.0634 1009.69 81.6605 1010.5C84.9742 1015.04 88.5267 1016.62 93.7212 1018.29C109.723 1023.51 129.754 1026.32 146.412 1025.93C147.129 1025.9 93.6615 1035.07 77.3019 1033.57C67.4503 1032.68 57.8673 1030.32 54.1655 1020.89C40.2837 1026.29 25.8646 1025.13 12.6396 1017.9C11.5649 1017.3 10.8185 1015.72 11.2663 1014.53C13.9233 1007.36 18.3117 1003.12 22.3718 1002.83Z" fill="#A5A0A4"/>
<path d="M16.0728 1011.81C14.6996 1013.66 15.4758 1017.13 22.2823 1018.08C24.581 1018.41 35.4775 1021.66 43.0901 1017.13C48.195 1014.08 51.1505 1014.56 57.0017 1012.86C57.3301 1017.87 57.9869 1025.13 62.3455 1027.93C65.5995 1030.02 69.3311 1030.14 72.9732 1029.34C83.4219 1029.66 93.8407 1029.78 104.289 1029.01C122.261 1027.69 143.009 1025.78 160.832 1023.39C138.919 1029.22 116.38 1034.29 93.0944 1035.63C85.5116 1036.08 64.0769 1032.77 63.9874 1040.08C63.9277 1044.92 66.8235 1056.62 61.0618 1064.83C54.8821 1064.95 59.0914 1048.17 57.1808 1040.44C56.733 1039.46 56.2554 1038.47 55.7479 1037.49C55.5688 1037.16 55.5389 1036.86 55.5688 1036.56C55.121 1036.26 54.703 1035.93 54.2552 1035.63C52.9118 1035.13 52.7327 1033.31 54.0463 1032.71C54.0463 1032.68 54.0164 1032.68 53.9865 1032.65C53.1805 1032.68 52.3148 1032.14 52.2252 1031.1C51.8968 1027.87 51.9565 1024.98 52.2849 1022.05C52.2849 1022.02 52.2849 1022.02 52.2849 1021.99C51.1206 1022.95 49.8668 1023.72 48.2547 1024.5C47.986 1024.62 47.7472 1024.68 47.4785 1024.68C46.3739 1025.42 46.7322 1026.2 45.5978 1026.92C44.7022 1027.45 5.80329 1020.98 1.44471 1017.1C13.2368 1005.18 26.9096 994.557 40.672 985.004C42.1646 989.78 25.3572 999.363 16.0728 1011.81Z" fill="#BCB7BB"/>
<path d="M117.694 921.953C112.26 926.162 106.558 936.94 111.156 945.687C117.067 956.941 133.964 967.539 136.442 969.39C143.248 967.897 146.562 966.524 146.86 968.614C146.92 969.032 144.89 971.271 144.592 971.808C144.233 972.435 145.786 973.54 147.069 972.913C150.592 971.211 155.697 968.375 158.503 966.673C159.041 966.345 163.966 963.36 164.713 966.673C166.235 973.361 164.384 976.943 169.041 982.227C173.878 987.75 180.804 991.75 187.133 995.333C193.551 998.945 216.598 1009.87 230.659 1008.14C236.868 1007.36 245.406 1003.03 249.586 1000.05C258.064 993.989 270.304 978.824 276.573 968.614C283.171 957.867 286.693 948.761 289.231 937.865C286.604 939.567 263.676 940.164 256.9 930.431C265.498 933.357 277.051 935.835 283.887 929.715C285.649 928.133 286.216 925.894 286.066 923.983C285.559 917.744 280.156 911.564 277.409 907.534C273.737 902.131 270.364 895.414 266.005 889.98C260.273 886.935 251.078 882.099 247.645 876.994C274.185 879.561 285.141 899.653 292.485 908.728C297.47 925.088 293.47 946.075 285.857 962.464C280.454 974.047 272.543 983.988 263.736 993.123C260.721 996.258 240.809 1020.41 236.391 1024.83C234.51 1027.31 226.449 1042.17 225.763 1042.59C225.763 1037.58 227.614 1024.83 222.419 1015.72C204.298 1009.72 186.595 1001.96 169.28 994.049C164.922 992.049 159.578 988.317 155.369 984.526C154.473 981.391 156.861 975.391 156.891 975.062C153.13 976.764 145.457 979.421 144.174 978.854C143.188 978.406 102.379 954.493 101.454 941.985C100.857 934.85 111.753 924.103 117.694 921.953Z" fill="#BCB7BB"/>
<path d="M204.477 885.711C195.133 886.577 179.102 884.278 167.609 887.413C162.981 888.667 162.295 891.921 167.877 894.667C170.892 896.16 173.908 900.399 176.445 902.668C180.416 906.221 190.267 917.326 190.536 917.595C194.954 921.774 196.775 925.297 202.477 927.267C203.492 927.625 207.552 928.133 208.806 928.252C214.12 928.73 219.673 928.372 223.583 930.402C217.882 930.79 208.537 936.402 199.402 933.566C195.074 932.223 190.715 928.282 186.953 922.282C184.535 918.43 179.311 911.087 176.087 907.653C173.281 904.638 160.593 897.324 159.578 896.966C157.1 896.041 154.742 894.996 152.324 893.712C151.338 893.175 150.652 890.488 151.488 889.741C163.787 878.815 189.64 881.83 204.477 885.711Z" fill="#BCB7BB"/>
<path d="M54.4048 1020.11C54.2853 1022.44 55.0317 1028.23 55.3601 1032.83C58.5245 1037.04 60.3754 1045.55 60.8232 1048.14C61.8681 1054.41 61.9576 1063.67 60.047 1069.37C60.047 1069.37 52.8524 1067.97 47.8967 1065.67C44.3143 1066.71 39.9856 1068.59 35.9256 1068.03C37.2391 1057.52 42.2843 1034.5 45.2099 1023.69C45.6577 1022.05 54.4943 1018.2 54.4048 1020.11Z" fill="#5B575B"/>
<path d="M38.3726 733.132C40.1339 744.983 44.4925 781.733 45 794.898C45.1791 799.346 45.0597 804.421 44.8508 809.287C40.7609 809.735 30.0435 816.721 23.028 820.064C22.7295 809.586 22.4309 799.137 22.1622 788.659C21.7742 774.09 22.1921 758.716 19.8038 744.297C24.1923 742.774 27.2075 739.311 31.4466 736.117C34.1036 734.147 36.0142 733.4 38.3726 733.132Z" fill="#878286"/>
<path d="M63.5392 729.519C63.6287 729.907 65.808 741.878 66.9126 746.745C69.1516 756.387 71.6294 770.12 73.7191 781.404C73.9281 784.599 74.1072 787.793 74.1371 791.017C74.1968 794.062 72.9429 800.272 73.8087 804.809C72.2265 806.959 71.1816 810.034 68.7933 810.66C66.5543 811.258 63.9571 811.228 61.2703 810.989C61.33 805.466 63.0018 798.003 62.345 792.868C61.6584 787.554 60.3448 782.27 59.509 776.986C57.7178 765.672 52.9412 745.879 51.4486 732.146C55.0011 731.34 58.285 729.937 62.0166 727.847C62.9122 728.833 63.5392 729.519 63.5392 729.519Z" fill="#878286"/>
<path d="M69.8381 719.578C72.2264 728.265 74.6147 743.729 75.7789 757.611C76.6447 767.851 75.4804 778.807 74.3161 784.748C72.1368 772.956 69.3605 757.342 66.9125 746.744C65.7781 741.878 63.5988 729.907 63.5391 729.519C63.5391 729.519 62.9122 728.832 62.0464 727.847C62.1658 727.788 62.2852 727.728 62.4047 727.638C59.8373 726.235 60.8224 724.295 60.7329 720.802C62.6435 720.891 65.8676 720.384 69.8381 719.578Z" fill="#5B575B"/>
<path d="M38.3727 733.131C39.6266 732.982 40.9998 732.952 42.7014 732.982C45.9853 733.012 48.7915 732.743 51.4485 732.146C52.9411 745.908 57.7177 765.701 59.5089 776.986C60.3447 782.3 61.6583 787.554 62.3449 792.868C63.0017 798.002 61.3299 805.466 61.2702 810.989C55.8369 810.511 49.9259 809.018 45.1196 809.257C45.0598 809.257 44.9703 809.287 44.8807 809.287C45.0897 804.391 45.1793 799.316 45.03 794.898C44.5225 781.732 40.1639 744.983 38.3727 733.131Z" fill="#6D696D"/>
<path d="M-3.60139 742.565C-3.6611 742.326 8.16082 744.685 13.624 745.073C16.072 745.252 18.0721 744.923 19.8335 744.297C22.2217 758.716 21.8038 774.12 22.1919 788.659C22.4605 799.137 22.7591 809.586 23.0576 820.064C22.1322 820.512 21.2664 820.9 20.5201 821.169C13.7732 823.706 6.22035 822.93 6.22035 822.93C6.22035 822.93 2.51854 829.856 -1.95945 831.558C-2.25799 831.677 -2.55651 831.767 -2.8849 831.856C-3.54167 828.513 -2.85505 824.333 -2.8849 821.199C-2.9446 815.437 -3.06402 809.645 -3.3327 803.884C-4.10889 786.031 -6.07921 768.09 -10.6766 750.834C-9.12424 750.775 -7.6913 750.655 -6.58673 750.327C-3.24315 749.342 -2.70579 746.356 -3.60139 742.565Z" fill="#6D696D"/>
<path d="M69.8378 719.578C77.1518 718.085 87.1527 715.518 96.8849 713.219C96.8252 721.638 97.273 729.997 97.5417 738.415C97.6909 743.073 94.5862 747.551 94.019 752.178C93.3921 757.372 94.6459 766.746 91.7501 765.851C85.9884 764.089 87.0034 768.388 86.7049 775.314C86.3765 782.3 86.1675 791.823 86.3168 799.555C82.9434 800.66 79.57 801.764 76.2264 802.839C75.2114 803.167 74.465 803.914 73.8083 804.809C72.9425 800.272 74.1964 794.092 74.1367 791.017C74.077 787.793 73.9277 784.599 73.7187 781.404C73.9277 782.539 74.1367 783.673 74.3456 784.748C75.5398 778.837 76.6742 767.851 75.8084 757.611C74.6442 743.729 72.2559 728.265 69.8378 719.578Z" fill="#6D696D"/>
<path d="M91.78 765.851C94.6757 766.746 93.392 757.372 94.0488 752.178C94.616 747.551 97.7207 743.073 97.5715 738.416C97.3028 730.027 96.855 721.638 96.9147 713.219C100.378 712.413 103.811 711.637 107.065 710.95C107.931 724.922 107.513 740.326 107.931 751.133C108.438 765.104 108.587 779.076 108.438 793.077C100.885 794.808 93.5712 797.167 86.3467 799.555C86.1974 791.793 86.4064 782.3 86.7347 775.314C87.0631 768.358 86.0183 764.06 91.78 765.851Z" fill="#5B575B"/>
<path d="M-20.6475 693.636C-14.6171 689.725 -7.39261 690.412 -0.944294 687.695C4.16062 685.575 7.29523 681.068 11.9822 678.351C19.147 674.171 26.7894 677.634 33.596 680.739C40.2234 683.754 47.5076 687.426 54.8516 686.441C58.6728 689.665 63.718 691.815 67.9572 693.964C80.615 700.383 93.6907 705.935 107.035 710.772C107.035 710.831 107.035 710.921 107.035 711.01C89.5411 714.623 67.3601 721.131 60.7327 720.832C60.8222 724.325 59.8371 726.266 62.4044 727.669C55.7173 731.49 50.5527 733.102 42.7013 733.012C37.8352 732.953 35.4767 733.162 31.4764 736.147C25.4759 740.655 22.0428 745.73 13.5943 745.103C8.13112 744.715 -3.69078 742.356 -3.63107 742.595C-3.21313 744.327 -3.12357 745.849 -3.45196 747.133C-6.16861 741.491 -13.9305 734.266 -16.0799 734.386C-26.2002 730.266 -33.5142 719.996 -30.8274 708.383C-29.4542 702.443 -25.7524 696.95 -20.6475 693.636Z" fill="#999698"/>
<path d="M-141.046 681.843C-127.343 678.261 -113.461 675.276 -99.5796 672.559C-71.1294 667.036 -42.3508 663.125 -13.4528 660.916C1.44399 659.782 16.4005 659.006 31.357 658.797C37.7456 658.707 47.836 658.588 50.7617 665.782C53.1798 671.753 47.5972 677.634 51.9558 683.396C52.7917 684.5 53.7768 685.485 54.8516 686.381C47.5076 687.396 40.2234 683.724 33.596 680.679C26.7894 677.574 19.147 674.111 11.9822 678.291C7.29523 681.008 4.16063 685.485 -0.944291 687.635C-7.39261 690.322 -14.6171 689.635 -20.6475 693.576C-25.7524 696.889 -29.4542 702.382 -30.8274 708.293C-33.4844 719.906 -26.2002 730.176 -16.0799 734.296C-13.9305 734.176 -6.16861 741.401 -3.45196 747.043C-3.8102 748.595 -4.79535 749.76 -6.6164 750.297C-10.3481 751.431 -17.4233 750.357 -22.4685 751.043C-42.6792 744.655 -79.8167 731.728 -99.6393 724.205C-110.297 720.175 -120.895 715.787 -131.105 710.682C-137.404 707.547 -158.391 699.308 -155.913 689.784C-152.36 685.635 -147.166 683.455 -141.046 681.843Z" fill="#A5A0A4"/>
<path d="M-150.42 706.054C-150.181 704.532 -150.062 701.905 -151.256 700.322C-151.823 699.576 -152.689 698.651 -153.017 698.322C-154.868 696.352 -156.809 693.098 -156.331 690.441C-156.062 688.889 -152.659 685.963 -150.301 684.739C-149.286 684.202 -145.584 682.739 -143.554 682.56C-148.36 686.232 -150.569 693.098 -147.673 696.889C-146.3 698.681 -138.777 703.726 -136.18 704.95C-112.596 715.876 -90.2655 728.444 -65.6664 736.624C-53.2176 740.774 -40.918 745.55 -27.9915 747.461C-23.4538 748.148 -12.3782 748.655 -9.24365 744.744C-8.64658 744.028 -7.30317 741.848 -10.6766 739.55C-14.1097 737.191 -17.5429 734.146 -21.5134 731.758C-16.498 732.504 10.0715 746.058 19.3857 742.983C20.5201 742.386 21.5948 741.699 22.6696 740.923C23.2368 740.266 23.8338 739.639 24.4309 739.012C27.9536 735.221 32.4017 730.176 39.5367 729.519C42.4325 729.25 51.478 729.758 54.6425 728.325C56.7322 727.37 58.7025 724.205 56.4336 720.563C54.9111 718.115 53.4185 715.398 53.5976 712.95C53.7767 710.294 53.5379 707.756 59.5981 706.771C59.0309 710.95 56.3142 716.264 64.4941 715.966C70.0766 715.787 75.689 715.13 81.3015 714.592C82.2269 714.443 87.0333 712.98 87.9588 712.771C93.8996 711.279 91.9293 707.129 89.6604 705.816C82.1374 701.487 74.2262 699.188 66.4942 695.277C64.6135 694.322 58.2249 689.993 52.3139 687.635C44.3132 684.411 43.9848 681.933 44.5819 680.828C46.1641 677.903 51.478 670.887 50.8212 665.842C52.7916 667.096 52.6124 671.275 52.0452 675.037C51.6273 677.634 51.8362 679.664 52.9408 681.993C54.4932 685.247 60.6728 689.695 63.0312 691.098C72.0469 696.382 82.0478 700.084 91.78 704.024C92.8249 704.442 103.512 708.95 107.095 710.98C98.079 712.712 88.8245 716.533 79.7789 718.205C76.2861 718.832 70.6737 720.056 66.6435 720.533C63.5387 720.921 62.3446 721.25 60.8818 721.28C60.8221 723.041 63.0611 726.086 63.5388 729.519C62.0759 732.385 57.0307 733.34 53.3588 733.579C52.4035 733.639 47.8956 733.46 46.791 733.37C43.5072 733.101 41.9249 732.743 38.462 733.49C33.9243 734.445 29.7448 739.968 25.7743 742.774C23.5652 745.073 20.8485 746.446 17.8333 747.043C14.5793 748.118 0.249715 747.73 -2.70576 746.297C-2.85503 750.446 -3.92976 754.656 -4.46712 758.089C-5.57169 765.283 -4.16857 770.985 -3.09385 778.061C-1.2728 790.091 -1.45192 804.809 -2.91474 816.482C-4.52682 804.779 -3.98946 791.793 -5.6911 780.061C-6.37772 775.284 -8.13907 765.044 -9.8407 760.477C-13.6619 750.327 -33.6039 748.983 -42.2614 746.595C-54.7699 743.132 -67.0695 739.012 -79.19 734.385C-98.1468 727.161 -132.09 710.264 -141.046 706.413C-142.449 705.816 -143.285 707.786 -143.464 708.293C-145.196 713.339 -149.614 721.041 -156.719 726.116C-156.719 726.116 -155.077 721.339 -154.361 719.22C-152.36 713.279 -151.345 711.935 -150.42 706.054Z" fill="#BCB7BB"/>
<path d="M-11.6012 704.024C-9.7503 694.381 -7.75011 684.739 -6.19774 675.036C4.9674 674.529 13.6248 671.424 20.5807 671.722C30.6114 672.17 40.672 672.23 50.7027 672.469C57.2107 672.618 69.5401 670.648 73.7196 674.648C74.9734 675.842 76.9139 678.798 78.7051 682.38C78.1677 683.723 77.4512 685.007 76.6751 686.291C75.8093 686.261 74.854 686.291 73.7793 686.142C68.7042 685.395 66.8832 681.544 61.4499 682.35C52.7625 683.604 47.4487 693.008 40.463 697.396C30.8801 703.397 19.4164 706.203 8.49008 708.502C5.65402 709.099 2.10146 709.188 0.429675 711.905C-0.764457 713.845 -1.21225 716.801 -1.45108 719.398C-5.98878 719.876 -10.4071 720.234 -14.6462 720.562H-14.6761C-14.6164 720.174 -14.6164 719.786 -14.5268 719.368C-13.7208 714.234 -12.5864 709.129 -11.6012 704.024Z" fill="#878286"/>
<path d="M8.48985 708.501C19.446 706.202 30.8798 703.396 40.4627 697.396C47.4783 693.007 52.7623 683.604 61.4496 682.35C66.9128 681.574 68.704 685.395 73.7791 686.141C74.8538 686.29 75.7792 686.29 76.6748 686.29C75.6299 687.992 74.406 689.634 72.9431 691.216C55.1506 710.382 24.9092 716.651 -1.51101 719.368C-1.24233 716.741 -0.824389 713.815 0.369744 711.875C2.10124 709.158 5.65378 709.068 8.48985 708.501Z" fill="#6D696D"/>
<path d="M78.7056 682.38C78.1085 681.156 77.4816 680.022 76.8845 679.007C77.9592 678.857 79.0041 678.619 79.9893 678.29C79.6609 679.693 79.2429 681.067 78.7056 682.38Z" fill="#A5A0A4"/>
<path d="M-28.3189 627.749C-8.07831 627.57 14.4609 629.092 35.4777 634.675C37.9854 637.093 39.9855 640.019 42.3439 642.705C45.2696 646.019 50.1655 648.318 52.2851 652.169C59.9275 666.14 35.3284 668.021 27.6561 671.723C27.5367 671.782 27.5068 671.902 27.5367 672.021C25.2081 671.962 22.9094 671.872 20.5809 671.782C10.5501 671.335 -3.0331 677.992 -22.5273 673.723C-27.3337 672.678 -34.5582 671.484 -38.7078 669.066C-43.753 666.11 -40.708 659.214 -43.2754 654.617C-46.6488 648.586 -52.5299 644.467 -58.411 640.944C-58.3214 640.765 -58.2319 640.556 -58.1125 640.377C-51.7836 629.301 -39.9318 627.868 -28.3189 627.749Z" fill="#A5A0A4"/>
<path d="M73.7199 674.649C74.5558 675.425 75.6902 677.007 76.8545 679.007C76.3171 679.097 75.7798 679.156 75.2424 679.186C68.3761 679.694 61.2114 677.962 54.4645 676.947C46.1056 675.693 37.7168 674.41 29.3579 673.156C28.7608 673.066 28.5518 672.618 28.6414 672.141C28.3727 672.171 28.0742 672.201 27.8055 672.201C27.6562 672.201 27.5667 672.081 27.5368 671.962C35.2688 672.201 43.0008 672.29 50.703 672.439C57.211 672.619 69.5404 670.648 73.7199 674.649Z" fill="#999698"/>
<path d="M52.2854 652.169C50.1658 648.318 45.2698 646.019 42.3442 642.706C39.9858 640.019 37.9856 637.093 35.478 634.675C44.7325 637.123 53.6885 640.377 62.0176 644.616C67.0329 647.184 76.9143 653.871 78.7951 659.841C80.8848 666.469 81.3028 672.648 79.9594 678.291C78.9742 678.589 77.9294 678.828 76.8547 679.007C75.6605 677.007 74.5261 675.425 73.7201 674.649C69.5406 670.648 57.2112 672.619 50.7031 672.469C42.9711 672.29 35.269 672.231 27.537 671.992C27.5071 671.872 27.537 671.753 27.6564 671.693C35.3287 668.021 59.9278 666.14 52.2854 652.169Z" fill="#999698"/>
<path d="M-38.3199 628.376C-27.0353 626.853 -15.0642 625.957 -3.86917 628.495C-6.94406 628.883 -17.542 631.48 -27.4234 629.988C-33.1553 629.122 -35.1853 630.585 -38.5886 630.555C-40.4992 630.555 -45.9026 631.271 -48.1715 633.003C-49.2462 633.809 -52.3211 636.943 -50.0224 638.436C-45.3951 641.421 -42.171 643.869 -40.4992 648.616C-38.6483 653.87 -34.8271 658.707 -30.3789 662.02C-20.9751 669.006 -9.69058 671.394 1.41486 669.424C5.89286 668.648 15.2967 669.722 20.6703 669.991C22.4615 669.961 24.2526 669.961 26.0438 670.081C28.0739 670.2 30.1039 670.349 32.1339 670.528C33.5967 670.588 35.0894 670.648 36.5522 670.737C40.1645 670.917 50.0161 669.573 59.0915 670.349C67.1519 671.006 69.9879 671.245 72.8837 669.573C81.0038 664.826 73.1524 652.407 66.913 647.691C67.0922 647.661 67.2713 647.691 67.4803 647.75C71.6 649.362 77.1527 653.572 79.8694 660.647C82.2576 666.886 81.5113 677.156 78.2274 683.216C77.1826 680.32 74.4958 677.604 72.0776 675.872C70.8537 675.006 69.7491 674.32 68.2564 674.141C66.9727 673.962 61.1812 674.738 59.2407 674.857C48.4935 675.484 37.2687 674.051 26.5215 673.573C22.4316 673.394 18.3417 672.917 14.2518 673.006C10.0425 673.096 4.25094 674.529 -0.227061 675.215C-1.36149 677.036 -3.63035 682.261 -4.31697 683.664C-8.97409 693.575 -8.49644 703.845 -13.5118 713.756C-13.0341 706.382 -12.0788 697.158 -10.1085 690.023C-9.0338 686.112 -8.82482 681.007 -7.69039 675.932C-14.885 676.529 -24.3187 677.007 -32.6179 672.767C-34.7375 671.215 -36.6183 671.036 -37.6034 674.23C-39.9021 681.813 -41.753 685.873 -46.0519 692.59C-48.7089 696.74 -49.7239 698.143 -53.4257 706.084C-51.4553 698.322 -47.873 690.381 -46.2609 682.44C-44.8876 675.633 -42.7979 668.08 -42.1113 661.154C-41.4844 654.796 -46.3206 650.437 -52.3808 646.855C-55.4856 645.004 -59.7546 645.243 -58.3813 640.974C-53.9332 630.376 -43.5144 629.062 -38.3199 628.376Z" fill="#BCB7BB"/>
<path d="M-16.7361 597.298C-16.7361 597.298 -6.22771 590.044 -2.25721 588.313C6.75849 584.342 25.4466 579.148 42.881 580.521C50.7324 589.536 59.0913 599.358 64.7635 609.956C65.7486 611.807 66.1367 616.733 66.1367 622.972C48.165 628.465 29.3276 632.197 12.4306 640.466C7.89291 642.675 4.42992 646.407 2.8477 651.84C1.32518 657.184 1.1162 662.588 1.95209 667.961C-9.83997 663.274 -11.87 659.841 -14.0791 655.154C-15.5121 652.079 -17.7511 652.915 -18.0496 652.139C-19.0646 649.542 -17.8406 647.541 -17.2734 644.437C-16.8853 642.257 -14.5568 638.406 -18.3482 640.317C-20.1991 641.242 -22.8859 645.631 -24.5576 646.526C-25.2443 646.885 -29.9313 642.526 -32.4091 640.377C-31.812 638.227 -30.8268 635.421 -30.2895 633.57C-27.4236 623.569 -16.7361 597.298 -16.7361 597.298Z" fill="#878286"/>
<path d="M-0.0781468 586.402C1.77276 585.447 4.84765 584.312 8.57932 583.208C8.63903 583.357 8.69874 583.476 8.81815 583.566C8.7883 584.103 9.32566 584.641 9.98243 584.372C10.7288 584.073 11.4452 583.775 12.1916 583.476C13.117 583.267 14.0126 582.939 14.9381 582.521C15.2366 582.402 15.356 582.133 15.356 581.864C17.2368 581.118 19.1772 580.521 21.1774 579.984C24.6703 579.237 28.193 578.64 31.447 578.192C34.701 577.924 37.9251 577.924 41 578.192C41.3881 578.222 41.6568 577.983 41.7464 577.715C42.1643 577.745 42.5822 577.804 42.9703 577.864C48.9708 582.491 56.1954 594.164 60.7032 600.284C66.5545 608.225 66.4649 615.3 66.1365 622.972C49.4485 631.272 12.4304 646.168 3.92221 648.945C-5.03379 635.75 -13.9002 612.942 -16.7661 597.269C-11.4522 591.179 -4.586 588.731 -0.0781468 586.402Z" fill="#999698"/>
<path d="M25.4461 589.417C24.0132 585.596 31.5063 577.685 39.3578 578.132C44.9702 582.192 48.7019 589.208 51.4782 595.208C55.4487 603.776 58.0459 614.434 52.6723 623.032C47.9257 630.644 38.7308 633.51 30.5809 635.899C30.0435 636.048 29.4166 635.57 29.4763 635.003C29.8644 629.39 30.1032 623.748 29.954 618.136C29.8346 614.016 28.5509 612.225 25.5357 609.598C24.4311 608.642 23.3564 607.687 22.5205 606.463C21.4159 604.821 20.9084 601.358 21.804 599.209C22.9981 596.343 27.4761 594.88 25.4461 589.417Z" fill="#A5A0A4"/>
<path d="M-24.5283 646.527C-22.8565 645.631 -20.1697 641.273 -18.3188 640.317C-14.5274 638.407 -16.856 642.258 -17.2441 644.437C-17.8113 647.542 -19.0054 649.512 -18.0203 652.139C-17.7217 652.915 -15.4827 652.08 -14.0498 655.154C-11.8705 659.871 -9.8106 663.275 1.98146 667.961C1.14557 662.588 1.32469 657.184 2.87707 651.841C4.42944 646.437 7.89242 642.676 12.46 640.467C14.0721 639.69 15.6841 638.974 17.3261 638.257C17.3261 642.288 17.6843 646.258 17.8933 646.855C18.9083 649.542 20.3412 654.647 18.6993 660.319C17.1469 665.752 16.9678 671.395 17.0574 675.007C-4.88479 673.783 -25.3045 665.603 -32.8275 643.183C-32.9768 642.735 -32.7678 641.631 -32.4096 640.287C-29.9019 642.526 -25.2149 646.885 -24.5283 646.527Z" fill="#6D696D"/>
<path d="M56.7629 636.078C59.2407 634.167 60.8827 628.883 61.9275 624.256C63.3605 623.838 64.7636 623.45 66.1667 623.002C66.1966 638.705 63.9277 662.976 63.3605 669.275C56.1957 671.335 47.9263 673.126 39.2987 674.2C40.8809 667.454 43.5677 659.005 45.5679 654.229C48.3443 647.661 51.0908 640.436 56.7629 636.078Z" fill="#6D696D"/>
<path d="M17.8936 646.914C17.6548 646.317 17.3264 642.317 17.3264 638.316C31.5664 632.167 46.9409 628.614 61.9272 624.285C60.9122 628.942 59.2404 634.227 56.7626 636.107C51.0905 640.466 48.344 647.661 45.5676 654.258C43.5674 659.005 40.8807 667.483 39.2984 674.23C32.0142 675.126 24.4613 675.514 17.0577 675.096C16.9682 671.483 17.1473 665.811 18.6996 660.408C20.3416 654.676 18.9086 649.571 17.8936 646.914Z" fill="#5B575B"/>
<path d="M-8.94465 613.718C-4.70548 612.165 -1.66043 612.912 2.84742 613.718C-0.376738 613.957 -4.40695 616.673 -7.03404 618.166C-6.34742 619.778 -3.83972 630.674 1.02637 635.69C4.42964 639.212 9.3853 637.929 15.1171 635.809C21.864 633.301 34.0143 632.018 41.0895 627.898C47.09 624.405 48.4633 618.464 50.0455 612.195C51.3292 607.12 47.9856 600.164 46.9706 595.149C44.045 591.507 40.8208 583.805 38.343 579.864C32.6709 577.774 20.7295 581.625 15.8037 584.103C9.92265 587.029 3.71315 585.984 -3.39194 588.044C5.17597 581.775 16.1321 579.715 26.4017 576.879C29.1482 576.132 39.5371 576.849 43.3285 577.506C50.4635 583.655 56.7625 593.567 62.2555 601.269C67.0321 607.956 68.3456 620.076 66.1663 623.032C60.2255 630.913 49.12 634.376 40.5223 637.988C37.0593 639.421 23.0283 641.899 16.8188 645.183C15.7142 645.78 13.3856 648.198 12.9677 648.885C12.1915 650.139 12.1617 651.422 10.5496 652.646C9.02706 653.811 7.23585 653.214 6.34025 655.871C5.56407 658.11 3.98185 660.08 1.59359 660.528C1.713 658.856 0.160626 654.915 0.309893 647.9C0.429306 643.004 -3.72032 638.048 -5.60107 632.555C-10.288 618.673 -16.2289 605.717 -15.4527 603C-10.0791 608.135 -11.7509 610.643 -8.94465 613.718Z" fill="#BCB7BB"/>
<path d="M1.71301 573.864C7.86279 578.521 14.7291 581.088 14.3708 589.537C14.1619 594.582 13.2364 599.508 12.5796 604.523C12.1617 607.598 9.29576 615.151 6.22087 617.121C5.98204 617.27 5.74322 617.39 5.50439 617.509C4.36997 617.33 3.35496 617.181 2.4295 617.031C0.817426 616.793 -1.60069 615.569 -4.37705 613.718C-2.1679 605.359 -5.27265 595.597 -7.27282 590.611C-8.97446 586.402 -16.4676 584.82 -16.6468 579.984C-16.8557 574.073 -18.0499 567.744 -16.6468 559.653C-10.7657 564.848 -2.79484 570.46 1.71301 573.864Z" fill="#6D696D"/>
<path d="M-13.8405 543.652C-6.07868 541.652 3.35497 542.786 11.5348 544.458C15.1769 545.055 18.7892 545.921 22.2521 546.816C33.3874 549.682 49.9859 557.116 60.345 562.131C64.3453 567.952 61.9869 583.924 60.3151 589.447C59.6285 591.716 58.8224 593.805 57.9567 595.746C57.3298 594.163 56.5834 592.581 56.673 590.939C58.1358 586.551 57.7179 584.431 55.867 586.163C52.5533 589.268 53.2399 592.104 47.4782 592.641C44.7615 592.91 44.5227 598.343 43.9853 599C40.194 603.687 39.9551 599.836 37.6863 601.418C31.5664 605.687 28.2228 602.702 21.5058 603.657C19.237 603.985 15.6844 607.508 12.0124 606.941C12.311 605.985 12.52 605.12 12.5797 604.463C13.2663 599.448 14.1619 594.522 14.3709 589.477C14.7291 581.028 7.86282 578.461 1.71304 573.804C-5.75029 568.131 -22.8264 556.429 -23.9011 550.578C-20.6471 545.562 -15.9601 544.189 -13.8405 543.652Z" fill="#878286"/>
<path d="M12.0123 607C15.7141 607.567 19.2666 604.044 21.5056 603.716C28.2226 602.731 31.5662 605.746 37.6861 601.477C39.955 599.895 40.1938 603.746 43.9852 599.059C44.5226 598.402 44.7614 592.969 47.478 592.7C53.2099 592.163 52.5531 589.327 55.8668 586.222C57.6879 584.491 58.1357 586.61 56.6728 590.999C56.5833 592.64 57.3296 594.193 57.9565 595.805C46.1645 622.046 18.6696 619.508 5.50427 617.568C5.7431 617.449 5.98192 617.329 6.22074 617.18C8.66871 615.568 10.9376 610.552 12.0123 607Z" fill="#6D696D"/>
<path d="M-21.5126 547.204C-15.9897 543.085 -6.70534 541.652 -0.22717 542.07C19.8343 543.383 52.0161 556.937 60.3452 562.161C57.5987 566.579 54.2253 570.46 50.4041 573.684C50.5832 572.998 50.6429 572.281 50.5235 571.505C50.4041 570.729 49.7174 570.012 48.9412 569.863C45.9857 566.579 40.6122 565.057 36.8805 563.176C30.3426 559.892 23.4764 557.265 16.9385 554.041C16.0429 553.593 15.207 554.369 15.1771 555.265C15.1473 557.295 15.6249 558.19 17.237 559.444C18.2222 560.191 20.3119 562.25 18.3714 567.594C16.5802 572.49 17.4758 579.207 16.9086 582.819C7.59439 580.58 -5.63064 571.505 -15.4524 559.235C-16.1987 558.31 -20.3782 556.101 -21.1544 555.354C-24.1994 552.369 -25.3935 550.07 -21.5126 547.204Z" fill="#999698"/>
<path d="M16.9383 553.981C23.4762 557.205 30.3126 559.832 36.8804 563.116C40.612 564.997 46.0155 566.519 48.9411 569.803C49.7173 569.953 50.4039 570.699 50.5233 571.445C50.6427 572.221 50.583 572.968 50.4039 573.625C41.4181 581.207 29.9245 585.058 18.2817 583.028C17.8339 582.939 17.3563 582.849 16.9085 582.73C17.5056 579.118 16.5801 572.401 18.3713 567.505C20.3118 562.161 18.222 560.101 17.2369 559.355C15.6248 558.101 15.1471 557.205 15.177 555.175C15.2068 554.309 16.0129 553.533 16.9383 553.981Z" fill="#A5A0A4"/>
<path d="M-11.3028 560.34C-5.21272 567.923 5.08667 574.7 7.44508 576.491C13.6247 581.208 19.267 582.82 24.1928 581.596C31.8054 579.745 37.1491 580.611 39.9255 578.61C43.1198 576.312 48.7024 569.445 50.195 568.132C51.837 566.669 55.9866 563.684 60.375 562.131C58.0464 565.714 55.8373 572.879 42.4332 580.491C40.4629 581.596 37.0297 584.014 34.9997 583.715C33.8653 583.865 26.9094 583.268 24.3122 583.894C22.5807 584.312 20.3119 584.671 18.4012 587.537C15.804 591.477 15.7741 596.522 15.4756 598.463C14.371 605.896 13.9531 612.285 8.01228 615.42C10.7289 611.359 12.0723 598.941 12.759 590.193C12.9978 587.059 12.3112 582.73 10.4304 582.432C1.14603 580.969 -1.36166 575.327 -5.18288 570.908C-10.855 564.341 -12.9149 567.863 -16.348 563.385C-17.4526 561.922 -17.99 559.027 -19.1244 558.28C-22.9755 555.713 -24.498 554.131 -23.9606 550.28C-21.6918 554.847 -15.7211 554.817 -11.3028 560.34Z" fill="#BCB7BB"/>
<path d="M-11.5414 582.64C-8.31725 585.148 -5.30207 592.94 -2.94366 595.179C2.48964 600.284 -0.585247 607.627 -3.89896 611.538C-3.24219 602.105 -4.85426 599.836 -8.01871 596.194C-11.3623 592.343 -10.7652 587.297 -14.4073 583.984C-20.7362 578.222 -19.6914 570.997 -17.2434 564.937C-17.4225 571.923 -17.2732 578.192 -11.5414 582.64Z" fill="#878286"/>
</g>
<defs>
<clipPath id="clip0_30_26219">
<rect width="1440" height="1024" fill="white"/>
</clipPath>
</defs>
</svg>
