<svg width="1440" height="1023" viewBox="0 0 1440 1023" fill="none" xmlns="http://www.w3.org/2000/svg">
<rect width="1441" height="1023" fill="url(#paint0_linear_53_17299)"/>
<path d="M370.678 40.6779L372.188 33L373.713 40.6779L381.391 42.1876L373.713 43.6972L372.188 51.3914L370.678 43.6972L363 42.1876L370.678 40.6779Z" fill="white" fill-opacity="0.5"/>
<path d="M47.0256 186.026L47.821 182L48.6164 186.026L52.6421 186.821L48.6164 187.6L47.821 191.626L47.0256 187.6L43 186.821L47.0256 186.026Z" fill="white" fill-opacity="0.5"/>
<path d="M605.026 97.0257L605.821 93L606.616 97.0257L610.642 97.8048L606.616 98.6002L605.821 102.626L605.026 98.6002L601 97.8048L605.026 97.0257Z" fill="white" fill-opacity="0.5"/>
<path d="M1017.69 79.6942L1019.2 72L1020.71 79.6942L1028.41 81.2038L1020.71 82.7134L1019.2 90.4076L1017.69 82.7134L1010 81.2038L1017.69 79.6942Z" fill="white" fill-opacity="0.5"/>
<path d="M1400.03 97.0256L1400.8 93L1401.6 97.0256L1405.63 97.821L1401.6 98.6164L1400.8 102.642L1400.03 98.6164L1396 97.821L1400.03 97.0256Z" fill="white" fill-opacity="0.5"/>
<path d="M1312.79 35.7886L1313.73 31L1314.67 35.7886L1319.46 36.7301L1314.67 37.6715L1313.73 42.4601L1312.79 37.6715L1308 36.7301L1312.79 35.7886Z" fill="white" fill-opacity="0.5"/>
<path d="M785.026 25.0257L785.821 21L786.616 25.0257L790.642 25.821L786.616 26.6164L785.821 30.6421L785.026 26.6164L781 25.821L785.026 25.0257Z" fill="white" fill-opacity="0.5"/>
<path d="M251.789 224.789L252.746 220L253.688 224.789L258.476 225.746L253.688 226.688L252.746 231.476L251.789 226.688L247 225.746L251.789 224.789Z" fill="white" fill-opacity="0.5"/>
<defs>
<linearGradient id="paint0_linear_53_17299" x1="720.5" y1="0" x2="720.5" y2="1023" gradientUnits="userSpaceOnUse">
<stop stop-color="#B28AC2"/>
<stop offset="0.479167" stop-color="#CD86A8"/>
<stop offset="0.802083" stop-color="#DF8395"/>
<stop offset="0.979167" stop-color="#FFFD9C"/>
</linearGradient>
</defs>
</svg>
