<svg width="31" height="31" viewBox="0 0 31 31" fill="none" xmlns="http://www.w3.org/2000/svg">
<path d="M3.76758 26.3757C4.96958 22.5123 8.06313 21.3517 15.0717 21.3517C22.0802 21.3517 25.1737 22.5123 26.3757 26.3757M21.3517 10.0476C21.3517 11.7132 20.6901 13.3105 19.5123 14.4883C18.3346 15.666 16.7372 16.3277 15.0717 16.3277C13.4061 16.3277 11.8087 15.666 10.631 14.4883C9.45326 13.3105 8.79161 11.7132 8.79161 10.0476C8.79161 8.38205 9.45326 6.7847 10.631 5.60696C11.8087 4.42922 13.4061 3.76758 15.0717 3.76758C16.7372 3.76758 18.3346 4.42922 19.5123 5.60696C20.6901 6.7847 21.3517 8.38205 21.3517 10.0476Z" stroke="black" stroke-width="2.51202" stroke-linecap="round" stroke-linejoin="round"/>
</svg>
